<?xml version="1.0" encoding="utf-8"?>
<!-- Generator: Adobe Illustrator 21.0.2, SVG Export Plug-In . SVG Version: 6.00 Build 0)  -->
<svg version="1.1" id="Layer_1" xmlns="http://www.w3.org/2000/svg" xmlns:xlink="http://www.w3.org/1999/xlink" x="0px" y="0px"
	 viewBox="0 0 1024 1024" style="enable-background:new 0 0 1024 1024;" xml:space="preserve">
<style type="text/css">
	.st0{fill:#FF9000;}
	.st1{opacity:0.25;}
	.st2{fill-opacity:0;}
	.st3{opacity:5.813953e-03;enable-background:new    ;}
	.st4{opacity:1.162791e-02;enable-background:new    ;}
	.st5{opacity:1.744186e-02;enable-background:new    ;}
	.st6{opacity:2.325581e-02;enable-background:new    ;}
	.st7{opacity:2.906977e-02;enable-background:new    ;}
	.st8{opacity:3.488372e-02;enable-background:new    ;}
	.st9{opacity:4.069768e-02;enable-background:new    ;}
	.st10{opacity:4.651163e-02;enable-background:new    ;}
	.st11{opacity:5.232558e-02;enable-background:new    ;}
	.st12{opacity:5.813954e-02;enable-background:new    ;}
	.st13{opacity:6.395349e-02;enable-background:new    ;}
	.st14{opacity:6.976745e-02;enable-background:new    ;}
	.st15{opacity:7.558139e-02;enable-background:new    ;}
	.st16{opacity:8.139535e-02;enable-background:new    ;}
	.st17{opacity:8.720930e-02;enable-background:new    ;}
	.st18{opacity:9.302326e-02;enable-background:new    ;}
	.st19{opacity:9.883721e-02;enable-background:new    ;}
	.st20{opacity:0.1047;enable-background:new    ;}
	.st21{opacity:0.1105;enable-background:new    ;}
	.st22{opacity:0.1163;enable-background:new    ;}
	.st23{opacity:0.1221;enable-background:new    ;}
	.st24{opacity:0.1279;enable-background:new    ;}
	.st25{opacity:0.1337;enable-background:new    ;}
	.st26{opacity:0.1395;enable-background:new    ;}
	.st27{opacity:0.1453;enable-background:new    ;}
	.st28{opacity:0.1512;enable-background:new    ;}
	.st29{opacity:0.157;enable-background:new    ;}
	.st30{opacity:0.1628;enable-background:new    ;}
	.st31{opacity:0.1686;enable-background:new    ;}
	.st32{opacity:0.1744;enable-background:new    ;}
	.st33{opacity:0.1802;enable-background:new    ;}
	.st34{opacity:0.186;enable-background:new    ;}
	.st35{opacity:0.1919;enable-background:new    ;}
	.st36{opacity:0.1977;enable-background:new    ;}
	.st37{opacity:0.2035;enable-background:new    ;}
	.st38{opacity:0.2093;enable-background:new    ;}
	.st39{opacity:0.2151;enable-background:new    ;}
	.st40{opacity:0.2209;enable-background:new    ;}
	.st41{opacity:0.2267;enable-background:new    ;}
	.st42{opacity:0.2326;enable-background:new    ;}
	.st43{opacity:0.2384;enable-background:new    ;}
	.st44{opacity:0.2442;enable-background:new    ;}
	.st45{opacity:0.25;enable-background:new    ;}
	.st46{opacity:0.2558;enable-background:new    ;}
	.st47{opacity:0.2616;enable-background:new    ;}
	.st48{opacity:0.2674;enable-background:new    ;}
	.st49{opacity:0.2733;enable-background:new    ;}
	.st50{opacity:0.2791;enable-background:new    ;}
	.st51{opacity:0.2849;enable-background:new    ;}
	.st52{opacity:0.2907;enable-background:new    ;}
	.st53{opacity:0.2965;enable-background:new    ;}
	.st54{opacity:0.3023;enable-background:new    ;}
	.st55{opacity:0.3081;enable-background:new    ;}
	.st56{opacity:0.314;enable-background:new    ;}
	.st57{opacity:0.3198;enable-background:new    ;}
	.st58{opacity:0.3256;enable-background:new    ;}
	.st59{opacity:0.3314;enable-background:new    ;}
	.st60{opacity:0.3372;enable-background:new    ;}
	.st61{opacity:0.343;enable-background:new    ;}
	.st62{opacity:0.3488;enable-background:new    ;}
	.st63{opacity:0.3547;enable-background:new    ;}
	.st64{opacity:0.3605;enable-background:new    ;}
	.st65{opacity:0.3663;enable-background:new    ;}
	.st66{opacity:0.3721;enable-background:new    ;}
	.st67{opacity:0.3779;enable-background:new    ;}
	.st68{opacity:0.3837;enable-background:new    ;}
	.st69{opacity:0.3895;enable-background:new    ;}
	.st70{opacity:0.3953;enable-background:new    ;}
	.st71{opacity:0.4012;enable-background:new    ;}
	.st72{opacity:0.407;enable-background:new    ;}
	.st73{opacity:0.4128;enable-background:new    ;}
	.st74{opacity:0.4186;enable-background:new    ;}
	.st75{opacity:0.4244;enable-background:new    ;}
	.st76{opacity:0.4302;enable-background:new    ;}
	.st77{opacity:0.436;enable-background:new    ;}
	.st78{opacity:0.4419;enable-background:new    ;}
	.st79{opacity:0.4477;enable-background:new    ;}
	.st80{opacity:0.4535;enable-background:new    ;}
	.st81{opacity:0.4593;enable-background:new    ;}
	.st82{opacity:0.4651;enable-background:new    ;}
	.st83{opacity:0.4709;enable-background:new    ;}
	.st84{opacity:0.4767;enable-background:new    ;}
	.st85{opacity:0.4826;enable-background:new    ;}
	.st86{opacity:0.4884;enable-background:new    ;}
	.st87{opacity:0.4942;enable-background:new    ;}
	.st88{opacity:0.5;enable-background:new    ;}
	.st89{opacity:0.5058;enable-background:new    ;}
	.st90{opacity:0.5116;enable-background:new    ;}
	.st91{opacity:0.5174;enable-background:new    ;}
	.st92{opacity:0.5233;enable-background:new    ;}
	.st93{opacity:0.5291;enable-background:new    ;}
	.st94{opacity:0.5349;enable-background:new    ;}
	.st95{opacity:0.5407;enable-background:new    ;}
	.st96{opacity:0.5465;enable-background:new    ;}
	.st97{opacity:0.5523;enable-background:new    ;}
	.st98{opacity:0.5581;enable-background:new    ;}
	.st99{opacity:0.564;enable-background:new    ;}
	.st100{opacity:0.5698;enable-background:new    ;}
	.st101{opacity:0.5756;enable-background:new    ;}
	.st102{opacity:0.5814;enable-background:new    ;}
	.st103{opacity:0.5872;enable-background:new    ;}
	.st104{opacity:0.593;enable-background:new    ;}
	.st105{opacity:0.5988;enable-background:new    ;}
	.st106{opacity:0.6047;enable-background:new    ;}
	.st107{opacity:0.6105;enable-background:new    ;}
	.st108{opacity:0.6163;enable-background:new    ;}
	.st109{opacity:0.6221;enable-background:new    ;}
	.st110{opacity:0.6279;enable-background:new    ;}
	.st111{opacity:0.6337;enable-background:new    ;}
	.st112{opacity:0.6395;enable-background:new    ;}
	.st113{opacity:0.6453;enable-background:new    ;}
	.st114{opacity:0.6512;enable-background:new    ;}
	.st115{opacity:0.657;enable-background:new    ;}
	.st116{opacity:0.6628;enable-background:new    ;}
	.st117{opacity:0.6686;enable-background:new    ;}
	.st118{opacity:0.6744;enable-background:new    ;}
	.st119{opacity:0.6802;enable-background:new    ;}
	.st120{opacity:0.686;enable-background:new    ;}
	.st121{opacity:0.6919;enable-background:new    ;}
	.st122{opacity:0.6977;enable-background:new    ;}
	.st123{opacity:0.7035;enable-background:new    ;}
	.st124{opacity:0.7093;enable-background:new    ;}
	.st125{opacity:0.7151;enable-background:new    ;}
	.st126{opacity:0.7209;enable-background:new    ;}
	.st127{opacity:0.7267;enable-background:new    ;}
	.st128{opacity:0.7326;enable-background:new    ;}
	.st129{opacity:0.7384;enable-background:new    ;}
	.st130{opacity:0.7442;enable-background:new    ;}
	.st131{opacity:0.75;enable-background:new    ;}
	.st132{opacity:0.7558;enable-background:new    ;}
	.st133{opacity:0.7616;enable-background:new    ;}
	.st134{opacity:0.7674;enable-background:new    ;}
	.st135{opacity:0.7733;enable-background:new    ;}
	.st136{opacity:0.7791;enable-background:new    ;}
	.st137{opacity:0.7849;enable-background:new    ;}
	.st138{opacity:0.7907;enable-background:new    ;}
	.st139{opacity:0.7965;enable-background:new    ;}
	.st140{opacity:0.8023;enable-background:new    ;}
	.st141{opacity:0.8081;enable-background:new    ;}
	.st142{opacity:0.814;enable-background:new    ;}
	.st143{opacity:0.8198;enable-background:new    ;}
	.st144{opacity:0.8256;enable-background:new    ;}
	.st145{opacity:0.8314;enable-background:new    ;}
	.st146{opacity:0.8372;enable-background:new    ;}
	.st147{opacity:0.843;enable-background:new    ;}
	.st148{opacity:0.8488;enable-background:new    ;}
	.st149{opacity:0.8547;enable-background:new    ;}
	.st150{opacity:0.8605;enable-background:new    ;}
	.st151{opacity:0.8663;enable-background:new    ;}
	.st152{opacity:0.8721;enable-background:new    ;}
	.st153{opacity:0.8779;enable-background:new    ;}
	.st154{opacity:0.8837;enable-background:new    ;}
	.st155{opacity:0.8895;enable-background:new    ;}
	.st156{opacity:0.8953;enable-background:new    ;}
	.st157{opacity:0.9012;enable-background:new    ;}
	.st158{opacity:0.907;enable-background:new    ;}
	.st159{opacity:0.9128;enable-background:new    ;}
	.st160{opacity:0.9186;enable-background:new    ;}
	.st161{opacity:0.9244;enable-background:new    ;}
	.st162{opacity:0.9302;enable-background:new    ;}
	.st163{opacity:0.936;enable-background:new    ;}
	.st164{opacity:0.9419;enable-background:new    ;}
	.st165{opacity:0.9477;enable-background:new    ;}
	.st166{opacity:0.9535;enable-background:new    ;}
	.st167{opacity:0.9593;enable-background:new    ;}
	.st168{opacity:0.9651;enable-background:new    ;}
	.st169{opacity:0.9709;enable-background:new    ;}
	.st170{opacity:0.9767;enable-background:new    ;}
	.st171{opacity:0.9826;enable-background:new    ;}
	.st172{opacity:0.9884;enable-background:new    ;}
	.st173{opacity:0.9942;enable-background:new    ;}
	.st174{fill:#2474A9;}
	.st175{fill:#34495E;}
</style>
<g id="Background">
	<rect class="st0" width="1024" height="1024"/>
</g>
<g id="Layer_3">
	<g class="st1">
		<path class="st2" d="M251.6,610.6c-0.3,4.8-0.4,9.6-0.5,14.4c-0.8,56.3,16.5,111.2,51.7,156.2c32.7,41.8,100.2,67.5,153.1,71.3
			s97.4-5.2,143.6-23.2c5.3,20.6,10.7,41.2,16,61.8c-65.6,23.3-135.9,32.1-204.9,22.3c-70.6-10.1-139.5-44.3-182.7-100.9
			c-34.8-45.6-51.5-101.6-55.1-158.8c-7.1-111.5,26.1-229.4,126-289.9c94.6-57.2,216.9-68.8,319.3-26c-5.8,21.1-11.6,42.1-17.4,63.2
			c-85.2-30.8-187.6-37.2-260,17.3C282.5,462.3,255.6,537.3,251.6,610.6z"/>
		<path class="st3" d="M252.4,609.9c-0.3,4.8-0.4,9.6-0.5,14.4c-0.8,56.3,16.5,111.2,51.7,156.2c32.7,41.8,100.2,67.5,153.1,71.3
			s97.4-5.2,143.6-23.2c5.3,20.6,10.7,41.2,16,61.8c-65.6,23.3-135.9,32.1-204.9,22.3c-70.6-10.1-139.5-44.3-182.7-100.9
			c-34.8-45.6-51.5-101.6-55.1-158.8c-7.1-111.5,26.1-229.4,126-289.9c94.6-57.2,216.9-68.8,319.3-26c-5.8,21.1-11.6,42.1-17.4,63.2
			c-85.2-30.8-187.6-37.2-260,17.3C283.2,461.5,256.4,536.6,252.4,609.9z"/>
		<path class="st4" d="M253.1,609.2c-0.3,4.8-0.4,9.6-0.5,14.4c-0.8,56.3,16.5,111.2,51.7,156.2c32.7,41.8,100.2,67.5,153.1,71.3
			c52.9,3.9,97.4-5.2,143.6-23.2c5.3,20.6,10.7,41.2,16,61.8C551.4,913,481.1,921.8,412.1,912c-70.6-10.1-139.5-44.3-182.7-100.9
			c-34.8-45.6-51.5-101.6-55.1-158.8c-7.1-111.5,26.1-229.4,126-289.9c94.6-57.2,216.9-68.8,319.3-26c-5.8,21.1-11.6,42.1-17.4,63.2
			c-85.2-30.8-187.6-37.2-260,17.3C283.9,460.8,257.1,535.9,253.1,609.2z"/>
		<path class="st5" d="M253.8,608.5c-0.3,4.8-0.4,9.6-0.5,14.4c-0.8,56.3,16.5,111.2,51.7,156.2c32.7,41.8,100.2,67.5,153.1,71.3
			c52.9,3.9,97.4-5.2,143.6-23.2c5.3,20.6,10.7,41.2,16,61.8c-65.6,23.3-135.9,32.1-204.9,22.3c-70.6-10.1-139.5-44.3-182.7-100.9
			c-34.8-45.6-51.5-101.6-55.1-158.8c-7.1-111.5,26.1-229.4,126-289.9c94.6-57.2,216.9-68.8,319.3-26c-5.8,21.1-11.6,42.1-17.4,63.2
			c-85.2-30.8-187.6-37.2-260,17.3C284.6,460.1,257.8,535.2,253.8,608.5z"/>
		<path class="st6" d="M254.5,607.8c-0.3,4.8-0.4,9.6-0.5,14.4c-0.8,56.3,16.5,111.2,51.7,156.2c32.7,41.8,100.2,67.5,153.1,71.3
			c52.9,3.9,97.4-5.2,143.6-23.2c5.3,20.6,10.7,41.2,16,61.8c-65.6,23.3-135.9,32.1-204.9,22.3c-70.6-10.1-139.5-44.3-182.7-100.9
			c-34.8-45.6-51.5-101.6-55.1-158.8c-7.1-111.5,26.1-229.4,126-289.9c94.6-57.2,216.9-68.8,319.3-26c-5.8,21.1-11.6,42.1-17.4,63.2
			c-85.2-30.8-187.6-37.2-260,17.3C285.3,459.4,258.5,534.5,254.5,607.8z"/>
		<path class="st7" d="M255.2,607.1c-0.3,4.8-0.4,9.6-0.5,14.4c-0.8,56.3,16.5,111.2,51.7,156.2c32.7,41.8,100.2,67.5,153.1,71.3
			c52.9,3.9,97.4-5.2,143.6-23.2c5.3,20.6,10.7,41.2,16,61.8c-65.6,23.3-135.9,32.1-204.9,22.3c-70.6-10.1-139.5-44.3-182.7-100.9
			c-34.8-45.6-51.5-101.6-55.1-158.8c-7.1-111.5,26.1-229.4,126-289.9c94.6-57.2,216.9-68.8,319.3-26c-5.8,21.1-11.6,42.1-17.4,63.2
			c-85.2-30.8-187.6-37.2-260,17.3C286,458.7,259.2,533.8,255.2,607.1z"/>
		<path class="st8" d="M255.9,606.4c-0.3,4.8-0.4,9.6-0.5,14.4c-0.8,56.3,16.5,111.2,51.7,156.2c32.7,41.8,100.2,67.5,153.1,71.3
			c52.9,3.9,97.4-5.2,143.6-23.2c5.3,20.6,10.7,41.2,16,61.8c-65.6,23.3-135.9,32.1-204.9,22.3c-70.6-10.1-139.5-44.3-182.7-100.9
			c-34.8-45.6-51.5-101.6-55.1-158.8c-7.1-111.5,26.1-229.4,126-289.9c94.6-57.2,216.9-68.8,319.3-26c-5.8,21.1-11.6,42.1-17.4,63.2
			c-85.2-30.8-187.6-37.2-260,17.3C286.7,458,259.9,533,255.9,606.4z"/>
		<path class="st9" d="M256.6,605.7c-0.3,4.8-0.4,9.6-0.5,14.4c-0.8,56.3,16.5,111.2,51.7,156.2c32.7,41.8,100.2,67.5,153.1,71.3
			c52.9,3.9,97.4-5.2,143.6-23.2c5.3,20.6,10.7,41.2,16,61.8c-65.6,23.3-135.9,32.1-204.9,22.3c-70.6-10.1-139.5-44.3-182.7-100.9
			c-34.7-45.6-51.4-101.6-55-158.8c-7.1-111.5,26.1-229.4,126-289.9c94.6-57.2,216.9-68.8,319.3-26c-5.8,21.1-11.6,42.1-17.4,63.2
			c-85.2-30.8-187.6-37.2-260,17.3C287.4,457.3,260.6,532.3,256.6,605.7z"/>
		<path class="st10" d="M257.3,605c-0.3,4.8-0.4,9.6-0.5,14.4c-0.8,56.3,16.5,111.2,51.7,156.2c32.7,41.8,100.2,67.5,153.1,71.3
			s97.4-5.2,143.6-23.2c5.3,20.6,10.7,41.2,16,61.8c-65.6,23.3-135.9,32.1-204.9,22.3c-70.6-10.1-139.5-44.3-182.7-100.9
			c-34.8-45.6-51.5-101.6-55.1-158.8c-7.1-111.5,26.1-229.4,126-289.9c94.6-57.2,216.9-68.8,319.3-26c-5.8,21.1-11.6,42.1-17.4,63.2
			c-85.2-30.8-187.6-37.2-260,17.3C288.1,456.6,261.3,531.6,257.3,605z"/>
		<path class="st11" d="M258,604.3c-0.3,4.8-0.4,9.6-0.5,14.4c-0.8,56.3,16.5,111.2,51.7,156.2c32.7,41.8,100.2,67.5,153.1,71.3
			S559.8,841,606,823c5.3,20.6,10.7,41.2,16,61.8c-65.6,23.3-135.9,32.1-204.9,22.3c-70.6-10.1-139.5-44.3-182.7-100.9
			c-34.8-45.6-51.5-101.6-55.1-158.8c-7.1-111.5,26.1-229.4,126-289.9c94.6-57.2,216.9-68.8,319.3-26c-5.8,21.1-11.6,42.1-17.4,63.2
			c-85.2-30.8-187.6-37.2-260,17.3C288.8,455.9,262,530.9,258,604.3z"/>
		<path class="st12" d="M258.7,603.6c-0.3,4.8-0.4,9.6-0.5,14.4c-0.8,56.3,16.5,111.2,51.7,156.2c32.7,41.8,100.2,67.5,153.1,71.3
			s97.4-5.2,143.6-23.2c5.3,20.6,10.7,41.2,16,61.8c-65.6,23.3-135.9,32.1-204.9,22.3c-70.6-10.1-139.5-44.3-182.7-100.9
			c-34.8-45.6-51.5-101.6-55.1-158.8c-7.1-111.5,26.1-229.4,126-289.9c94.6-57.2,216.9-68.8,319.3-26c-5.8,21.1-11.6,42.1-17.4,63.2
			c-85.2-30.8-187.6-37.2-260,17.3C289.6,455.2,262.7,530.2,258.7,603.6z"/>
		<path class="st13" d="M259.4,602.9c-0.3,4.8-0.4,9.6-0.5,14.4c-0.8,56.3,16.5,111.2,51.7,156.2c32.7,41.8,100.2,67.5,153.1,71.3
			s97.4-5.2,143.6-23.2c5.3,20.6,10.7,41.2,16,61.8c-65.6,23.3-135.9,32.1-204.9,22.3C348,895.6,279,861.4,235.8,804.8
			C201,759.2,184.3,703.2,180.7,646c-7.1-111.5,26.1-229.4,126-289.9c94.6-57.2,216.9-68.8,319.3-26c-5.8,21.1-11.6,42.1-17.4,63.2
			c-85.2-30.8-187.6-37.2-260,17.3C290.3,454.5,263.4,529.5,259.4,602.9z"/>
		<path class="st14" d="M260.1,602.2c-0.3,4.8-0.4,9.6-0.5,14.4c-0.8,56.3,16.5,111.2,51.7,156.2c32.7,41.8,100.2,67.5,153.1,71.3
			s97.4-5.2,143.6-23.2c5.3,20.6,10.7,41.2,16,61.8C558.5,906,488.2,914.8,419.2,905c-70.6-10.1-139.5-44.3-182.7-100.9
			c-34.8-45.6-51.5-101.6-55.1-158.8c-7.1-111.5,26.1-229.4,126-289.9c94.6-57.2,216.9-68.8,319.3-26c-5.8,21.1-11.6,42.1-17.4,63.2
			c-85.2-30.8-187.6-37.2-260,17.3C291,453.8,264.1,528.8,260.1,602.2z"/>
		<path class="st15" d="M260.8,601.4c-0.3,4.8-0.4,9.6-0.5,14.4C259.5,672.1,276.8,727,312,772c32.7,41.8,100.2,67.5,153.1,71.3
			c52.9,3.9,97.4-5.2,143.6-23.2c5.3,20.6,10.7,41.2,16,61.8c-65.6,23.3-135.9,32.1-204.9,22.3c-70.6-10.1-139.5-44.3-182.7-100.9
			c-34.8-45.6-51.5-101.6-55.1-158.8c-7.1-111.5,26.1-229.4,126-289.9c94.6-57.2,216.9-68.8,319.3-26c-5.8,21.1-11.6,42.1-17.4,63.2
			c-85.2-30.8-187.6-37.2-260,17.3C291.7,453,264.9,528.1,260.8,601.4z"/>
		<path class="st16" d="M261.6,600.7c-0.3,4.8-0.4,9.6-0.5,14.4c-0.8,56.3,16.5,111.2,51.7,156.2c32.7,41.8,100.2,67.5,153.1,71.3
			c52.9,3.9,97.4-5.2,143.6-23.2c5.3,20.6,10.7,41.2,16,61.8c-65.6,23.3-135.9,32.1-204.9,22.3c-70.6-10.1-139.5-44.3-182.7-100.9
			C203.2,757,186.5,701,182.8,643.8c-7.1-111.5,26.1-229.4,126-289.9c94.6-57.2,216.9-68.8,319.3-26c-5.8,21.1-11.6,42.1-17.4,63.2
			c-85.2-30.8-187.6-37.2-260,17.3C292.4,452.3,265.6,527.4,261.6,600.7z"/>
		<path class="st17" d="M262.3,600c-0.3,4.8-0.4,9.6-0.5,14.4c-0.8,56.3,16.5,111.2,51.7,156.2c32.7,41.8,100.2,67.5,153.1,71.3
			c52.9,3.9,97.4-5.2,143.6-23.2c5.3,20.6,10.7,41.2,16,61.8c-65.6,23.3-135.9,32.1-204.9,22.3c-70.6-10.1-139.5-44.3-182.7-100.9
			c-34.8-45.6-51.5-101.6-55.1-158.8c-7.1-111.5,26.1-229.4,126-289.9c94.6-57.2,216.9-68.8,319.3-26c-5.8,21.1-11.6,42.1-17.4,63.2
			c-85.2-30.8-187.6-37.2-260,17.3C293.1,451.6,266.3,526.7,262.3,600z"/>
		<path class="st18" d="M263,599.3c-0.3,4.8-0.4,9.6-0.5,14.4c-0.8,56.3,16.5,111.2,51.7,156.2c32.7,41.8,100.2,67.5,153.1,71.3
			c52.9,3.9,97.4-5.2,143.6-23.2c5.3,20.6,10.7,41.2,16,61.8C561.3,903.2,491,912,422.1,902.1c-70.6-10.1-139.5-44.3-182.7-100.9
			c-34.8-45.6-51.5-101.6-55.1-158.8c-7.1-111.5,26.1-229.4,126-289.9c94.6-57.2,216.9-68.8,319.3-26c-5.8,21.1-11.6,42.1-17.4,63.2
			c-85.2-30.8-187.6-37.2-260,17.3C293.8,450.9,267,526,263,599.3z"/>
		<path class="st19" d="M263.7,598.6c-0.3,4.8-0.4,9.6-0.5,14.4c-0.8,56.3,16.5,111.2,51.7,156.2c32.7,41.8,100.2,67.5,153.1,71.3
			c52.9,3.9,97.4-5.2,143.6-23.2c5.3,20.6,10.7,41.2,16,61.8c-65.6,23.3-135.9,32.1-204.9,22.3c-70.6-10.1-139.5-44.3-182.7-100.9
			c-34.8-45.6-51.5-101.6-55.1-158.8c-7.1-111.5,26.1-229.4,126-289.9c94.6-57.2,216.9-68.8,319.3-26c-5.8,21.1-11.6,42.1-17.4,63.2
			c-85.2-30.8-187.6-37.2-260,17.3C294.5,450.2,267.7,525.3,263.7,598.6z"/>
		<path class="st20" d="M264.4,597.9c-0.3,4.8-0.4,9.6-0.5,14.4c-0.8,56.3,16.5,111.2,51.7,156.2c32.7,41.8,100.2,67.5,153.1,71.3
			c52.9,3.9,97.4-5.2,143.6-23.2c5.3,20.6,10.7,41.2,16,61.8c-65.6,23.3-135.9,32.1-204.9,22.3c-70.6-10.1-139.5-44.3-182.7-100.9
			c-34.7-45.6-51.4-101.6-55-158.8c-7.1-111.5,26.1-229.4,126-289.9c94.6-57.2,216.9-68.8,319.3-26c-5.8,21.1-11.6,42.1-17.4,63.2
			c-85.2-30.8-187.6-37.2-260,17.3C295.2,449.5,268.4,524.5,264.4,597.9z"/>
		<path class="st21" d="M265.1,597.2c-0.3,4.8-0.4,9.6-0.5,14.4c-0.8,56.3,16.5,111.2,51.7,156.2c32.7,41.8,100.2,67.5,153.1,71.3
			s97.4-5.2,143.6-23.2c5.3,20.6,10.7,41.2,16,61.8C563.4,901,493.1,909.8,424.2,900c-70.6-10.1-139.5-44.3-182.7-100.9
			c-34.8-45.6-51.5-101.6-55.1-158.8c-7.1-111.5,26.1-229.4,126-289.9c94.6-57.2,216.9-68.8,319.3-26c-5.8,21.1-11.6,42.1-17.4,63.2
			c-85.2-30.8-187.6-37.2-260,17.3C295.9,448.8,269.1,523.8,265.1,597.2z"/>
		<path class="st22" d="M265.8,596.5c-0.3,4.8-0.4,9.6-0.5,14.4c-0.8,56.3,16.5,111.2,51.7,156.2c32.7,41.8,100.2,67.5,153.1,71.3
			s97.4-5.2,143.6-23.2c5.3,20.6,10.7,41.2,16,61.8c-65.6,23.3-135.9,32.1-204.9,22.3c-70.6-10.1-139.5-44.3-182.7-100.9
			c-34.8-45.6-51.5-101.6-55.1-158.8c-7-111.6,26.2-229.5,126-289.9c94.6-57.2,216.9-68.8,319.3-26c-5.8,21.1-11.6,42.1-17.4,63.2
			c-85.2-30.8-187.6-37.2-260,17.3C296.6,448.1,269.8,523.1,265.8,596.5z"/>
		<path class="st23" d="M266.5,595.8c-0.3,4.8-0.4,9.6-0.5,14.4c-0.8,56.3,16.5,111.2,51.7,156.2c32.7,41.8,100.2,67.5,153.1,71.3
			s97.4-5.2,143.6-23.2c5.3,20.6,10.7,41.2,16,61.8c-65.6,23.3-135.9,32.1-204.9,22.3c-70.6-10.1-139.5-44.3-182.7-100.9
			c-34.8-45.6-51.5-101.6-55.1-158.8c-7.1-111.5,26.1-229.4,126-289.9c94.6-57.2,216.9-68.8,319.3-26c-5.8,21.1-11.6,42.1-17.4,63.2
			c-85.2-30.8-187.6-37.2-260,17.3C297.3,447.4,270.5,522.4,266.5,595.8z"/>
		<path class="st24" d="M267.2,595.1c-0.3,4.8-0.4,9.6-0.5,14.4c-0.8,56.3,16.5,111.2,51.7,156.2c32.7,41.8,100.2,67.5,153.1,71.3
			s97.4-5.2,143.6-23.2c5.3,20.6,10.7,41.2,16,61.8c-65.6,23.3-135.9,32.1-204.9,22.3c-70.6-10.1-139.5-44.3-182.7-100.9
			c-34.8-45.6-51.5-101.6-55.1-158.8c-7.1-111.5,26.1-229.4,126-289.9c94.6-57.2,216.9-68.8,319.3-26c-5.8,21.1-11.6,42.1-17.4,63.2
			c-85.2-30.8-187.6-37.2-260,17.3C298,446.7,271.2,521.7,267.2,595.1z"/>
		<path class="st25" d="M267.9,594.4c-0.3,4.8-0.4,9.6-0.5,14.4c-0.8,56.3,16.5,111.2,51.7,156.2c32.7,41.8,100.2,67.5,153.1,71.3
			c52.9,3.9,97.4-5.2,143.6-23.2c5.3,20.6,10.7,41.2,16,61.8C566.3,898.2,496,907,427,897.2c-70.6-10.1-139.5-44.3-182.7-100.9
			c-34.8-45.6-51.5-101.6-55.1-158.8c-7.1-111.5,26.1-229.4,126-289.9c94.6-57.2,216.9-68.8,319.3-26c-5.8,21.1-11.6,42.1-17.4,63.2
			c-85.2-30.8-187.6-37.2-260,17.3C298.8,446,271.9,521,267.9,594.4z"/>
		<path class="st26" d="M268.6,593.7c-0.3,4.8-0.4,9.6-0.5,14.4c-0.8,56.3,16.5,111.2,51.7,156.2c32.7,41.8,100.2,67.5,153.1,71.3
			c52.9,3.9,97.4-5.2,143.6-23.2c5.3,20.6,10.7,41.2,16,61.8c-65.6,23.3-135.9,32.1-204.9,22.3c-70.6-10.1-139.5-44.3-182.7-100.9
			C210.1,750,193.4,694,189.8,636.8c-7.1-111.5,26.1-229.4,126-289.9c94.6-57.2,216.9-68.8,319.3-26c-5.8,21.1-11.6,42.1-17.4,63.2
			c-85.2-30.8-187.6-37.2-260,17.3C299.5,445.3,272.6,520.3,268.6,593.7z"/>
		<path class="st27" d="M269.3,592.9c-0.3,4.8-0.4,9.6-0.5,14.4c-0.8,56.3,16.5,111.2,51.7,156.2c32.7,41.8,100.2,67.5,153.1,71.3
			c52.9,3.9,97.4-5.2,143.6-23.2c5.3,20.6,10.7,41.2,16,61.8c-65.6,23.3-135.9,32.1-204.9,22.3c-70.6-10.1-139.5-44.3-182.7-100.9
			c-34.8-45.6-51.5-101.6-55.1-158.8c-7.1-111.5,26.1-229.4,126-289.9c94.6-57.2,216.9-68.8,319.3-26c-5.8,21.1-11.6,42.1-17.4,63.2
			c-85.2-30.8-187.6-37.2-260,17.3C300.2,444.6,273.4,519.6,269.3,592.9z"/>
		<path class="st28" d="M270.1,592.2c-0.3,4.8-0.4,9.6-0.5,14.4c-0.8,56.3,16.5,111.2,51.7,156.2c32.7,41.8,100.2,67.5,153.1,71.3
			c52.9,3.9,97.4-5.2,143.6-23.2c5.3,20.6,10.7,41.2,16,61.8C568.4,896,498.1,904.8,429.1,895c-70.6-10.1-139.5-44.3-182.7-100.9
			c-34.8-45.6-51.5-101.6-55.1-158.8c-7.1-111.5,26.1-229.4,126-289.9c94.6-57.2,216.9-68.8,319.3-26c-5.8,21.1-11.6,42.1-17.4,63.2
			c-85.2-30.8-187.6-37.2-260,17.3C300.9,443.8,274.1,518.9,270.1,592.2z"/>
		<path class="st29" d="M270.8,591.5c-0.3,4.8-0.4,9.6-0.5,14.4c-0.8,56.3,16.5,111.2,51.7,156.2c32.7,41.8,100.2,67.5,153.1,71.3
			c52.9,3.9,97.4-5.2,143.6-23.2c5.3,20.6,10.7,41.2,16,61.8c-65.6,23.3-135.9,32.1-204.9,22.3c-70.6-10.1-139.5-44.3-182.7-100.9
			c-34.8-45.6-51.5-101.6-55.1-158.8c-7.1-111.5,26.1-229.4,126-289.9c94.6-57.2,216.9-68.8,319.3-26c-5.8,21.1-11.6,42.1-17.4,63.2
			c-85.2-30.8-187.6-37.2-260,17.3C301.6,443.1,274.8,518.2,270.8,591.5z"/>
		<path class="st30" d="M271.5,590.8c-0.3,4.8-0.4,9.6-0.5,14.4c-0.8,56.3,16.5,111.2,51.7,156.2c32.7,41.8,100.2,67.5,153.1,71.3
			c52.9,3.9,97.4-5.2,143.6-23.2c5.3,20.6,10.7,41.2,16,61.8c-65.6,23.3-135.9,32.1-204.9,22.3c-70.6-10.1-139.5-44.3-182.7-100.9
			c-34.8-45.6-51.5-101.6-55.1-158.8c-7.1-111.5,26.1-229.4,126-289.9c94.6-57.2,216.9-68.8,319.3-26c-5.8,21.1-11.6,42.1-17.4,63.2
			c-85.2-30.8-187.6-37.2-260,17.3C302.3,442.4,275.5,517.5,271.5,590.8z"/>
		<path class="st31" d="M272.2,590.1c-0.3,4.8-0.4,9.6-0.5,14.4c-0.8,56.3,16.5,111.2,51.7,156.2c32.7,41.8,100.2,67.5,153.1,71.3
			s97.4-5.2,143.6-23.2c5.3,20.6,10.7,41.2,16,61.8c-65.6,23.3-135.9,32.1-204.9,22.3c-70.6-10.1-139.5-44.3-182.7-100.9
			c-34.8-45.6-51.5-101.6-55.1-158.8c-7.1-111.5,26.1-229.4,126-289.9c94.6-57.2,216.9-68.8,319.3-26c-5.8,21.1-11.6,42.1-17.4,63.2
			c-85.2-30.8-187.6-37.2-260,17.3C303,441.7,276.2,516.8,272.2,590.1z"/>
		<path class="st32" d="M272.9,589.4c-0.3,4.8-0.4,9.6-0.5,14.4c-0.8,56.3,16.5,111.2,51.7,156.2c32.7,41.8,100.2,67.5,153.1,71.3
			s97.4-5.2,143.6-23.2c5.3,20.6,10.7,41.2,16,61.8c-65.6,23.3-135.9,32.1-204.9,22.3c-70.6-10.1-139.5-44.3-182.7-100.9
			c-34.8-45.6-51.5-101.6-55.1-158.8c-7.1-111.5,26.1-229.4,126-289.9c94.6-57.2,216.9-68.8,319.3-26c-5.8,21.1-11.6,42.1-17.4,63.2
			c-85.2-30.8-187.6-37.2-260,17.3C303.7,441,276.9,516,272.9,589.4z"/>
		<path class="st33" d="M273.6,588.7c-0.3,4.8-0.4,9.6-0.5,14.4c-0.8,56.3,16.5,111.2,51.7,156.2c32.7,41.8,100.2,67.5,153.1,71.3
			s97.4-5.2,143.6-23.2c5.3,20.6,10.7,41.2,16,61.8c-65.6,23.3-135.9,32.1-204.9,22.3c-70.6-10.1-139.5-44.3-182.7-100.9
			c-34.7-45.6-51.4-101.6-55-158.8c-7.1-111.5,26.1-229.4,126-289.9c94.6-57.2,216.9-68.8,319.3-26c-5.8,21.1-11.6,42.1-17.4,63.2
			c-85.2-30.8-187.6-37.2-260,17.3C304.4,440.3,277.6,515.3,273.6,588.7z"/>
		<path class="st34" d="M274.3,588c-0.3,4.8-0.4,9.6-0.5,14.4c-0.8,56.3,16.5,111.2,51.7,156.2c32.7,41.8,100.2,67.5,153.1,71.3
			s97.4-5.2,143.6-23.2c5.3,20.6,10.7,41.2,16,61.8c-65.6,23.3-135.9,32.1-204.9,22.3c-70.6-10.1-139.5-44.3-182.7-100.9
			c-34.8-45.6-51.5-101.6-55.1-158.8c-7.1-111.5,26.1-229.4,126-289.9c94.6-57.2,216.9-68.8,319.3-26c-5.8,21.1-11.6,42.1-17.4,63.2
			c-85.2-30.8-187.6-37.2-260,17.3C305.1,439.6,278.3,514.6,274.3,588z"/>
		<path class="st35" d="M275,587.3c-0.3,4.8-0.4,9.6-0.5,14.4c-0.8,56.3,16.5,111.2,51.7,156.2c32.7,41.8,100.2,67.5,153.1,71.3
			c52.9,3.9,97.4-5.2,143.6-23.2c5.3,20.6,10.7,41.2,16,61.8C573.3,891.1,503,899.9,434,890.1c-70.6-10.1-139.5-44.3-182.7-100.9
			c-34.8-45.6-51.5-101.6-55.1-158.8c-7.1-111.5,26.1-229.4,126-289.9c94.6-57.2,216.9-68.8,319.3-26c-5.8,21.1-11.6,42.1-17.4,63.2
			c-85.2-30.8-187.6-37.2-260,17.3C305.8,438.9,279,513.9,275,587.3z"/>
		<path class="st36" d="M275.7,586.6c-0.3,4.8-0.4,9.6-0.5,14.4c-0.8,56.3,16.5,111.2,51.7,156.2c32.7,41.8,100.2,67.5,153.1,71.3
			c52.9,3.9,97.4-5.2,143.6-23.2c5.3,20.6,10.7,41.2,16,61.8c-65.6,23.3-135.9,32.1-204.9,22.3c-70.6-10.1-139.5-44.3-182.7-100.9
			c-34.8-45.6-51.5-101.6-55.1-158.8c-7.1-111.5,26.1-229.4,126-289.9c94.6-57.2,216.9-68.8,319.3-26c-5.8,21.1-11.6,42.1-17.4,63.2
			c-85.2-30.8-187.6-37.2-260,17.3C306.5,438.2,279.7,513.2,275.7,586.6z"/>
		<path class="st37" d="M276.4,585.9c-0.3,4.8-0.4,9.6-0.5,14.4c-0.8,56.3,16.5,111.2,51.7,156.2c32.7,41.8,100.2,67.5,153.1,71.3
			c52.9,3.9,97.4-5.2,143.6-23.2c5.3,20.6,10.7,41.2,16,61.8c-65.6,23.3-135.9,32.1-204.9,22.3C365,878.6,296,844.4,252.8,787.8
			C218,742.2,201.3,686.2,197.7,629c-7.1-111.5,26.1-229.4,126-289.9c94.6-57.2,216.9-68.8,319.3-26c-5.8,21.1-11.6,42.1-17.4,63.2
			c-85.2-30.8-187.6-37.2-260,17.3C307.3,437.5,280.4,512.5,276.4,585.9z"/>
		<path class="st38" d="M277.1,585.2c-0.3,4.8-0.4,9.6-0.5,14.4c-0.8,56.3,16.5,111.2,51.7,156.2c32.7,41.8,100.2,67.5,153.1,71.3
			c52.9,3.9,97.4-5.2,143.6-23.2c5.3,20.6,10.7,41.2,16,61.8C575.5,889,505.2,897.8,436.2,888c-70.6-10.1-139.5-44.3-182.7-100.9
			c-34.8-45.6-51.5-101.6-55.1-158.8c-7.1-111.5,26.1-229.4,126-289.9c94.6-57.2,216.9-68.8,319.3-26c-5.8,21.1-11.6,42.1-17.4,63.2
			c-85.2-30.8-187.6-37.2-260,17.3C308,436.8,281.1,511.8,277.1,585.2z"/>
		<path class="st39" d="M277.8,584.4c-0.3,4.8-0.4,9.6-0.5,14.4C276.5,655.1,293.8,710,329,755c32.7,41.8,100.2,67.5,153.1,71.3
			c52.9,3.9,97.4-5.2,143.6-23.2c5.3,20.6,10.7,41.2,16,61.8c-65.6,23.3-135.9,32.1-204.9,22.3c-70.6-10.1-139.5-44.3-182.7-100.9
			c-34.8-45.6-51.5-101.6-55.1-158.8c-7.1-111.5,26.1-229.4,126-289.9c94.6-57.2,216.9-68.8,319.3-26c-5.8,21.1-11.6,42.1-17.4,63.2
			c-85.2-30.8-187.6-37.2-260,17.3C308.7,436.1,281.9,511.1,277.8,584.4z"/>
		<path class="st40" d="M278.6,583.7c-0.3,4.8-0.4,9.6-0.5,14.4c-0.8,56.3,16.5,111.2,51.7,156.2c32.7,41.8,100.2,67.5,153.1,71.3
			c52.9,3.9,97.4-5.2,143.6-23.2c5.3,20.6,10.7,41.2,16,61.8c-65.6,23.3-135.9,32.1-204.9,22.3c-70.6-10.1-139.5-44.3-182.7-100.9
			C220.1,740,203.5,684,199.8,626.8c-7.1-111.5,26.1-229.4,126-289.9c94.6-57.2,216.9-68.8,319.3-26c-5.8,21.1-11.6,42.1-17.4,63.2
			c-85.2-30.8-187.6-37.2-260,17.3C309.4,435.3,282.6,510.4,278.6,583.7z"/>
		<path class="st41" d="M279.3,583c-0.3,4.8-0.4,9.6-0.5,14.4c-0.8,56.3,16.5,111.2,51.7,156.2c32.7,41.8,100.2,67.5,153.1,71.3
			s97.4-5.2,143.6-23.2c5.3,20.6,10.7,41.2,16,61.8c-65.6,23.3-135.9,32.1-204.9,22.3c-70.6-10.1-139.5-44.3-182.7-100.9
			c-34.8-45.6-51.5-101.6-55.1-158.8c-7.1-111.5,26.1-229.4,126-289.9c94.6-57.2,216.9-68.8,319.3-26c-5.8,21.1-11.6,42.1-17.4,63.2
			c-85.2-30.8-187.6-37.2-260,17.3C310.1,434.6,283.3,509.7,279.3,583z"/>
		<path class="st42" d="M280,582.3c-0.3,4.8-0.4,9.6-0.5,14.4c-0.8,56.3,16.5,111.2,51.7,156.2c32.7,41.8,100.2,67.5,153.1,71.3
			s97.4-5.2,143.6-23.2c5.3,20.6,10.7,41.2,16,61.8C578.3,886.2,508,895,439.1,885.1c-70.6-10.1-139.5-44.3-182.7-100.9
			c-34.8-45.6-51.5-101.6-55.1-158.8c-7.1-111.5,26.1-229.4,126-289.9c94.6-57.2,216.9-68.8,319.3-26c-5.8,21.1-11.6,42.1-17.4,63.2
			c-85.2-30.8-187.6-37.2-260,17.3C310.8,433.9,284,509,280,582.3z"/>
		<path class="st43" d="M280.7,581.6c-0.3,4.8-0.4,9.6-0.5,14.4c-0.8,56.3,16.5,111.2,51.7,156.2c32.7,41.8,100.2,67.5,153.1,71.3
			c52.9,3.9,97.4-5.2,143.6-23.2c5.3,20.6,10.7,41.2,16,61.8c-65.6,23.3-135.9,32.1-204.9,22.3c-70.6-10.1-139.5-44.3-182.7-100.9
			c-34.8-45.6-51.5-101.6-55.1-158.8c-7.1-111.5,26.1-229.4,126-289.9c94.6-57.2,216.9-68.8,319.3-26c-5.8,21.1-11.6,42.1-17.4,63.2
			c-85.2-30.8-187.6-37.2-260,17.3C311.5,433.2,284.7,508.3,280.7,581.6z"/>
		<path class="st44" d="M281.4,580.9c-0.3,4.8-0.4,9.6-0.5,14.4c-0.8,56.3,16.5,111.2,51.7,156.2c32.7,41.8,100.2,67.5,153.1,71.3
			s97.4-5.2,143.6-23.2c5.3,20.6,10.7,41.2,16,61.8c-65.6,23.3-135.9,32.1-204.9,22.3c-70.6-10.1-139.5-44.3-182.7-100.9
			c-34.7-45.6-51.4-101.6-55-158.8c-7.1-111.5,26.1-229.4,126-289.9c94.6-57.2,216.9-68.8,319.3-26c-5.8,21.1-11.6,42.1-17.4,63.2
			c-85.2-30.8-187.6-37.2-260,17.3C312.2,432.5,285.4,507.5,281.4,580.9z"/>
		<path class="st45" d="M282.1,580.2c-0.3,4.8-0.4,9.6-0.5,14.4c-0.8,56.3,16.5,111.2,51.7,156.2c32.7,41.8,100.2,67.5,153.1,71.3
			s97.4-5.2,143.6-23.2c5.3,20.6,10.7,41.2,16,61.8C580.4,884,510.1,892.8,441.2,883c-70.6-10.1-139.5-44.3-182.7-100.9
			c-34.8-45.6-51.5-101.6-55.1-158.8c-7.1-111.5,26.1-229.4,126-289.9c94.6-57.2,216.9-68.8,319.3-26c-5.8,21.1-11.6,42.1-17.4,63.2
			c-85.2-30.8-187.6-37.2-260,17.3C312.9,431.8,286.1,506.8,282.1,580.2z"/>
		<path class="st46" d="M282.8,579.5c-0.3,4.8-0.4,9.6-0.5,14.4c-0.8,56.3,16.5,111.2,51.7,156.2c32.7,41.8,100.2,67.5,153.1,71.3
			c52.9,3.9,97.4-5.2,143.6-23.2c5.3,20.6,10.7,41.2,16,61.8c-65.6,23.3-135.9,32.1-204.9,22.3c-70.6-10.1-139.5-44.3-182.7-100.9
			c-34.8-45.6-51.5-101.6-55.1-158.8c-7-111.6,26.1-229.5,126-289.9c94.6-57.2,216.9-68.8,319.3-26c-5.8,21.1-11.6,42.1-17.4,63.2
			c-85.2-30.8-187.6-37.2-260,17.3C313.6,431.1,286.8,506.1,282.8,579.5z"/>
		<path class="st47" d="M283.5,578.8c-0.3,4.8-0.4,9.6-0.5,14.4c-0.8,56.3,16.5,111.2,51.7,156.2c32.7,41.8,100.2,67.5,153.1,71.3
			c52.9,3.9,97.4-5.2,143.6-23.2c5.3,20.6,10.7,41.2,16,61.8c-65.6,23.3-135.9,32.1-204.9,22.3c-70.6-10.1-139.5-44.3-182.7-100.9
			c-34.8-45.6-51.5-101.6-55.1-158.8c-7.1-111.5,26.1-229.4,126-289.9c94.6-57.2,216.9-68.8,319.3-26c-5.8,21.1-11.6,42.1-17.4,63.2
			c-85.2-30.8-187.6-37.2-260,17.3C314.3,430.4,287.5,505.4,283.5,578.8z"/>
		<path class="st48" d="M284.2,578.1c-0.3,4.8-0.4,9.6-0.5,14.4c-0.8,56.3,16.5,111.2,51.7,156.2c32.7,41.8,100.2,67.5,153.1,71.3
			c52.9,3.9,97.4-5.2,143.6-23.2c5.3,20.6,10.7,41.2,16,61.8c-65.6,23.3-135.9,32.1-204.9,22.3c-70.6-10.1-139.5-44.3-182.7-100.9
			c-34.8-45.6-51.5-101.6-55.1-158.8c-7.1-111.5,26.1-229.4,126-289.9c94.6-57.2,216.9-68.8,319.3-26c-5.8,21.1-11.6,42.1-17.4,63.2
			c-85.2-30.8-187.6-37.2-260,17.3C315,429.7,288.2,504.7,284.2,578.1z"/>
		<path class="st49" d="M284.9,577.4c-0.3,4.8-0.4,9.6-0.5,14.4c-0.8,56.3,16.5,111.2,51.7,156.2c32.7,41.8,100.2,67.5,153.1,71.3
			c52.9,3.9,97.4-5.2,143.6-23.2c5.3,20.6,10.7,41.2,16,61.8C583.3,881.2,513,890,444,880.2c-70.6-10.1-139.5-44.3-182.7-100.9
			c-34.8-45.6-51.5-101.6-55.1-158.8c-7.1-111.5,26.1-229.4,126-289.9c94.6-57.2,216.9-68.8,319.3-26c-5.8,21.1-11.6,42.1-17.4,63.2
			c-85.2-30.8-187.6-37.2-260,17.3C315.8,429,288.9,504,284.9,577.4z"/>
		<path class="st50" d="M285.6,576.7c-0.3,4.8-0.4,9.6-0.5,14.4c-0.8,56.3,16.5,111.2,51.7,156.2c32.7,41.8,100.2,67.5,153.1,71.3
			c52.9,3.9,97.4-5.2,143.6-23.2c5.3,20.6,10.7,41.2,16,61.8c-65.6,23.3-135.9,32.1-204.9,22.3c-70.6-10.1-139.5-44.3-182.7-100.9
			C227.1,733,210.4,677,206.8,619.8c-7.1-111.5,26.1-229.4,126-289.9c94.6-57.2,216.9-68.8,319.3-26c-5.8,21.1-11.6,42.1-17.4,63.2
			c-85.2-30.8-187.6-37.2-260,17.3C316.5,428.3,289.6,503.3,285.6,576.7z"/>
		<path class="st51" d="M286.3,575.9c-0.3,4.8-0.4,9.6-0.5,14.4c-0.8,56.3,16.5,111.2,51.7,156.2c32.7,41.8,100.2,67.5,153.1,71.3
			c52.9,3.9,97.4-5.2,143.6-23.2c5.3,20.6,10.7,41.2,16,61.8c-65.6,23.3-135.9,32.1-204.9,22.3c-70.6-10.1-139.5-44.3-182.7-100.9
			c-34.8-45.6-51.5-101.6-55.1-158.8c-7.1-111.5,26.1-229.4,126-289.9c94.6-57.2,216.9-68.8,319.3-26c-5.8,21.1-11.6,42.1-17.4,63.2
			c-85.2-30.8-187.6-37.2-260,17.3C317.2,427.6,290.4,502.6,286.3,575.9z"/>
		<path class="st52" d="M287.1,575.2c-0.3,4.8-0.4,9.6-0.5,14.4c-0.8,56.3,16.5,111.2,51.7,156.2c32.7,41.8,100.2,67.5,153.1,71.3
			s97.4-5.2,143.6-23.2c5.3,20.6,10.7,41.2,16,61.8C585.4,879,515.1,887.8,446.1,878c-70.6-10.1-139.5-44.3-182.7-100.9
			c-34.8-45.6-51.5-101.6-55.1-158.8c-7.1-111.5,26.1-229.4,126-289.9c94.6-57.2,216.9-68.8,319.3-26c-5.8,21.1-11.6,42.1-17.4,63.2
			c-85.2-30.8-187.6-37.2-260,17.3C317.9,426.8,291.1,501.9,287.1,575.2z"/>
		<path class="st53" d="M287.8,574.5c-0.3,4.8-0.4,9.6-0.5,14.4c-0.8,56.3,16.5,111.2,51.7,156.2c32.7,41.8,100.2,67.5,153.1,71.3
			s97.4-5.2,143.6-23.2c5.3,20.6,10.7,41.2,16,61.8c-65.6,23.3-135.9,32.1-204.9,22.3c-70.6-10.1-139.5-44.3-182.7-100.9
			c-34.8-45.6-51.5-101.6-55.1-158.8c-7.1-111.5,26.1-229.4,126-289.9c94.6-57.2,216.9-68.8,319.3-26c-5.8,21.1-11.6,42.1-17.4,63.2
			c-85.2-30.8-187.6-37.2-260,17.3C318.6,426.1,291.8,501.2,287.8,574.5z"/>
		<path class="st54" d="M288.5,573.8c-0.3,4.8-0.4,9.6-0.5,14.4c-0.8,56.3,16.5,111.2,51.7,156.2c32.7,41.8,100.2,67.5,153.1,71.3
			s97.4-5.2,143.6-23.2c5.3,20.6,10.7,41.2,16,61.8c-65.6,23.3-135.9,32.1-204.9,22.3c-70.6-10.1-139.5-44.3-182.7-100.9
			c-34.8-45.6-51.5-101.6-55.1-158.8c-7.1-111.5,26.1-229.4,126-289.9c94.6-57.2,216.9-68.8,319.3-26c-5.8,21.1-11.6,42.1-17.4,63.2
			c-85.2-30.8-187.6-37.2-260,17.3C319.3,425.4,292.5,500.5,288.5,573.8z"/>
		<path class="st55" d="M289.2,573.1c-0.3,4.8-0.4,9.6-0.5,14.4c-0.8,56.3,16.5,111.2,51.7,156.2c32.7,41.8,100.2,67.5,153.1,71.3
			s97.4-5.2,143.6-23.2c5.3,20.6,10.7,41.2,16,61.8c-65.6,23.3-135.9,32.1-204.9,22.3c-70.6-10.1-139.5-44.3-182.7-100.9
			c-34.8-45.6-51.5-101.6-55.1-158.8c-7.1-111.5,26.1-229.4,126-289.9c94.6-57.2,216.9-68.8,319.3-26c-5.8,21.1-11.6,42.1-17.4,63.2
			c-85.2-30.8-187.6-37.2-260,17.3C320,424.7,293.2,499.8,289.2,573.1z"/>
		<path class="st56" d="M289.9,572.4c-0.3,4.8-0.4,9.6-0.5,14.4c-0.8,56.3,16.5,111.2,51.7,156.2c32.7,41.8,100.2,67.5,153.1,71.3
			c52.9,3.9,97.4-5.2,143.6-23.2c5.3,20.6,10.7,41.2,16,61.8c-65.6,23.3-135.9,32.1-204.9,22.3c-70.6-10.1-139.5-44.3-182.7-100.9
			c-34.8-45.6-51.5-101.6-55.1-158.8c-7.1-111.5,26.1-229.4,126-289.9c94.6-57.2,216.9-68.8,319.3-26c-5.8,21.1-11.6,42.1-17.4,63.2
			c-85.2-30.8-187.6-37.2-260,17.3C320.7,424,293.9,499.1,289.9,572.4z"/>
		<path class="st57" d="M290.6,571.7c-0.3,4.8-0.4,9.6-0.5,14.4c-0.8,56.3,16.5,111.2,51.7,156.2c32.7,41.8,100.2,67.5,153.1,71.3
			c52.9,3.9,97.4-5.2,143.6-23.2c5.3,20.6,10.7,41.2,16,61.8c-65.6,23.3-135.9,32.1-204.9,22.3c-70.6-10.1-139.5-44.3-182.7-100.9
			c-34.7-45.6-51.4-101.6-55-158.8c-7.1-111.5,26.1-229.4,126-289.9c94.6-57.2,216.9-68.8,319.3-26c-5.8,21.1-11.6,42.1-17.4,63.2
			c-85.2-30.8-187.6-37.2-260,17.3C321.4,423.3,294.6,498.3,290.6,571.7z"/>
		<path class="st58" d="M291.3,571c-0.3,4.8-0.4,9.6-0.5,14.4c-0.8,56.3,16.5,111.2,51.7,156.2c32.7,41.8,100.2,67.5,153.1,71.3
			c52.9,3.9,97.4-5.2,143.6-23.2c5.3,20.6,10.7,41.2,16,61.8c-65.6,23.3-135.9,32.1-204.9,22.3c-70.6-10.1-139.5-44.3-182.7-100.9
			c-34.8-45.6-51.5-101.6-55.1-158.8c-7.1-111.5,26.1-229.4,126-289.9c94.6-57.2,216.9-68.8,319.3-26c-5.8,21.1-11.6,42.1-17.4,63.2
			c-85.2-30.8-187.6-37.2-260,17.3C322.1,422.6,295.3,497.6,291.3,571z"/>
		<path class="st59" d="M292,570.3c-0.3,4.8-0.4,9.6-0.5,14.4c-0.8,56.3,16.5,111.2,51.7,156.2c32.7,41.8,100.2,67.5,153.1,71.3
			c52.9,3.9,97.4-5.2,143.6-23.2c5.3,20.6,10.7,41.2,16,61.8C590.3,874.1,520,882.9,451,873.1c-70.6-10.1-139.5-44.3-182.7-100.9
			c-34.8-45.6-51.5-101.6-55.1-158.8c-7.1-111.5,26.1-229.4,126-289.9c94.6-57.2,216.9-68.8,319.3-26c-5.8,21.1-11.6,42.1-17.4,63.2
			c-85.2-30.8-187.6-37.2-260,17.3C322.8,421.9,296,496.9,292,570.3z"/>
		<path class="st60" d="M292.7,569.6c-0.3,4.8-0.4,9.6-0.5,14.4c-0.8,56.3,16.5,111.2,51.7,156.2c32.7,41.8,100.2,67.5,153.1,71.3
			c52.9,3.9,97.4-5.2,143.6-23.2c5.3,20.6,10.7,41.2,16,61.8c-65.6,23.3-135.9,32.1-204.9,22.3c-70.6-10.1-139.5-44.3-182.7-100.9
			c-34.8-45.6-51.5-101.6-55.1-158.8c-7.1-111.5,26.1-229.4,126-289.9c94.6-57.2,216.9-68.8,319.3-26c-5.8,21.1-11.6,42.1-17.4,63.2
			c-85.2-30.8-187.6-37.2-260,17.3C323.5,421.2,296.7,496.2,292.7,569.6z"/>
		<path class="st61" d="M293.4,568.9c-0.3,4.8-0.4,9.6-0.5,14.4c-0.8,56.3,16.5,111.2,51.7,156.2c32.7,41.8,100.2,67.5,153.1,71.3
			c52.9,3.9,97.4-5.2,143.6-23.2c5.3,20.6,10.7,41.2,16,61.8c-65.6,23.3-135.9,32.1-204.9,22.3C382,861.6,313,827.4,269.8,770.8
			C235,725.2,218.3,669.2,214.7,612c-7.1-111.5,26.1-229.4,126-289.9c94.6-57.2,216.9-68.8,319.3-26c-5.8,21.1-11.6,42.1-17.4,63.2
			c-85.2-30.8-187.6-37.2-260,17.3C324.3,420.5,297.4,495.5,293.4,568.9z"/>
		<path class="st62" d="M294.1,568.2c-0.3,4.8-0.4,9.6-0.5,14.4c-0.8,56.3,16.5,111.2,51.7,156.2c32.7,41.8,100.2,67.5,153.1,71.3
			s97.4-5.2,143.6-23.2c5.3,20.6,10.7,41.2,16,61.8C592.5,872,522.2,880.8,453.2,871c-70.6-10.1-139.5-44.3-182.7-100.9
			c-34.8-45.6-51.5-101.6-55.1-158.8c-7.1-111.5,26.1-229.4,126-289.9c94.6-57.2,216.9-68.8,319.3-26c-5.8,21.1-11.6,42.1-17.4,63.2
			c-85.2-30.8-187.6-37.2-260,17.3C325,419.8,298.1,494.8,294.1,568.2z"/>
		<path class="st63" d="M294.8,567.4c-0.3,4.8-0.4,9.6-0.5,14.4C293.5,638.1,310.8,693,346,738c32.7,41.8,100.2,67.5,153.1,71.3
			s97.4-5.2,143.6-23.2c5.3,20.6,10.7,41.2,16,61.8c-65.6,23.3-135.9,32.1-204.9,22.3c-70.6-10.1-139.5-44.3-182.7-100.9
			c-34.8-45.6-51.5-101.6-55.1-158.8c-7.1-111.5,26.1-229.4,126-289.9c94.6-57.2,216.9-68.8,319.3-26c-5.8,21.1-11.6,42.1-17.4,63.2
			c-85.2-30.8-187.6-37.2-260,17.3C325.7,419.1,298.8,494.1,294.8,567.4z"/>
		<path class="st64" d="M295.6,566.7c-0.3,4.8-0.4,9.6-0.5,14.4c-0.8,56.3,16.5,111.2,51.7,156.2c32.7,41.8,100.2,67.5,153.1,71.3
			c52.9,3.9,97.4-5.2,143.6-23.2c5.3,20.6,10.7,41.2,16,61.8c-65.6,23.3-135.9,32.1-204.9,22.3c-70.6-10.1-139.5-44.3-182.7-100.9
			C237.1,723,220.4,667,216.8,609.8c-7.1-111.5,26.1-229.4,126-289.9c94.6-57.2,216.9-68.8,319.3-26c-5.8,21.1-11.6,42.1-17.4,63.2
			c-85.2-30.8-187.6-37.2-260,17.3C326.4,418.3,299.6,493.4,295.6,566.7z"/>
		<path class="st65" d="M296.3,566c-0.3,4.8-0.4,9.6-0.5,14.4c-0.8,56.3,16.5,111.2,51.7,156.2c32.7,41.8,100.2,67.5,153.1,71.3
			s97.4-5.2,143.6-23.2c5.3,20.6,10.7,41.2,16,61.8c-65.6,23.3-135.9,32.1-204.9,22.3c-70.6-10.1-139.5-44.3-182.7-100.9
			c-34.8-45.6-51.5-101.6-55.1-158.8c-7.1-111.5,26.1-229.4,126-289.9c94.6-57.2,216.9-68.8,319.3-26c-5.8,21.1-11.6,42.1-17.4,63.2
			c-85.2-30.8-187.6-37.2-260,17.3C327.1,417.6,300.3,492.7,296.3,566z"/>
		<path class="st66" d="M297,565.3c-0.3,4.8-0.4,9.6-0.5,14.4c-0.8,56.3,16.5,111.2,51.7,156.2c32.7,41.8,100.2,67.5,153.1,71.3
			s97.4-5.2,143.6-23.2c5.3,20.6,10.7,41.2,16,61.8C595.3,869.2,525,878,456.1,868.1c-70.6-10.1-139.5-44.3-182.7-100.9
			c-34.8-45.6-51.5-101.6-55.1-158.8c-7.1-111.5,26.1-229.4,126-289.9c94.6-57.2,216.9-68.8,319.3-26c-5.8,21.1-11.6,42.1-17.4,63.2
			c-85.2-30.8-187.6-37.2-260,17.3C327.8,416.9,301,492,297,565.3z"/>
		<path class="st67" d="M297.7,564.6c-0.3,4.8-0.4,9.6-0.5,14.4c-0.8,56.3,16.5,111.2,51.7,156.2c32.7,41.8,100.2,67.5,153.1,71.3
			c52.9,3.9,97.4-5.2,143.6-23.2c5.3,20.6,10.7,41.2,16,61.8c-65.6,23.3-135.9,32.1-204.9,22.3c-70.6-10.1-139.5-44.3-182.7-100.9
			c-34.8-45.6-51.5-101.6-55.1-158.8c-7.1-111.5,26.1-229.4,126-289.9c94.6-57.2,216.9-68.8,319.3-26c-5.8,21.1-11.6,42.1-17.4,63.2
			c-85.2-30.8-187.6-37.2-260,17.3C328.5,416.2,301.7,491.3,297.7,564.6z"/>
		<path class="st68" d="M298.4,563.9c-0.3,4.8-0.4,9.6-0.5,14.4c-0.8,56.3,16.5,111.2,51.7,156.2c32.7,41.8,100.2,67.5,153.1,71.3
			c52.9,3.9,97.4-5.2,143.6-23.2c5.3,20.6,10.7,41.2,16,61.8c-65.6,23.3-135.9,32.1-204.9,22.3c-70.6-10.1-139.5-44.3-182.7-100.9
			c-34.7-45.6-51.4-101.6-55-158.8c-7.1-111.5,26.1-229.4,126-289.9c94.6-57.2,216.9-68.8,319.3-26c-5.8,21.1-11.6,42.1-17.4,63.2
			c-85.2-30.8-187.6-37.2-260,17.3C329.2,415.5,302.4,490.6,298.4,563.9z"/>
		<path class="st69" d="M299.1,563.2c-0.3,4.8-0.4,9.6-0.5,14.4c-0.8,56.3,16.5,111.2,51.7,156.2c32.7,41.8,100.2,67.5,153.1,71.3
			c52.9,3.9,97.4-5.2,143.6-23.2c5.3,20.6,10.7,41.2,16,61.8C597.4,867,527.1,875.9,458.2,866c-70.6-10.1-139.5-44.3-182.7-100.9
			c-34.8-45.6-51.5-101.6-55.1-158.8c-7.1-111.5,26.1-229.4,126-289.9c94.6-57.2,216.9-68.8,319.3-26c-5.8,21.1-11.6,42.1-17.4,63.2
			c-85.2-30.8-187.6-37.2-260,17.3C329.9,414.8,303.1,489.8,299.1,563.2z"/>
		<path class="st70" d="M299.8,562.5c-0.3,4.8-0.4,9.6-0.5,14.4c-0.8,56.3,16.5,111.2,51.7,156.2c32.7,41.8,100.2,67.5,153.1,71.3
			c52.9,3.9,97.4-5.2,143.6-23.2c5.3,20.6,10.7,41.2,16,61.8c-65.6,23.3-135.9,32.1-204.9,22.3c-70.6-10.1-139.5-44.3-182.7-100.9
			c-34.8-45.6-51.5-101.6-55.1-158.8c-7-111.6,26.1-229.5,126-289.9c94.6-57.2,216.9-68.8,319.3-26c-5.8,21.1-11.6,42.1-17.4,63.2
			c-85.2-30.8-187.6-37.2-260,17.3C330.6,414.1,303.8,489.1,299.8,562.5z"/>
		<path class="st71" d="M300.5,561.8c-0.3,4.8-0.4,9.6-0.5,14.4c-0.8,56.3,16.5,111.2,51.7,156.2c32.7,41.8,100.2,67.5,153.1,71.3
			c52.9,3.9,97.4-5.2,143.6-23.2c5.3,20.6,10.7,41.2,16,61.8c-65.6,23.3-135.9,32.1-204.9,22.3c-70.6-10.1-139.5-44.3-182.7-100.9
			c-34.8-45.6-51.5-101.6-55.1-158.8c-7.1-111.5,26.1-229.4,126-289.9c94.6-57.2,216.9-68.8,319.3-26c-5.8,21.1-11.6,42.1-17.4,63.2
			c-85.2-30.8-187.6-37.2-260,17.3C331.3,413.4,304.5,488.4,300.5,561.8z"/>
		<path class="st72" d="M301.2,561.1c-0.3,4.8-0.4,9.6-0.5,14.4c-0.8,56.3,16.5,111.2,51.7,156.2c32.7,41.8,100.2,67.5,153.1,71.3
			c52.9,3.9,97.4-5.2,143.6-23.2c5.3,20.6,10.7,41.2,16,61.8c-65.6,23.3-135.9,32.1-204.9,22.3c-70.6-10.1-139.5-44.3-182.7-100.9
			c-34.8-45.6-51.5-101.6-55.1-158.8c-7.1-111.5,26.1-229.4,126-289.9c94.6-57.2,216.9-68.8,319.3-26c-5.8,21.1-11.6,42.1-17.4,63.2
			c-85.2-30.8-187.6-37.2-260,17.3C332,412.7,305.2,487.7,301.2,561.1z"/>
		<path class="st73" d="M301.9,560.4c-0.3,4.8-0.4,9.6-0.5,14.4c-0.8,56.3,16.5,111.2,51.7,156.2c32.7,41.8,100.2,67.5,153.1,71.3
			s97.4-5.2,143.6-23.2c5.3,20.6,10.7,41.2,16,61.8C600.3,864.2,530,873,461,863.2c-70.6-10.1-139.5-44.3-182.7-100.9
			c-34.8-45.6-51.5-101.6-55.1-158.8c-7.1-111.5,26.1-229.4,126-289.9c94.6-57.2,216.9-68.8,319.3-26c-5.8,21.1-11.6,42.1-17.4,63.2
			c-85.2-30.8-187.6-37.2-260,17.3C332.8,412,305.9,487,301.9,560.4z"/>
		<path class="st74" d="M302.6,559.7c-0.3,4.8-0.4,9.6-0.5,14.4c-0.8,56.3,16.5,111.2,51.7,156.2c32.7,41.8,100.2,67.5,153.1,71.3
			s97.4-5.2,143.6-23.2c5.3,20.6,10.7,41.2,16,61.8c-65.6,23.3-135.9,32.1-204.9,22.3c-70.6-10.1-139.5-44.3-182.7-100.9
			C244.1,716,227.4,660,223.8,602.8c-7.1-111.5,26.1-229.4,126-289.9c94.6-57.2,216.9-68.8,319.3-26c-5.8,21.1-11.6,42.1-17.4,63.2
			c-85.2-30.8-187.6-37.2-260,17.3C333.5,411.3,306.6,486.3,302.6,559.7z"/>
		<path class="st75" d="M303.3,559c-0.3,4.8-0.4,9.6-0.5,14.4c-0.8,56.3,16.5,111.2,51.7,156.2c32.7,41.8,100.2,67.5,153.1,71.3
			s97.4-5.2,143.6-23.2c5.3,20.6,10.7,41.2,16,61.8c-65.6,23.3-135.9,32.1-204.9,22.3c-70.6-10.1-139.5-44.3-182.7-100.9
			c-34.8-45.6-51.5-101.6-55.1-158.8c-7.1-111.5,26.1-229.4,126-289.9c94.6-57.2,216.9-68.8,319.3-26c-5.8,21.1-11.6,42.1-17.4,63.2
			c-85.2-30.8-187.6-37.2-260,17.3C334.2,410.6,307.3,485.6,303.3,559z"/>
		<path class="st76" d="M304,558.2c-0.3,4.8-0.4,9.6-0.5,14.4c-0.8,56.3,16.5,111.2,51.7,156.2c32.7,41.8,100.2,67.5,153.1,71.3
			s97.4-5.2,143.6-23.2c5.3,20.6,10.7,41.2,16,61.8C602.3,862,532,870.8,463,861c-70.6-10.1-139.5-44.3-182.7-100.9
			c-34.8-45.6-51.5-101.6-55.1-158.8c-7.1-111.5,26.1-229.4,126-289.9c94.6-57.2,216.9-68.8,319.3-26c-5.8,21.1-11.6,42.1-17.4,63.2
			c-85.2-30.8-187.6-37.2-260,17.3C334.9,409.8,308.1,484.9,304,558.2z"/>
		<path class="st77" d="M304.8,557.5c-0.3,4.8-0.4,9.6-0.5,14.4c-0.8,56.3,16.5,111.2,51.7,156.2c32.7,41.8,100.2,67.5,153.1,71.3
			c52.9,3.9,97.4-5.2,143.6-23.2c5.3,20.6,10.7,41.2,16,61.8c-65.6,23.3-135.9,32.1-204.9,22.3c-70.6-10.1-139.5-44.3-182.7-100.9
			c-34.8-45.6-51.5-101.6-55.1-158.8c-7.1-111.5,26.1-229.4,126-289.9c94.6-57.2,216.9-68.8,319.3-26c-5.8,21.1-11.6,42.1-17.4,63.2
			c-85.2-30.8-187.6-37.2-260,17.3C335.6,409.1,308.8,484.2,304.8,557.5z"/>
		<path class="st78" d="M305.5,556.8c-0.3,4.8-0.4,9.6-0.5,14.4c-0.8,56.3,16.5,111.2,51.7,156.2c32.7,41.8,100.2,67.5,153.1,71.3
			c52.9,3.9,97.4-5.2,143.6-23.2c5.3,20.6,10.7,41.2,16,61.8c-65.6,23.3-135.9,32.1-204.9,22.3c-70.6-10.1-139.5-44.3-182.7-100.9
			c-34.8-45.6-51.5-101.6-55.1-158.8c-7.1-111.5,26.1-229.4,126-289.9c94.6-57.2,216.9-68.8,319.3-26c-5.8,21.1-11.6,42.1-17.4,63.2
			c-85.2-30.8-187.6-37.2-260,17.3C336.3,408.4,309.5,483.5,305.5,556.8z"/>
		<path class="st79" d="M306.2,556.1c-0.3,4.8-0.4,9.6-0.5,14.4c-0.8,56.3,16.5,111.2,51.7,156.2c32.7,41.8,100.2,67.5,153.1,71.3
			c52.9,3.9,97.4-5.2,143.6-23.2c5.3,20.6,10.7,41.2,16,61.8c-65.6,23.3-135.9,32.1-204.9,22.3c-70.6-10.1-139.5-44.3-182.7-100.9
			c-34.8-45.6-51.5-101.6-55.1-158.8c-7.1-111.5,26.1-229.4,126-289.9c94.6-57.2,216.9-68.8,319.3-26c-5.8,21.1-11.6,42.1-17.4,63.2
			c-85.2-30.8-187.6-37.2-260,17.3C337,407.7,310.2,482.8,306.2,556.1z"/>
		<path class="st80" d="M306.9,555.4c-0.3,4.8-0.4,9.6-0.5,14.4c-0.8,56.3,16.5,111.2,51.7,156.2c32.7,41.8,100.2,67.5,153.1,71.3
			c52.9,3.9,97.4-5.2,143.6-23.2c5.3,20.6,10.7,41.2,16,61.8c-65.6,23.3-135.9,32.1-204.9,22.3c-70.6-10.1-139.5-44.3-182.7-100.9
			c-34.8-45.6-51.5-101.6-55.1-158.8c-7.1-111.5,26.1-229.4,126-289.9c94.6-57.2,216.9-68.8,319.3-26c-5.8,21.1-11.6,42.1-17.4,63.2
			c-85.2-30.8-187.6-37.2-260,17.3C337.7,407,310.9,482.1,306.9,555.4z"/>
		<path class="st81" d="M307.6,554.7c-0.3,4.8-0.4,9.6-0.5,14.4c-0.8,56.3,16.5,111.2,51.7,156.2c32.7,41.8,100.2,67.5,153.1,71.3
			c52.9,3.9,97.4-5.2,143.6-23.2c5.3,20.6,10.7,41.2,16,61.8c-65.6,23.3-135.9,32.1-204.9,22.3c-70.6-10.1-139.5-44.3-182.7-100.9
			c-34.7-45.6-51.4-101.6-55-158.8c-7.1-111.5,26.1-229.4,126-289.9c94.6-57.2,216.9-68.8,319.3-26c-5.8,21.1-11.6,42.1-17.4,63.2
			c-85.2-30.8-187.6-37.2-260,17.3C338.4,406.3,311.6,481.3,307.6,554.7z"/>
		<path class="st82" d="M308.3,554c-0.3,4.8-0.4,9.6-0.5,14.4c-0.8,56.3,16.5,111.2,51.7,156.2c32.7,41.8,100.2,67.5,153.1,71.3
			c52.9,3.9,97.4-5.2,143.6-23.2c5.3,20.6,10.7,41.2,16,61.8c-65.6,23.3-135.9,32.1-204.9,22.3c-70.6-10.1-139.5-44.3-182.7-100.9
			c-34.8-45.6-51.5-101.6-55.1-158.8c-7.1-111.5,26.1-229.4,126-289.9c94.6-57.2,216.9-68.8,319.3-26c-5.8,21.1-11.6,42.1-17.4,63.2
			c-85.2-30.8-187.6-37.2-260,17.3C339.1,405.6,312.3,480.6,308.3,554z"/>
		<path class="st83" d="M309,553.3c-0.3,4.8-0.4,9.6-0.5,14.4c-0.8,56.3,16.5,111.2,51.7,156.2c32.7,41.8,100.2,67.5,153.1,71.3
			s97.4-5.2,143.6-23.2c5.3,20.6,10.7,41.2,16,61.8C607.3,857.1,537,865.9,468,856.1c-70.6-10.1-139.5-44.3-182.7-100.9
			c-34.8-45.6-51.5-101.6-55.1-158.8c-7.1-111.5,26.1-229.4,126-289.9c94.6-57.2,216.9-68.8,319.3-26c-5.8,21.1-11.6,42.1-17.4,63.2
			c-85.2-30.8-187.6-37.2-260,17.3C339.8,404.9,313,479.9,309,553.3z"/>
		<path class="st84" d="M309.7,552.6c-0.3,4.8-0.4,9.6-0.5,14.4c-0.8,56.3,16.5,111.2,51.7,156.2c32.7,41.8,100.2,67.5,153.1,71.3
			s97.4-5.2,143.6-23.2c5.3,20.6,10.7,41.2,16,61.8c-65.6,23.3-135.9,32.1-204.9,22.3c-70.6-10.1-139.5-44.3-182.7-100.9
			c-34.8-45.6-51.5-101.6-55.1-158.8c-7.1-111.5,26.1-229.4,126-289.9c94.6-57.2,216.9-68.8,319.3-26c-5.8,21.1-11.6,42.1-17.4,63.2
			c-85.2-30.8-187.6-37.2-260,17.3C340.5,404.2,313.7,479.2,309.7,552.6z"/>
		<path class="st85" d="M310.4,551.9c-0.3,4.8-0.4,9.6-0.5,14.4c-0.8,56.3,16.5,111.2,51.7,156.2c32.7,41.8,100.2,67.5,153.1,71.3
			s97.4-5.2,143.6-23.2c5.3,20.6,10.7,41.2,16,61.8c-65.6,23.3-135.9,32.1-204.9,22.3C399,844.6,330,810.4,286.8,753.8
			C252,708.2,235.3,652.2,231.7,595c-7.1-111.5,26.1-229.4,126-289.9c94.6-57.2,216.9-68.8,319.3-26c-5.8,21.1-11.6,42.1-17.4,63.2
			c-85.2-30.8-187.6-37.2-260,17.3C341.2,403.5,314.4,478.5,310.4,551.9z"/>
		<path class="st86" d="M311.1,551.2c-0.3,4.8-0.4,9.6-0.5,14.4c-0.8,56.3,16.5,111.2,51.7,156.2c32.7,41.8,100.2,67.5,153.1,71.3
			s97.4-5.2,143.6-23.2c5.3,20.6,10.7,41.2,16,61.8C609.5,855,539.2,863.8,470.2,854c-70.6-10.1-139.5-44.3-182.7-100.9
			c-34.8-45.6-51.5-101.6-55.1-158.8c-7.1-111.5,26.1-229.4,126-289.9c94.6-57.2,216.9-68.8,319.3-26c-5.8,21.1-11.6,42.1-17.4,63.2
			c-85.2-30.8-187.6-37.2-260,17.3C342,402.8,315.1,477.8,311.1,551.2z"/>
		<path class="st87" d="M311.8,550.5c-0.3,4.8-0.4,9.6-0.5,14.4c-0.8,56.3,16.5,111.2,51.7,156.2c32.7,41.8,100.2,67.5,153.1,71.3
			s97.4-5.2,143.6-23.2c5.3,20.6,10.7,41.2,16,61.8c-65.6,23.3-135.9,32.1-204.9,22.3c-70.6-10.1-139.5-44.3-182.7-100.9
			c-34.8-45.6-51.5-101.6-55.1-158.8c-7.1-111.5,26.1-229.4,126-289.9c94.6-57.2,216.9-68.8,319.3-26c-5.8,21.1-11.6,42.1-17.4,63.2
			c-85.2-30.8-187.6-37.2-260,17.3C342.7,402.1,315.8,477.1,311.8,550.5z"/>
		<path class="st88" d="M312.5,549.7c-0.3,4.8-0.4,9.6-0.5,14.4c-0.8,56.3,16.5,111.2,51.7,156.2c32.7,41.8,100.2,67.5,153.1,71.3
			c52.9,3.9,97.4-5.2,143.6-23.2c5.3,20.6,10.7,41.2,16,61.8c-65.6,23.3-135.9,32.1-204.9,22.3c-70.6-10.1-139.5-44.3-182.7-100.9
			C254,706,237.3,650,233.7,592.8c-7.1-111.5,26.1-229.4,126-289.9c94.6-57.2,216.9-68.8,319.3-26c-5.8,21.1-11.6,42.1-17.4,63.2
			c-85.2-30.8-187.6-37.2-260,17.3C343.4,401.4,316.6,476.4,312.5,549.7z"/>
		<path class="st89" d="M313.3,549c-0.3,4.8-0.4,9.6-0.5,14.4c-0.8,56.3,16.5,111.2,51.7,156.2c32.7,41.8,100.2,67.5,153.1,71.3
			c52.9,3.9,97.4-5.2,143.6-23.2c5.3,20.6,10.7,41.2,16,61.8c-65.6,23.3-135.9,32.1-204.9,22.3c-70.6-10.1-139.5-44.3-182.7-100.9
			c-34.8-45.6-51.5-101.6-55.1-158.8c-7.1-111.5,26.1-229.4,126-289.9c94.6-57.2,216.9-68.8,319.3-26c-5.8,21.1-11.6,42.1-17.4,63.2
			c-85.2-30.8-187.6-37.2-260,17.3C344.1,400.6,317.3,475.7,313.3,549z"/>
		<path class="st90" d="M314,548.3c-0.3,4.8-0.4,9.6-0.5,14.4c-0.8,56.3,16.5,111.2,51.7,156.2c32.7,41.8,100.2,67.5,153.1,71.3
			c52.9,3.9,97.4-5.2,143.6-23.2c5.3,20.6,10.7,41.2,16,61.8C612.3,852.2,542,861,473.1,851.2c-70.6-10.1-139.5-44.3-182.7-100.9
			c-34.8-45.6-51.5-101.6-55.1-158.8c-7.1-111.5,26.1-229.4,126-289.9c94.6-57.2,216.9-68.8,319.3-26c-5.8,21.1-11.6,42.1-17.4,63.2
			c-85.2-30.8-187.6-37.2-260,17.3C344.8,399.9,318,475,314,548.3z"/>
		<path class="st91" d="M314.7,547.6c-0.3,4.8-0.4,9.6-0.5,14.4c-0.8,56.3,16.5,111.2,51.7,156.2c32.7,41.8,100.2,67.5,153.1,71.3
			c52.9,3.9,97.4-5.2,143.6-23.2c5.3,20.6,10.7,41.2,16,61.8c-65.6,23.3-135.9,32.1-204.9,22.3c-70.6-10.1-139.5-44.3-182.7-100.9
			c-34.8-45.6-51.5-101.6-55.1-158.8c-7.1-111.5,26.1-229.4,126-289.9c94.6-57.2,216.9-68.8,319.3-26c-5.8,21.1-11.6,42.1-17.4,63.2
			c-85.2-30.8-187.6-37.2-260,17.3C345.5,399.2,318.7,474.3,314.7,547.6z"/>
		<path class="st92" d="M315.4,546.9c-0.3,4.8-0.4,9.6-0.5,14.4c-0.8,56.3,16.5,111.2,51.7,156.2c32.7,41.8,100.2,67.5,153.1,71.3
			c52.9,3.9,97.4-5.2,143.6-23.2c5.3,20.6,10.7,41.2,16,61.8c-65.6,23.3-135.9,32.1-204.9,22.3c-70.6-10.1-139.5-44.3-182.7-100.9
			c-34.7-45.6-51.4-101.6-55-158.8c-7.1-111.5,26.1-229.4,126-289.9c94.6-57.2,216.9-68.8,319.3-26c-5.8,21.1-11.6,42.1-17.4,63.2
			c-85.2-30.8-187.6-37.2-260,17.3C346.2,398.5,319.4,473.6,315.4,546.9z"/>
		<path class="st93" d="M316.1,546.2c-0.3,4.8-0.4,9.6-0.5,14.4c-0.8,56.3,16.5,111.2,51.7,156.2c32.7,41.8,100.2,67.5,153.1,71.3
			s97.4-5.2,143.6-23.2c5.3,20.6,10.7,41.2,16,61.8C614.4,850,544.1,858.8,475.1,849c-70.6-10.1-139.5-44.3-182.7-100.9
			c-34.8-45.6-51.5-101.6-55.1-158.8c-7.1-111.5,26.1-229.4,126-289.9c94.6-57.2,216.9-68.8,319.3-26c-5.8,21.1-11.6,42.1-17.4,63.2
			c-85.2-30.8-187.6-37.2-260,17.3C346.9,397.8,320.1,472.8,316.1,546.2z"/>
		<path class="st94" d="M316.8,545.5c-0.3,4.8-0.4,9.6-0.5,14.4c-0.8,56.3,16.5,111.2,51.7,156.2c32.7,41.8,100.2,67.5,153.1,71.3
			s97.4-5.2,143.6-23.2c5.3,20.6,10.7,41.2,16,61.8c-65.6,23.3-135.9,32.1-204.9,22.3c-70.6-10.1-139.5-44.3-182.7-100.9
			c-34.8-45.6-51.5-101.6-55.1-158.8c-7-111.6,26.1-229.5,126-289.9c94.6-57.2,216.9-68.8,319.3-26c-5.8,21.1-11.6,42.1-17.4,63.2
			c-85.2-30.8-187.6-37.2-260,17.3C347.6,397.1,320.8,472.1,316.8,545.5z"/>
		<path class="st95" d="M317.5,544.8c-0.3,4.8-0.4,9.6-0.5,14.4c-0.8,56.3,16.5,111.2,51.7,156.2c32.7,41.8,100.2,67.5,153.1,71.3
			s97.4-5.2,143.6-23.2c5.3,20.6,10.7,41.2,16,61.8c-65.6,23.3-135.9,32.1-204.9,22.3c-70.6-10.1-139.5-44.3-182.7-100.9
			c-34.8-45.6-51.5-101.6-55.1-158.8c-7.1-111.5,26.1-229.4,126-289.9c94.6-57.2,216.9-68.8,319.3-26c-5.8,21.1-11.6,42.1-17.4,63.2
			c-85.2-30.8-187.6-37.2-260,17.3C348.3,396.4,321.5,471.4,317.5,544.8z"/>
		<path class="st96" d="M318.2,544.1c-0.3,4.8-0.4,9.6-0.5,14.4c-0.8,56.3,16.5,111.2,51.7,156.2c32.7,41.8,100.2,67.5,153.1,71.3
			s97.4-5.2,143.6-23.2c5.3,20.6,10.7,41.2,16,61.8c-65.6,23.3-135.9,32.1-204.9,22.3c-70.6-10.1-139.5-44.3-182.7-100.9
			c-34.8-45.6-51.5-101.6-55.1-158.8c-7.1-111.5,26.1-229.4,126-289.9c94.6-57.2,216.9-68.8,319.3-26c-5.8,21.1-11.6,42.1-17.4,63.2
			c-85.2-30.8-187.6-37.2-260,17.3C349,395.7,322.2,470.7,318.2,544.1z"/>
		<path class="st97" d="M318.9,543.4c-0.3,4.8-0.4,9.6-0.5,14.4c-0.8,56.3,16.5,111.2,51.7,156.2c32.7,41.8,100.2,67.5,153.1,71.3
			s97.4-5.2,143.6-23.2c5.3,20.6,10.7,41.2,16,61.8C617.3,847.2,547,856,478,846.2c-70.6-10.1-139.5-44.3-182.7-100.9
			c-34.8-45.6-51.5-101.6-55.1-158.8c-7.1-111.5,26.1-229.4,126-289.9c94.6-57.2,216.9-68.8,319.3-26c-5.8,21.1-11.6,42.1-17.4,63.2
			c-85.2-30.8-187.6-37.2-260,17.3C349.7,395,322.9,470,318.9,543.4z"/>
		<path class="st98" d="M319.6,542.7c-0.3,4.8-0.4,9.6-0.5,14.4c-0.8,56.3,16.5,111.2,51.7,156.2c32.7,41.8,100.2,67.5,153.1,71.3
			c52.9,3.9,97.4-5.2,143.6-23.2c5.3,20.6,10.7,41.2,16,61.8c-65.6,23.3-135.9,32.1-204.9,22.3c-70.6-10.1-139.5-44.3-182.7-100.9
			c-34.7-45.6-51.4-101.6-55-158.9c-7.1-111.5,26.1-229.4,126-289.9c94.6-57.2,216.9-68.8,319.3-26c-5.8,21.1-11.6,42.1-17.4,63.2
			c-85.2-30.8-187.6-37.2-260,17.3C350.5,394.3,323.6,469.3,319.6,542.7z"/>
		<path class="st99" d="M320.3,542c-0.3,4.8-0.4,9.6-0.5,14.4c-0.8,56.3,16.5,111.2,51.7,156.2c32.7,41.8,100.2,67.5,153.1,71.3
			c52.9,3.9,97.4-5.2,143.6-23.2c5.3,20.6,10.7,41.2,16,61.8c-65.6,23.3-135.9,32.1-204.9,22.3c-70.6-10.1-139.5-44.3-182.7-100.9
			c-34.8-45.6-51.5-101.6-55.1-158.8c-7.1-111.5,26.1-229.4,126-289.9c94.6-57.2,216.9-68.8,319.3-26c-5.8,21.1-11.6,42.1-17.4,63.2
			c-85.2-30.8-187.6-37.2-260,17.3C351.2,393.6,324.3,468.6,320.3,542z"/>
		<path class="st100" d="M321,541.2c-0.3,4.8-0.4,9.6-0.5,14.4c-0.8,56.3,16.5,111.2,51.7,156.2c32.7,41.8,100.2,67.5,153.1,71.3
			c52.9,3.9,97.4-5.2,143.6-23.2c5.3,20.6,10.7,41.2,16,61.8C619.3,845,549,853.8,480,844c-70.6-10.1-139.5-44.3-182.7-100.9
			c-34.8-45.6-51.5-101.6-55.1-158.8c-7.1-111.5,26.1-229.4,126-289.9c94.6-57.2,216.9-68.8,319.3-26c-5.8,21.1-11.6,42.1-17.4,63.2
			c-85.2-30.8-187.6-37.2-260,17.3C351.9,392.9,325.1,467.9,321,541.2z"/>
		<path class="st101" d="M321.8,540.5c-0.3,4.8-0.4,9.6-0.5,14.4c-0.8,56.3,16.5,111.2,51.7,156.2c32.7,41.8,100.2,67.5,153.1,71.3
			c52.9,3.9,97.4-5.2,143.6-23.2c5.3,20.6,10.7,41.2,16,61.8c-65.6,23.3-135.9,32.1-204.9,22.3c-70.6-10.1-139.5-44.3-182.7-100.9
			c-34.8-45.6-51.5-101.6-55.1-158.8c-7.1-111.5,26.1-229.4,126-289.9c94.6-57.2,216.9-68.8,319.3-26c-5.8,21.1-11.6,42.1-17.4,63.2
			c-85.2-30.8-187.6-37.2-260,17.3C352.6,392.1,325.8,467.2,321.8,540.5z"/>
		<path class="st102" d="M322.5,539.8c-0.3,4.8-0.4,9.6-0.5,14.4c-0.8,56.3,16.5,111.2,51.7,156.2c32.7,41.8,100.2,67.5,153.1,71.3
			c52.9,3.9,97.4-5.2,143.6-23.2c5.3,20.6,10.7,41.2,16,61.8c-65.6,23.3-135.9,32.1-204.9,22.3c-70.6-10.1-139.5-44.3-182.7-100.9
			c-34.8-45.6-51.5-101.6-55.1-158.8c-7.1-111.5,26.1-229.4,126-289.9c94.6-57.2,216.9-68.8,319.3-26c-5.8,21.1-11.6,42.1-17.4,63.2
			c-85.2-30.8-187.6-37.2-260,17.3C353.3,391.4,326.5,466.5,322.5,539.8z"/>
		<path class="st103" d="M323.2,539.1c-0.3,4.8-0.4,9.6-0.5,14.4c-0.8,56.3,16.5,111.2,51.7,156.2c32.7,41.8,100.2,67.5,153.1,71.3
			c52.9,3.9,97.4-5.2,143.6-23.2c5.3,20.6,10.7,41.2,16,61.8c-65.6,23.3-135.9,32.1-204.9,22.3c-70.6-10.1-139.5-44.3-182.7-100.9
			c-34.8-45.6-51.5-101.6-55.1-158.8c-7.1-111.5,26.1-229.4,126-289.9c94.6-57.2,216.9-68.8,319.3-26c-5.8,21.1-11.6,42.1-17.4,63.2
			c-85.2-30.8-187.6-37.2-260,17.3C354,390.7,327.2,465.8,323.2,539.1z"/>
		<path class="st104" d="M323.9,538.4c-0.3,4.8-0.4,9.6-0.5,14.4c-0.8,56.3,16.5,111.2,51.7,156.2c32.7,41.8,100.2,67.5,153.1,71.3
			s97.4-5.2,143.6-23.2c5.3,20.6,10.7,41.2,16,61.8c-65.6,23.3-135.9,32.1-204.9,22.3c-70.6-10.1-139.5-44.3-182.7-100.9
			c-34.8-45.6-51.5-101.6-55.1-158.8c-7.1-111.5,26.1-229.4,126-289.9c94.6-57.2,216.9-68.8,319.3-26c-5.8,21.1-11.6,42.1-17.4,63.2
			c-85.2-30.8-187.6-37.2-260,17.3C354.7,390,327.9,465.1,323.9,538.4z"/>
		<path class="st105" d="M324.6,537.7c-0.3,4.8-0.4,9.6-0.5,14.4c-0.8,56.3,16.5,111.2,51.7,156.2c32.7,41.8,100.2,67.5,153.1,71.3
			s97.4-5.2,143.6-23.2c5.3,20.6,10.7,41.2,16,61.8c-65.6,23.3-135.9,32.1-204.9,22.3c-70.6-10.1-139.5-44.3-182.7-100.9
			c-34.7-45.6-51.4-101.6-55-158.8c-7.1-111.5,26.1-229.4,126-289.9c94.6-57.2,216.9-68.8,319.3-26c-5.8,21.1-11.6,42.1-17.4,63.2
			c-85.2-30.8-187.6-37.2-260,17.3C355.4,389.3,328.6,464.3,324.6,537.7z"/>
		<path class="st106" d="M325.3,537c-0.3,4.8-0.4,9.6-0.5,14.4c-0.8,56.3,16.5,111.2,51.7,156.2c32.7,41.8,100.2,67.5,153.1,71.3
			s97.4-5.2,143.6-23.2c5.3,20.6,10.7,41.2,16,61.8c-65.6,23.3-135.9,32.1-204.9,22.3c-70.6-10.1-139.5-44.3-182.7-100.9
			c-34.8-45.6-51.5-101.6-55.1-158.8c-7.1-111.5,26.1-229.4,126-289.9c94.6-57.2,216.9-68.8,319.3-26c-5.8,21.1-11.6,42.1-17.4,63.2
			c-85.2-30.8-187.6-37.2-260,17.3C356.1,388.6,329.3,463.6,325.3,537z"/>
		<path class="st107" d="M326,536.3c-0.3,4.8-0.4,9.6-0.5,14.4c-0.8,56.3,16.5,111.2,51.7,156.2c32.7,41.8,100.2,67.5,153.1,71.3
			s97.4-5.2,143.6-23.2c5.3,20.6,10.7,41.2,16,61.8C624.3,840.1,554,848.9,485,839.1c-70.6-10.1-139.5-44.3-182.7-100.9
			c-34.8-45.6-51.5-101.6-55.1-158.8c-7.1-111.5,26.1-229.4,126-289.9c94.6-57.2,216.9-68.8,319.3-26c-5.8,21.1-11.6,42.1-17.4,63.2
			c-85.2-30.8-187.6-37.2-260,17.3C356.8,387.9,330,462.9,326,536.3z"/>
		<path class="st108" d="M326.7,535.6c-0.3,4.8-0.4,9.6-0.5,14.4c-0.8,56.3,16.5,111.2,51.7,156.2c32.7,41.8,100.2,67.5,153.1,71.3
			c52.9,3.9,97.4-5.2,143.6-23.2c5.3,20.6,10.7,41.2,16,61.8c-65.6,23.3-135.9,32.1-204.9,22.3c-70.6-10.1-139.5-44.3-182.7-100.9
			c-34.8-45.6-51.5-101.6-55.1-158.8c-7.1-111.5,26.1-229.4,126-289.9c94.6-57.2,216.9-68.8,319.3-26c-5.8,21.1-11.6,42.1-17.4,63.2
			c-85.2-30.8-187.6-37.2-260,17.3C357.5,387.2,330.7,462.2,326.7,535.6z"/>
		<path class="st109" d="M327.4,534.9c-0.3,4.8-0.4,9.6-0.5,14.4c-0.8,56.3,16.5,111.2,51.7,156.2c32.7,41.8,100.2,67.5,153.1,71.3
			c52.9,3.9,97.4-5.2,143.6-23.2c5.3,20.6,10.7,41.2,16,61.8c-65.6,23.3-135.9,32.1-204.9,22.3C416,827.6,347,793.4,303.8,736.8
			C269,691.2,252.3,635.2,248.7,578c-7.1-111.5,26.1-229.4,126-289.9c94.6-57.2,216.9-68.8,319.3-26c-5.8,21.1-11.6,42.1-17.4,63.2
			c-85.2-30.8-187.6-37.2-260,17.3C358.2,386.5,331.4,461.5,327.4,534.9z"/>
		<path class="st110" d="M328.1,534.2c-0.3,4.8-0.4,9.6-0.5,14.4c-0.8,56.3,16.5,111.2,51.7,156.2c32.7,41.8,100.2,67.5,153.1,71.3
			c52.9,3.9,97.4-5.2,143.6-23.2c5.3,20.6,10.7,41.2,16,61.8C626.5,838,556.2,846.8,487.2,837c-70.6-10.1-139.5-44.3-182.7-100.9
			c-34.8-45.6-51.5-101.6-55.1-158.8c-7.1-111.5,26.1-229.4,126-289.9c94.6-57.2,216.9-68.8,319.3-26c-5.8,21.1-11.6,42.1-17.4,63.2
			c-85.2-30.8-187.6-37.2-260,17.3C359,385.8,332.1,460.8,328.1,534.2z"/>
		<path class="st111" d="M328.8,533.5c-0.3,4.8-0.4,9.6-0.5,14.4c-0.8,56.3,16.5,111.2,51.7,156.2c32.7,41.8,100.2,67.5,153.1,71.3
			c52.9,3.9,97.4-5.2,143.6-23.2c5.3,20.6,10.7,41.2,16,61.8c-65.6,23.3-135.9,32.1-204.9,22.3c-70.6-10.1-139.5-44.3-182.7-100.9
			c-34.8-45.6-51.5-101.6-55.1-158.8c-7.1-111.5,26.1-229.4,126-289.9c94.6-57.2,216.9-68.8,319.3-26c-5.8,21.1-11.6,42.1-17.4,63.2
			c-85.2-30.8-187.6-37.2-260,17.3C359.7,385.1,332.8,460.1,328.8,533.5z"/>
		<path class="st112" d="M329.5,532.7c-0.3,4.8-0.4,9.6-0.5,14.4c-0.8,56.3,16.5,111.2,51.7,156.2c32.7,41.8,100.2,67.5,153.1,71.3
			c52.9,3.9,97.4-5.2,143.6-23.2c5.3,20.6,10.7,41.2,16,61.8c-65.6,23.3-135.9,32.1-204.9,22.3c-70.6-10.1-139.5-44.3-182.7-100.9
			C271,689,254.3,633,250.7,575.8c-7.1-111.5,26.1-229.4,126-289.9c94.6-57.2,216.9-68.8,319.3-26c-5.8,21.1-11.6,42.1-17.4,63.2
			c-85.2-30.8-187.6-37.2-260,17.3C360.4,384.4,333.6,459.4,329.5,532.7z"/>
		<path class="st113" d="M330.3,532c-0.3,4.8-0.4,9.6-0.5,14.4c-0.8,56.3,16.5,111.2,51.7,156.2c32.7,41.8,100.2,67.5,153.1,71.3
			c52.9,3.9,97.4-5.2,143.6-23.2c5.3,20.6,10.7,41.2,16,61.8c-65.6,23.3-135.9,32.1-204.9,22.3c-70.6-10.1-139.5-44.3-182.7-100.9
			c-34.8-45.6-51.5-101.6-55.1-158.8c-7.1-111.5,26.1-229.4,126-289.9c94.6-57.2,216.9-68.8,319.3-26c-5.8,21.1-11.6,42.1-17.4,63.2
			c-85.2-30.8-187.6-37.2-260,17.3C361.1,383.6,334.3,458.7,330.3,532z"/>
		<path class="st114" d="M331,531.3c-0.3,4.8-0.4,9.6-0.5,14.4c-0.8,56.3,16.5,111.2,51.7,156.2c32.7,41.8,100.2,67.5,153.1,71.3
			s97.4-5.2,143.6-23.2c5.3,20.6,10.7,41.2,16,61.8C629.3,835.2,559,844,490.1,834.2c-70.6-10.1-139.5-44.3-182.7-100.9
			c-34.8-45.6-51.5-101.6-55.1-158.8c-7.1-111.5,26.1-229.4,126-289.9c94.6-57.2,216.9-68.8,319.3-26c-5.8,21.1-11.6,42.1-17.4,63.2
			c-85.2-30.8-187.6-37.2-260,17.3C361.8,382.9,335,458,331,531.3z"/>
		<path class="st115" d="M331.7,530.6c-0.3,4.8-0.4,9.6-0.5,14.4c-0.8,56.3,16.5,111.2,51.7,156.2c32.7,41.8,100.2,67.5,153.1,71.3
			s97.4-5.2,143.6-23.2c5.3,20.6,10.7,41.2,16,61.8c-65.6,23.3-135.9,32.1-204.9,22.3c-70.6-10.1-139.5-44.3-182.7-100.9
			c-34.8-45.6-51.5-101.6-55.1-158.8c-7.1-111.5,26.1-229.4,126-289.9c94.6-57.2,216.9-68.8,319.3-26c-5.8,21.1-11.6,42.1-17.4,63.2
			c-85.2-30.8-187.6-37.2-260,17.3C362.5,382.2,335.7,457.3,331.7,530.6z"/>
		<path class="st116" d="M332.4,529.9c-0.3,4.8-0.4,9.6-0.5,14.4c-0.8,56.3,16.5,111.2,51.7,156.2c32.7,41.8,100.2,67.5,153.1,71.3
			s97.4-5.2,143.6-23.2c5.3,20.6,10.7,41.2,16,61.8c-65.6,23.3-135.9,32.1-204.9,22.3c-70.6-10.1-139.5-44.3-182.7-100.9
			C274,686.2,257.3,630.2,253.6,573c-7.1-111.5,26.1-229.4,126-289.9c94.6-57.2,216.9-68.8,319.3-26c-5.8,21.1-11.6,42.1-17.4,63.2
			c-85.2-30.8-187.6-37.2-260,17.3C363.2,381.5,336.4,456.6,332.4,529.9z"/>
		<path class="st117" d="M333.1,529.2c-0.3,4.8-0.4,9.6-0.5,14.4c-0.8,56.3,16.5,111.2,51.7,156.2c32.7,41.8,100.2,67.5,153.1,71.3
			s97.4-5.2,143.6-23.2c5.3,20.6,10.7,41.2,16,61.8C631.4,833,561.1,841.8,492.1,832c-70.6-10.1-139.5-44.3-182.7-100.9
			c-34.8-45.6-51.5-101.6-55.1-158.8c-7.1-111.5,26.1-229.4,126-289.9c94.6-57.2,216.9-68.8,319.3-26c-5.8,21.1-11.6,42.1-17.4,63.2
			c-85.2-30.8-187.6-37.2-260,17.3C363.9,380.8,337.1,455.9,333.1,529.2z"/>
		<path class="st118" d="M333.8,528.5c-0.3,4.8-0.4,9.6-0.5,14.4c-0.8,56.3,16.5,111.2,51.7,156.2c32.7,41.8,100.2,67.5,153.1,71.3
			s97.4-5.2,143.6-23.2c5.3,20.6,10.7,41.2,16,61.8c-65.6,23.3-135.9,32.1-204.9,22.3c-70.6-10.1-139.5-44.3-182.7-100.9
			c-34.8-45.6-51.5-101.6-55.1-158.8c-7-111.6,26.1-229.5,126-289.9c94.6-57.2,216.9-68.8,319.3-26c-5.8,21.1-11.6,42.1-17.4,63.2
			c-85.2-30.8-187.6-37.2-260,17.3C364.6,380.1,337.8,455.1,333.8,528.5z"/>
		<path class="st119" d="M334.5,527.8c-0.3,4.8-0.4,9.6-0.5,14.4c-0.8,56.3,16.5,111.2,51.7,156.2c32.7,41.8,100.2,67.5,153.1,71.3
			c52.9,3.9,97.4-5.2,143.6-23.2c5.3,20.6,10.7,41.2,16,61.8c-65.6,23.3-135.9,32.1-204.9,22.3c-70.6-10.1-139.5-44.3-182.7-100.9
			c-34.8-45.6-51.5-101.6-55.1-158.8c-7.1-111.5,26.1-229.4,126-289.9c94.6-57.2,216.9-68.8,319.3-26c-5.8,21.1-11.6,42.1-17.4,63.2
			c-85.2-30.8-187.6-37.2-260,17.3C365.3,379.4,338.5,454.4,334.5,527.8z"/>
		<path class="st120" d="M335.2,527.1c-0.3,4.8-0.4,9.6-0.5,14.4c-0.8,56.3,16.5,111.2,51.7,156.2c32.7,41.8,100.2,67.5,153.1,71.3
			c52.9,3.9,97.4-5.2,143.6-23.2c5.3,20.6,10.7,41.2,16,61.8c-65.6,23.3-135.9,32.1-204.9,22.3c-70.6-10.1-139.5-44.3-182.7-100.9
			c-34.8-45.6-51.5-101.6-55.1-158.8c-7.1-111.5,26.1-229.4,126-289.9c94.6-57.2,216.9-68.8,319.3-26c-5.8,21.1-11.6,42.1-17.4,63.2
			c-85.2-30.8-187.6-37.2-260,17.3C366,378.7,339.2,453.7,335.2,527.1z"/>
		<path class="st121" d="M335.9,526.4c-0.3,4.8-0.4,9.6-0.5,14.4c-0.8,56.3,16.5,111.2,51.7,156.2c32.7,41.8,100.2,67.5,153.1,71.3
			c52.9,3.9,97.4-5.2,143.6-23.2c5.3,20.6,10.7,41.2,16,61.8C634.3,830.2,564,839,495,829.2c-70.6-10.1-139.5-44.3-182.7-100.9
			c-34.8-45.6-51.5-101.6-55.1-158.8c-7.1-111.5,26.1-229.4,126-289.9c94.6-57.2,216.9-68.8,319.3-26c-5.8,21.1-11.6,42.1-17.4,63.2
			c-85.2-30.8-187.6-37.2-260,17.3C366.7,378,339.9,453,335.9,526.4z"/>
		<path class="st122" d="M336.6,525.7c-0.3,4.8-0.4,9.6-0.5,14.4c-0.8,56.3,16.5,111.2,51.7,156.2c32.7,41.8,100.2,67.5,153.1,71.3
			c52.9,3.9,97.4-5.2,143.6-23.2c5.3,20.6,10.7,41.2,16,61.8c-65.6,23.3-135.9,32.1-204.9,22.3c-70.6-10.1-139.5-44.3-182.7-100.9
			c-34.7-45.6-51.4-101.6-55-158.9c-7.1-111.5,26.1-229.4,126-289.9c94.6-57.2,216.9-68.8,319.3-26c-5.8,21.1-11.6,42.1-17.4,63.2
			c-85.2-30.8-187.6-37.2-260,17.3C367.5,377.3,340.6,452.3,336.6,525.7z"/>
		<path class="st123" d="M337.3,525c-0.3,4.8-0.4,9.6-0.5,14.4c-0.8,56.3,16.5,111.2,51.7,156.2c32.7,41.8,100.2,67.5,153.1,71.3
			c52.9,3.9,97.4-5.2,143.6-23.2c5.3,20.6,10.7,41.2,16,61.8c-65.6,23.3-135.9,32.1-204.9,22.3c-70.6-10.1-139.5-44.3-182.7-100.9
			c-34.8-45.6-51.5-101.6-55.1-158.8c-7.1-111.5,26.1-229.4,126-289.9c94.6-57.2,216.9-68.8,319.3-26c-5.8,21.1-11.6,42.1-17.4,63.2
			c-85.2-30.8-187.6-37.2-260,17.3C368.2,376.6,341.3,451.6,337.3,525z"/>
		<path class="st124" d="M338,524.2c-0.3,4.8-0.4,9.6-0.5,14.4c-0.8,56.3,16.5,111.2,51.7,156.2c32.7,41.8,100.2,67.5,153.1,71.3
			c52.9,3.9,97.4-5.2,143.6-23.2c5.3,20.6,10.7,41.2,16,61.8C636.3,828,566,836.8,497,827c-70.6-10.1-139.5-44.3-182.7-100.9
			c-34.8-45.6-51.5-101.6-55.1-158.8c-7.1-111.5,26.1-229.4,126-289.9c94.6-57.2,216.9-68.8,319.3-26c-5.8,21.1-11.6,42.1-17.4,63.2
			c-85.2-30.8-187.6-37.2-260,17.3C368.9,375.9,342,450.9,338,524.2z"/>
		<path class="st125" d="M338.8,523.5c-0.3,4.8-0.4,9.6-0.5,14.4c-0.8,56.3,16.5,111.2,51.7,156.2c32.7,41.8,100.2,67.5,153.1,71.3
			s97.4-5.2,143.6-23.2c5.3,20.6,10.7,41.2,16,61.8c-65.6,23.3-135.9,32.1-204.9,22.3c-70.6-10.1-139.5-44.3-182.7-100.9
			c-34.8-45.6-51.5-101.6-55.1-158.8c-7.1-111.5,26.1-229.4,126-289.9c94.6-57.2,216.9-68.8,319.3-26c-5.8,21.1-11.6,42.1-17.4,63.2
			c-85.2-30.8-187.6-37.2-260,17.3C369.6,375.1,342.8,450.2,338.8,523.5z"/>
		<path class="st126" d="M339.5,522.8c-0.3,4.8-0.4,9.6-0.5,14.4c-0.8,56.3,16.5,111.2,51.7,156.2c32.7,41.8,100.2,67.5,153.1,71.3
			s97.4-5.2,143.6-23.2c5.3,20.6,10.7,41.2,16,61.8c-65.6,23.3-135.9,32.1-204.9,22.3c-70.6-10.1-139.5-44.3-182.7-100.9
			c-34.8-45.6-51.5-101.6-55.1-158.8c-7.1-111.5,26.1-229.4,126-289.9c94.6-57.2,216.9-68.8,319.3-26c-5.8,21.1-11.6,42.1-17.4,63.2
			c-85.2-30.8-187.6-37.2-260,17.3C370.3,374.4,343.5,449.5,339.5,522.8z"/>
		<path class="st127" d="M340.2,522.1c-0.3,4.8-0.4,9.6-0.5,14.4c-0.8,56.3,16.5,111.2,51.7,156.2c32.7,41.8,100.2,67.5,153.1,71.3
			s97.4-5.2,143.6-23.2c5.3,20.6,10.7,41.2,16,61.8c-65.6,23.3-135.9,32.1-204.9,22.3c-70.6-10.1-139.5-44.3-182.7-100.9
			c-34.8-45.6-51.5-101.6-55.1-158.8c-7.1-111.5,26.1-229.4,126-289.9c94.6-57.2,216.9-68.8,319.3-26c-5.8,21.1-11.6,42.1-17.4,63.2
			c-85.2-30.8-187.6-37.2-260,17.3C371,373.7,344.2,448.8,340.2,522.1z"/>
		<path class="st128" d="M340.9,521.4c-0.3,4.8-0.4,9.6-0.5,14.4c-0.8,56.3,16.5,111.2,51.7,156.2c32.7,41.8,100.2,67.5,153.1,71.3
			s97.4-5.2,143.6-23.2c5.3,20.6,10.7,41.2,16,61.8c-65.6,23.3-135.9,32.1-204.9,22.3c-70.6-10.1-139.5-44.3-182.7-100.9
			c-34.8-45.6-51.5-101.6-55.1-158.8c-7.1-111.5,26.1-229.4,126-289.9c94.6-57.2,216.9-68.8,319.3-26c-5.8,21.1-11.6,42.1-17.4,63.2
			c-85.2-30.8-187.6-37.2-260,17.3C371.7,373,344.9,448.1,340.9,521.4z"/>
		<path class="st129" d="M341.6,520.7c-0.3,4.8-0.4,9.6-0.5,14.4c-0.8,56.3,16.5,111.2,51.7,156.2c32.7,41.8,100.2,67.5,153.1,71.3
			c52.9,3.9,97.4-5.2,143.6-23.2c5.3,20.6,10.7,41.2,16,61.8c-65.6,23.3-135.9,32.1-204.9,22.3c-70.6-10.1-139.5-44.3-182.7-100.9
			c-34.7-45.6-51.4-101.6-55-158.8c-7.1-111.5,26.1-229.4,126-289.9c94.6-57.2,216.9-68.8,319.3-26c-5.8,21.1-11.6,42.1-17.4,63.2
			c-85.2-30.8-187.6-37.2-260,17.3C372.4,372.3,345.6,447.4,341.6,520.7z"/>
		<path class="st130" d="M342.3,520c-0.3,4.8-0.4,9.6-0.5,14.4c-0.8,56.3,16.5,111.2,51.7,156.2c32.7,41.8,100.2,67.5,153.1,71.3
			c52.9,3.9,97.4-5.2,143.6-23.2c5.3,20.6,10.7,41.2,16,61.8c-65.6,23.3-135.9,32.1-204.9,22.3c-70.6-10.1-139.5-44.3-182.7-100.9
			c-34.8-45.6-51.5-101.6-55.1-158.8c-7.1-111.5,26.1-229.4,126-289.9c94.6-57.2,216.9-68.8,319.3-26c-5.8,21.1-11.6,42.1-17.4,63.2
			c-85.2-30.8-187.6-37.2-260,17.3C373.1,371.6,346.3,446.6,342.3,520z"/>
		<path class="st131" d="M343,519.3c-0.3,4.8-0.4,9.6-0.5,14.4c-0.8,56.3,16.5,111.2,51.7,156.2c32.7,41.8,100.2,67.5,153.1,71.3
			c52.9,3.9,97.4-5.2,143.6-23.2c5.3,20.6,10.7,41.2,16,61.8C641.3,823.1,571,831.9,502,822.1c-70.6-10.1-139.5-44.3-182.7-100.9
			c-34.8-45.6-51.5-101.6-55.1-158.8c-7.1-111.5,26.1-229.4,126-289.9c94.6-57.2,216.9-68.8,319.3-26c-5.8,21.1-11.6,42.1-17.4,63.2
			c-85.2-30.8-187.6-37.2-260,17.3C373.8,370.9,347,445.9,343,519.3z"/>
		<path class="st132" d="M343.7,518.6c-0.3,4.8-0.4,9.6-0.5,14.4c-0.8,56.3,16.5,111.2,51.7,156.2c32.7,41.8,100.2,67.5,153.1,71.3
			c52.9,3.9,97.4-5.2,143.6-23.2c5.3,20.6,10.7,41.2,16,61.8c-65.6,23.3-135.9,32.1-204.9,22.3c-70.6-10.1-139.5-44.3-182.7-100.9
			c-34.8-45.6-51.5-101.6-55.1-158.8c-7.1-111.5,26.1-229.4,126-289.9c94.6-57.2,216.9-68.8,319.3-26c-5.8,21.1-11.6,42.1-17.4,63.2
			c-85.2-30.8-187.6-37.2-260,17.3C374.5,370.2,347.7,445.2,343.7,518.6z"/>
		<path class="st133" d="M344.4,517.9c-0.3,4.8-0.4,9.6-0.5,14.4c-0.8,56.3,16.5,111.2,51.7,156.2c32.7,41.8,100.2,67.5,153.1,71.3
			c52.9,3.9,97.4-5.2,143.6-23.2c5.3,20.6,10.7,41.2,16,61.8c-65.6,23.3-135.9,32.1-204.9,22.3c-70.6-10.1-139.5-44.3-182.7-100.9
			c-34.8-45.6-51.5-101.6-55.1-158.8c-7.1-111.5,26.1-229.4,126-289.9c94.6-57.2,216.9-68.8,319.3-26c-5.8,21.1-11.6,42.1-17.4,63.2
			c-85.2-30.8-187.6-37.2-260,17.3C375.2,369.5,348.4,444.5,344.4,517.9z"/>
		<path class="st134" d="M345.1,517.2c-0.3,4.8-0.4,9.6-0.5,14.4c-0.8,56.3,16.5,111.2,51.7,156.2c32.7,41.8,100.2,67.5,153.1,71.3
			c52.9,3.9,97.4-5.2,143.6-23.2c5.3,20.6,10.7,41.2,16,61.8C643.5,821,573.2,829.8,504.2,820c-70.6-10.1-139.5-44.3-182.7-100.9
			c-34.8-45.6-51.5-101.6-55.1-158.8c-7.1-111.5,26.1-229.4,126-289.9c94.6-57.2,216.9-68.8,319.3-26c-5.8,21.1-11.6,42.1-17.4,63.2
			c-85.2-30.8-187.6-37.2-260,17.3C376,368.8,349.1,443.8,345.1,517.2z"/>
		<path class="st135" d="M345.8,516.5c-0.3,4.8-0.4,9.6-0.5,14.4c-0.8,56.3,16.5,111.2,51.7,156.2c32.7,41.8,100.2,67.5,153.1,71.3
			s97.4-5.2,143.6-23.2c5.3,20.6,10.7,41.2,16,61.8c-65.6,23.3-135.9,32.1-204.9,22.3c-70.6-10.1-139.5-44.3-182.7-100.9
			c-34.8-45.6-51.5-101.6-55.1-158.8c-7.1-111.5,26.1-229.4,126-289.9c94.6-57.2,216.9-68.8,319.3-26c-5.8,21.1-11.6,42.1-17.4,63.2
			c-85.2-30.8-187.6-37.2-260,17.3C376.7,368.1,349.8,443.1,345.8,516.5z"/>
		<path class="st136" d="M346.5,515.8c-0.3,4.8-0.4,9.6-0.5,14.4c-0.8,56.3,16.5,111.2,51.7,156.2c32.7,41.8,100.2,67.5,153.1,71.3
			s97.4-5.2,143.6-23.2c5.3,20.6,10.7,41.2,16,61.8c-65.6,23.3-135.9,32.1-204.9,22.3c-70.6-10.1-139.5-44.3-182.7-100.9
			c-34.8-45.6-51.5-101.6-55.1-158.8c-7.1-111.5,26.1-229.4,126-289.9c94.6-57.2,216.9-68.8,319.3-26c-5.8,21.1-11.6,42.1-17.4,63.2
			c-85.2-30.8-187.6-37.2-260,17.3C377.4,367.4,350.5,442.4,346.5,515.8z"/>
		<path class="st137" d="M347.2,515c-0.3,4.8-0.4,9.6-0.5,14.4c-0.8,56.3,16.5,111.2,51.7,156.2c32.7,41.8,100.2,67.5,153.1,71.3
			s97.4-5.2,143.6-23.2c5.3,20.6,10.7,41.2,16,61.8c-65.6,23.3-135.9,32.1-204.9,22.3c-70.6-10.1-139.5-44.3-182.7-100.9
			c-34.8-45.6-51.5-101.6-55.1-158.8c-7.1-111.5,26.1-229.4,126-289.9c94.6-57.2,216.9-68.8,319.3-26c-5.8,21.1-11.6,42.1-17.4,63.2
			c-85.2-30.8-187.6-37.2-260,17.3C378.1,366.6,351.3,441.7,347.2,515z"/>
		<path class="st138" d="M348,514.3c-0.3,4.8-0.4,9.6-0.5,14.4c-0.8,56.3,16.5,111.2,51.7,156.2c32.7,41.8,100.2,67.5,153.1,71.3
			s97.4-5.2,143.6-23.2c5.3,20.6,10.7,41.2,16,61.8C646.3,818.2,576,827,507.1,817.2c-70.6-10.1-139.5-44.3-182.7-100.9
			c-34.8-45.6-51.5-101.6-55.1-158.8c-7.1-111.5,26.1-229.4,126-289.9c94.6-57.2,216.9-68.8,319.3-26c-5.8,21.1-11.6,42.1-17.4,63.2
			c-85.2-30.8-187.6-37.2-260,17.3C378.8,365.9,352,441,348,514.3z"/>
		<path class="st139" d="M348.7,513.6c-0.3,4.8-0.4,9.6-0.5,14.4c-0.8,56.3,16.5,111.2,51.7,156.2c32.7,41.8,100.2,67.5,153.1,71.3
			s97.4-5.2,143.6-23.2c5.3,20.6,10.7,41.2,16,61.8c-65.6,23.3-135.9,32.1-204.9,22.3c-70.6-10.1-139.5-44.3-182.7-100.9
			c-34.8-45.6-51.5-101.6-55.1-158.8c-7.1-111.5,26.1-229.4,126-289.9c94.6-57.2,216.9-68.8,319.3-26c-5.8,21.1-11.6,42.1-17.4,63.2
			c-85.2-30.8-187.6-37.2-260,17.3C379.5,365.2,352.7,440.3,348.7,513.6z"/>
		<path class="st140" d="M349.4,512.9c-0.3,4.8-0.4,9.6-0.5,14.4c-0.8,56.3,16.5,111.2,51.7,156.2c32.7,41.8,100.2,67.5,153.1,71.3
			c52.9,3.9,97.4-5.2,143.6-23.2c5.3,20.6,10.7,41.2,16,61.8c-65.6,23.3-135.9,32.1-204.9,22.3c-70.6-10.1-139.5-44.3-182.7-100.9
			C291,669.2,274.3,613.2,270.6,556c-7.1-111.5,26.1-229.4,126-289.9c94.6-57.2,216.9-68.8,319.3-26c-5.8,21.1-11.6,42.1-17.4,63.2
			c-85.2-30.8-187.6-37.2-260,17.3C380.2,364.5,353.4,439.6,349.4,512.9z"/>
		<path class="st141" d="M350.1,512.2c-0.3,4.8-0.4,9.6-0.5,14.4c-0.8,56.3,16.5,111.2,51.7,156.2c32.7,41.8,100.2,67.5,153.1,71.3
			c52.9,3.9,97.4-5.2,143.6-23.2c5.3,20.6,10.7,41.2,16,61.8C648.4,816,578.1,824.8,509.1,815c-70.6-10.1-139.5-44.3-182.7-100.9
			c-34.8-45.6-51.5-101.6-55.1-158.8c-7.1-111.5,26.1-229.4,126-289.9c94.6-57.2,216.9-68.8,319.3-26c-5.8,21.1-11.6,42.1-17.4,63.2
			c-85.2-30.8-187.6-37.2-260,17.3C380.9,363.8,354.1,438.9,350.1,512.2z"/>
		<path class="st142" d="M350.8,511.5c-0.3,4.8-0.4,9.6-0.5,14.4c-0.8,56.3,16.5,111.2,51.7,156.2c32.7,41.8,100.2,67.5,153.1,71.3
			c52.9,3.9,97.4-5.2,143.6-23.2c5.3,20.6,10.7,41.2,16,61.8c-65.6,23.3-135.9,32.1-204.9,22.3c-70.6-10.1-139.5-44.3-182.7-100.9
			c-34.8-45.6-51.5-101.6-55.1-158.8c-7-111.6,26.1-229.5,126-289.9c94.6-57.2,216.9-68.8,319.3-26c-5.8,21.1-11.6,42.1-17.4,63.2
			c-85.2-30.8-187.6-37.2-260,17.3C381.6,363.1,354.8,438.1,350.8,511.5z"/>
		<path class="st143" d="M351.5,510.8c-0.3,4.8-0.4,9.6-0.5,14.4c-0.8,56.3,16.5,111.2,51.7,156.2c32.7,41.8,100.2,67.5,153.1,71.3
			c52.9,3.9,97.4-5.2,143.6-23.2c5.3,20.6,10.7,41.2,16,61.8c-65.6,23.3-135.9,32.1-204.9,22.3c-70.6-10.1-139.5-44.3-182.7-100.9
			c-34.8-45.6-51.5-101.6-55.1-158.8c-7.1-111.5,26.1-229.4,126-289.9c94.6-57.2,216.9-68.8,319.3-26c-5.8,21.1-11.6,42.1-17.4,63.2
			c-85.2-30.8-187.6-37.2-260,17.3C382.3,362.4,355.5,437.4,351.5,510.8z"/>
		<path class="st144" d="M352.2,510.1c-0.3,4.8-0.4,9.6-0.5,14.4c-0.8,56.3,16.5,111.2,51.7,156.2c32.7,41.8,100.2,67.5,153.1,71.3
			c52.9,3.9,97.4-5.2,143.6-23.2c5.3,20.6,10.7,41.2,16,61.8c-65.6,23.3-135.9,32.1-204.9,22.3c-70.6-10.1-139.5-44.3-182.7-100.9
			c-34.8-45.6-51.5-101.6-55.1-158.8c-7.1-111.5,26.1-229.4,126-289.9c94.6-57.2,216.9-68.8,319.3-26c-5.8,21.1-11.6,42.1-17.4,63.2
			c-85.2-30.8-187.6-37.2-260,17.3C383,361.7,356.2,436.7,352.2,510.1z"/>
		<path class="st145" d="M352.9,509.4c-0.3,4.8-0.4,9.6-0.5,14.4c-0.8,56.3,16.5,111.2,51.7,156.2c32.7,41.8,100.2,67.5,153.1,71.3
			c52.9,3.9,97.4-5.2,143.6-23.2c5.3,20.6,10.7,41.2,16,61.8C651.3,813.2,581,822,512,812.2c-70.6-10.1-139.5-44.3-182.7-100.9
			c-34.8-45.6-51.5-101.6-55.1-158.8c-7.1-111.5,26.1-229.4,126-289.9c94.6-57.2,216.9-68.8,319.3-26c-5.8,21.1-11.6,42.1-17.4,63.2
			c-85.2-30.8-187.6-37.2-260,17.3C383.7,361,356.9,436,352.9,509.4z"/>
		<path class="st146" d="M353.6,508.7c-0.3,4.8-0.4,9.6-0.5,14.4c-0.8,56.3,16.5,111.2,51.7,156.2c32.7,41.8,100.2,67.5,153.1,71.3
			s97.4-5.2,143.6-23.2c5.3,20.6,10.7,41.2,16,61.8c-65.6,23.3-135.9,32.1-204.9,22.3c-70.6-10.1-139.5-44.3-182.7-100.9
			c-34.7-45.6-51.4-101.6-55-158.9c-7.1-111.5,26.1-229.4,126-289.9c94.6-57.2,216.9-68.8,319.3-26c-5.8,21.1-11.6,42.1-17.4,63.2
			c-85.2-30.8-187.6-37.2-260,17.3C384.4,360.3,357.6,435.3,353.6,508.7z"/>
		<path class="st147" d="M354.3,508c-0.3,4.8-0.4,9.6-0.5,14.4c-0.8,56.3,16.5,111.2,51.7,156.2c32.7,41.8,100.2,67.5,153.1,71.3
			s97.4-5.2,143.6-23.2c5.3,20.6,10.7,41.2,16,61.8c-65.6,23.3-135.9,32.1-204.9,22.3c-70.6-10.1-139.5-44.3-182.7-100.9
			c-34.8-45.6-51.5-101.6-55.1-158.8c-7.1-111.5,26.1-229.4,126-289.9c94.6-57.2,216.9-68.8,319.3-26c-5.8,21.1-11.6,42.1-17.4,63.2
			c-85.2-30.8-187.6-37.2-260,17.3C385.2,359.6,358.3,434.6,354.3,508z"/>
		<path class="st148" d="M355,507.3c-0.3,4.8-0.4,9.6-0.5,14.4c-0.8,56.3,16.5,111.2,51.7,156.2c32.7,41.8,100.2,67.5,153.1,71.3
			s97.4-5.2,143.6-23.2c5.3,20.6,10.7,41.2,16,61.8C653.3,811.1,583,819.9,514,810.1c-70.6-10.1-139.5-44.3-182.7-100.9
			c-34.8-45.6-51.5-101.6-55.1-158.8c-7.1-111.5,26.1-229.4,126-289.9c94.6-57.2,216.9-68.8,319.3-26c-5.8,21.1-11.6,42.1-17.4,63.2
			c-85.2-30.8-187.6-37.2-260,17.3C385.9,358.9,359,433.9,355,507.3z"/>
		<path class="st149" d="M355.7,506.5c-0.3,4.8-0.4,9.6-0.5,14.4c-0.8,56.3,16.5,111.2,51.7,156.2c32.7,41.8,100.2,67.5,153.1,71.3
			s97.4-5.2,143.6-23.2c5.3,20.6,10.7,41.2,16,61.8c-65.6,23.3-135.9,32.1-204.9,22.3C444.1,799.2,375.2,765,332,708.4
			c-34.8-45.6-51.5-101.6-55.1-158.8c-7.1-111.5,26.1-229.4,126-289.9c94.6-57.2,216.9-68.8,319.3-26c-5.8,21.1-11.6,42.1-17.4,63.2
			c-85.2-30.8-187.6-37.2-260,17.3C386.6,358.2,359.8,433.2,355.7,506.5z"/>
		<path class="st150" d="M356.5,505.8c-0.3,4.8-0.4,9.6-0.5,14.4c-0.8,56.3,16.5,111.2,51.7,156.2c32.7,41.8,100.2,67.5,153.1,71.3
			c52.9,3.9,97.4-5.2,143.6-23.2c5.3,20.6,10.7,41.2,16,61.8c-65.6,23.3-135.9,32.1-204.9,22.3c-70.6-10.1-139.5-44.3-182.7-100.9
			c-34.8-45.6-51.5-101.6-55.1-158.8c-7.1-111.5,26.1-229.4,126-289.9c94.6-57.2,216.9-68.8,319.3-26c-5.8,21.1-11.6,42.1-17.4,63.2
			c-85.2-30.8-187.6-37.2-260,17.3C387.3,357.4,360.5,432.5,356.5,505.8z"/>
		<path class="st151" d="M357.2,505.1c-0.3,4.8-0.4,9.6-0.5,14.4c-0.8,56.3,16.5,111.2,51.7,156.2c32.7,41.8,100.2,67.5,153.1,71.3
			c52.9,3.9,97.4-5.2,143.6-23.2c5.3,20.6,10.7,41.2,16,61.8C655.5,809,585.2,817.8,516.3,808c-70.6-10.1-139.5-44.3-182.7-100.9
			c-34.8-45.6-51.5-101.6-55.1-158.8c-7.1-111.5,26.1-229.4,126-289.9c94.6-57.2,216.9-68.8,319.3-26c-5.8,21.1-11.6,42.1-17.4,63.2
			c-85.2-30.8-187.6-37.2-260,17.3C388,356.7,361.2,431.8,357.2,505.1z"/>
		<path class="st152" d="M357.9,504.4c-0.3,4.8-0.4,9.6-0.5,14.4c-0.8,56.3,16.5,111.2,51.7,156.2c32.7,41.8,100.2,67.5,153.1,71.3
			c52.9,3.9,97.4-5.2,143.6-23.2c5.3,20.6,10.7,41.2,16,61.8c-65.6,23.3-135.9,32.1-204.9,22.3c-70.6-10.1-139.5-44.3-182.7-100.9
			c-34.8-45.6-51.5-101.6-55.1-158.8c-7.1-111.5,26.1-229.4,126-289.9c94.6-57.2,216.9-68.8,319.3-26c-5.8,21.1-11.6,42.1-17.4,63.2
			c-85.2-30.8-187.6-37.2-260,17.3C388.7,356,361.9,431.1,357.9,504.4z"/>
		<path class="st153" d="M358.6,503.7c-0.3,4.8-0.4,9.6-0.5,14.4c-0.8,56.3,16.5,111.2,51.7,156.2c32.7,41.8,100.2,67.5,153.1,71.3
			c52.9,3.9,97.4-5.2,143.6-23.2c5.3,20.6,10.7,41.2,16,61.8c-65.6,23.3-135.9,32.1-204.9,22.3c-70.6-10.1-139.5-44.3-182.7-100.9
			c-34.7-45.6-51.4-101.6-55-158.8c-7.1-111.5,26.1-229.4,126-289.9c94.6-57.2,216.9-68.8,319.3-26c-5.8,21.1-11.6,42.1-17.4,63.2
			c-85.2-30.8-187.6-37.2-260,17.3C389.4,355.3,362.6,430.4,358.6,503.7z"/>
		<path class="st154" d="M359.3,503c-0.3,4.8-0.4,9.6-0.5,14.4c-0.8,56.3,16.5,111.2,51.7,156.2c32.7,41.8,100.2,67.5,153.1,71.3
			c52.9,3.9,97.4-5.2,143.6-23.2c5.3,20.6,10.7,41.2,16,61.8c-65.6,23.3-135.9,32.1-204.9,22.3c-70.6-10.1-139.5-44.3-182.7-100.9
			c-34.8-45.6-51.5-101.6-55.1-158.8c-7.1-111.5,26.1-229.4,126-289.9c94.6-57.2,216.9-68.8,319.3-26c-5.8,21.1-11.6,42.1-17.4,63.2
			c-85.2-30.8-187.6-37.2-260,17.3C390.1,354.6,363.3,429.6,359.3,503z"/>
		<path class="st155" d="M360,502.3c-0.3,4.8-0.4,9.6-0.5,14.4c-0.8,56.3,16.5,111.2,51.7,156.2c32.7,41.8,100.2,67.5,153.1,71.3
			c52.9,3.9,97.4-5.2,143.6-23.2c5.3,20.6,10.7,41.2,16,61.8C658.3,806.1,588,814.9,519,805.1c-70.6-10.1-139.5-44.3-182.7-100.9
			c-34.8-45.6-51.5-101.6-55.1-158.8c-7.1-111.5,26.1-229.4,126-289.9c94.6-57.2,216.9-68.8,319.3-26c-5.8,21.1-11.6,42.1-17.4,63.2
			c-85.2-30.8-187.6-37.2-260,17.3C390.8,353.9,364,428.9,360,502.3z"/>
		<path class="st156" d="M360.7,501.6c-0.3,4.8-0.4,9.6-0.5,14.4c-0.8,56.3,16.5,111.2,51.7,156.2c32.7,41.8,100.2,67.5,153.1,71.3
			s97.4-5.2,143.6-23.2c5.3,20.6,10.7,41.2,16,61.8c-65.6,23.3-135.9,32.1-204.9,22.3c-70.6-10.1-139.5-44.3-182.7-100.9
			c-34.8-45.6-51.5-101.6-55.1-158.8c-7.1-111.5,26.1-229.4,126-289.9c94.6-57.2,216.9-68.8,319.3-26c-5.8,21.1-11.6,42.1-17.4,63.2
			c-85.2-30.8-187.6-37.2-260,17.3C391.5,353.2,364.7,428.2,360.7,501.6z"/>
		<path class="st157" d="M361.4,500.9c-0.3,4.8-0.4,9.6-0.5,14.4c-0.8,56.3,16.5,111.2,51.7,156.2c32.7,41.8,100.2,67.5,153.1,71.3
			s97.4-5.2,143.6-23.2c5.3,20.6,10.7,41.2,16,61.8c-65.6,23.3-135.9,32.1-204.9,22.3c-70.6-10.1-139.5-44.3-182.7-100.9
			c-34.8-45.6-51.5-101.6-55.1-158.8c-7.1-111.5,26.1-229.4,126-289.9c94.6-57.2,216.9-68.8,319.3-26c-5.8,21.1-11.6,42.1-17.4,63.2
			c-85.2-30.8-187.6-37.2-260,17.3C392.2,352.5,365.4,427.5,361.4,500.9z"/>
		<path class="st158" d="M362.1,500.2c-0.3,4.8-0.4,9.6-0.5,14.4c-0.8,56.3,16.5,111.2,51.7,156.2c32.7,41.8,100.2,67.5,153.1,71.3
			s97.4-5.2,143.6-23.2c5.3,20.6,10.7,41.2,16,61.8C660.5,804,590.2,812.8,521.2,803c-70.6-10.1-139.5-44.3-182.7-100.9
			c-34.8-45.6-51.5-101.6-55.1-158.8c-7.1-111.5,26.1-229.4,126-289.9c94.6-57.2,216.9-68.8,319.3-26c-5.8,21.1-11.6,42.1-17.4,63.2
			c-85.2-30.8-187.6-37.2-260,17.3C392.9,351.8,366.1,426.8,362.1,500.2z"/>
		<path class="st159" d="M362.8,499.5c-0.3,4.8-0.4,9.6-0.5,14.4c-0.8,56.3,16.5,111.2,51.7,156.2c32.7,41.8,100.2,67.5,153.1,71.3
			s97.4-5.2,143.6-23.2c5.3,20.6,10.7,41.2,16,61.8c-65.6,23.3-135.9,32.1-204.9,22.3c-70.6-10.1-139.5-44.3-182.7-100.9
			c-34.8-45.6-51.5-101.6-55.1-158.8c-7.1-111.5,26.1-229.4,126-289.9c94.6-57.2,216.9-68.8,319.3-26c-5.8,21.1-11.6,42.1-17.4,63.2
			c-85.2-30.8-187.6-37.2-260,17.3C393.7,351.1,366.8,426.1,362.8,499.5z"/>
		<path class="st160" d="M363.5,498.8c-0.3,4.8-0.4,9.6-0.5,14.4c-0.8,56.3,16.5,111.2,51.7,156.2c32.7,41.8,100.2,67.5,153.1,71.3
			c52.9,3.9,97.4-5.2,143.6-23.2c5.3,20.6,10.7,41.2,16,61.8c-65.6,23.3-135.9,32.1-204.9,22.3c-70.6-10.1-139.5-44.3-182.7-100.9
			c-34.8-45.6-51.5-101.6-55.1-158.8c-7.1-111.5,26.1-229.4,126-289.9c94.6-57.2,216.9-68.8,319.3-26c-5.8,21.1-11.6,42.1-17.4,63.2
			c-85.2-30.8-187.6-37.2-260,17.3C394.4,350.4,367.5,425.4,363.5,498.8z"/>
		<path class="st161" d="M364.2,498c-0.3,4.8-0.4,9.6-0.5,14.4c-0.8,56.3,16.5,111.2,51.7,156.2c32.7,41.8,100.2,67.5,153.1,71.3
			c52.9,3.9,97.4-5.2,143.6-23.2c5.3,20.6,10.7,41.2,16,61.8c-65.6,23.3-135.9,32.1-204.9,22.3c-70.6-10.1-139.5-44.3-182.7-100.9
			c-34.8-45.6-51.5-101.6-55.1-158.8c-7.1-111.5,26.1-229.4,126-289.9c94.6-57.2,216.9-68.8,319.3-26c-5.8,21.1-11.6,42.1-17.4,63.2
			c-85.2-30.8-187.6-37.2-260,17.3C395.1,349.7,368.3,424.7,364.2,498z"/>
		<path class="st162" d="M365,497.3c-0.3,4.8-0.4,9.6-0.5,14.4C363.6,568,381,623,416.2,667.9c32.7,41.8,100.2,67.5,153.1,71.3
			c52.9,3.9,97.4-5.2,143.6-23.2c5.3,20.6,10.7,41.2,16,61.8C663.3,801.2,593,810,524.1,800.2c-70.6-10.1-139.5-44.3-182.7-100.9
			c-34.8-45.6-51.5-101.6-55.1-158.8c-7.1-111.5,26.1-229.4,126-289.9c94.6-57.2,216.9-68.8,319.3-26c-5.8,21.1-11.6,42.1-17.4,63.2
			c-85.2-30.8-187.6-37.2-260,17.3C395.8,348.9,369,424,365,497.3z"/>
		<path class="st163" d="M365.7,496.6c-0.3,4.8-0.4,9.6-0.5,14.4c-0.8,56.3,16.5,111.2,51.7,156.2c32.7,41.8,100.2,67.5,153.1,71.3
			c52.9,3.9,97.4-5.2,143.6-23.2c5.3,20.6,10.7,41.2,16,61.8c-65.6,23.3-135.9,32.1-204.9,22.3c-70.6-10.1-139.5-44.3-182.7-100.9
			c-34.8-45.6-51.5-101.6-55.1-158.8c-7.1-111.5,26.1-229.4,126-289.9c94.6-57.2,216.9-68.8,319.3-26c-5.8,21.1-11.6,42.1-17.4,63.2
			c-85.2-30.8-187.6-37.2-260,17.3C396.5,348.2,369.7,423.3,365.7,496.6z"/>
		<path class="st164" d="M366.4,495.9c-0.3,4.8-0.4,9.6-0.5,14.4c-0.8,56.3,16.5,111.2,51.7,156.2c32.7,41.8,100.2,67.5,153.1,71.3
			c52.9,3.9,97.4-5.2,143.6-23.2c5.3,20.6,10.7,41.2,16,61.8c-65.6,23.3-135.9,32.1-204.9,22.3c-70.6-10.1-139.5-44.3-182.7-100.9
			C308,652.2,291.3,596.2,287.6,539c-7.1-111.5,26.1-229.4,126-289.9c94.6-57.2,216.9-68.8,319.3-26c-5.8,21.1-11.6,42.1-17.4,63.2
			c-85.2-30.8-187.6-37.2-260,17.3C397.2,347.5,370.4,422.6,366.4,495.9z"/>
		<path class="st165" d="M367.1,495.2c-0.3,4.8-0.4,9.6-0.5,14.4c-0.8,56.3,16.5,111.2,51.7,156.2c32.7,41.8,100.2,67.5,153.1,71.3
			c52.9,3.9,97.4-5.2,143.6-23.2c5.3,20.6,10.7,41.2,16,61.8C665.4,799,595.1,807.8,526.1,798c-70.6-10.1-139.5-44.3-182.7-100.9
			c-34.8-45.6-51.5-101.6-55.1-158.8c-7.1-111.5,26.1-229.4,126-289.9c94.6-57.2,216.9-68.8,319.3-26c-5.8,21.1-11.6,42.1-17.4,63.2
			c-85.2-30.8-187.6-37.2-260,17.3C397.9,346.8,371.1,421.9,367.1,495.2z"/>
		<path class="st166" d="M367.8,494.5c-0.3,4.8-0.4,9.6-0.5,14.4c-0.8,56.3,16.5,111.2,51.7,156.2c32.7,41.8,100.2,67.5,153.1,71.3
			s97.4-5.2,143.6-23.2c5.3,20.6,10.7,41.2,16,61.8c-65.6,23.3-135.9,32.1-204.9,22.3c-70.6-10.1-139.5-44.3-182.7-100.9
			c-34.8-45.6-51.5-101.6-55.1-158.8c-7-111.6,26.1-229.5,126-289.9c94.6-57.2,216.9-68.8,319.3-26c-5.8,21.1-11.6,42.1-17.4,63.2
			c-85.2-30.8-187.6-37.2-260,17.3C398.6,346.1,371.8,421.1,367.8,494.5z"/>
		<path class="st167" d="M368.5,493.8c-0.3,4.8-0.4,9.6-0.5,14.4c-0.8,56.3,16.5,111.2,51.7,156.2c32.7,41.8,100.2,67.5,153.1,71.3
			s97.4-5.2,143.6-23.2c5.3,20.6,10.7,41.2,16,61.8c-65.6,23.3-135.9,32.1-204.9,22.3c-70.6-10.1-139.5-44.3-182.7-100.9
			c-34.8-45.6-51.5-101.6-55.1-158.8c-7.1-111.5,26.1-229.4,126-289.9c94.6-57.2,216.9-68.8,319.3-26c-5.8,21.1-11.6,42.1-17.4,63.2
			c-85.2-30.8-187.6-37.2-260,17.3C399.3,345.4,372.5,420.4,368.5,493.8z"/>
		<path class="st168" d="M369.2,493.1c-0.3,4.8-0.4,9.6-0.5,14.4c-0.8,56.3,16.5,111.2,51.7,156.2c32.7,41.8,100.2,67.5,153.1,71.3
			s97.4-5.2,143.6-23.2c5.3,20.6,10.7,41.2,16,61.8c-65.6,23.3-135.9,32.1-204.9,22.3c-70.6-10.1-139.5-44.3-182.7-100.9
			c-34.8-45.6-51.5-101.6-55.1-158.8c-7.1-111.5,26.1-229.4,126-289.9c94.6-57.2,216.9-68.8,319.3-26c-5.8,21.1-11.6,42.1-17.4,63.2
			c-85.2-30.8-187.6-37.2-260,17.3C400,344.7,373.2,419.7,369.2,493.1z"/>
		<path class="st169" d="M369.9,492.4c-0.3,4.8-0.4,9.6-0.5,14.4c-0.8,56.3,16.5,111.2,51.7,156.2c32.7,41.8,100.2,67.5,153.1,71.3
			s97.4-5.2,143.6-23.2c5.3,20.6,10.7,41.2,16,61.8C668.3,796.2,597.9,805,529,795.2c-70.6-10.1-139.5-44.3-182.7-100.9
			c-34.8-45.6-51.5-101.6-55.1-158.8c-7.1-111.5,26.1-229.4,126-289.9c94.6-57.2,216.9-68.8,319.3-26c-5.8,21.1-11.6,42.1-17.4,63.2
			c-85.2-30.8-187.6-37.2-260,17.3C400.7,344,373.9,419,369.9,492.4z"/>
		<path class="st170" d="M370.6,491.7c-0.3,4.8-0.4,9.6-0.5,14.4c-0.8,56.3,16.5,111.2,51.7,156.2c32.7,41.8,100.2,67.5,153.1,71.3
			s97.4-5.2,143.6-23.2c5.3,20.6,10.7,41.2,16,61.8c-65.6,23.3-135.9,32.1-204.9,22.3c-70.6-10.1-139.5-44.3-182.7-100.9
			c-34.7-45.6-51.4-101.6-55-158.9c-7.1-111.5,26.1-229.4,126-289.9c94.6-57.2,216.9-68.8,319.3-26c-5.8,21.1-11.6,42.1-17.4,63.2
			c-85.2-30.8-187.6-37.2-260,17.3C401.4,343.3,374.6,418.3,370.6,491.7z"/>
		<path class="st171" d="M371.3,491c-0.3,4.8-0.4,9.6-0.5,14.4c-0.8,56.3,16.5,111.2,51.7,156.2c32.7,41.8,100.2,67.5,153.1,71.3
			c52.9,3.9,97.4-5.2,143.6-23.2c5.3,20.6,10.7,41.2,16,61.8c-65.6,23.3-135.9,32.1-204.9,22.3c-70.6-10.1-139.5-44.3-182.7-100.9
			c-34.8-45.6-51.5-101.6-55.1-158.8c-7.1-111.5,26.1-229.4,126-289.9c94.6-57.2,216.9-68.8,319.3-26c-5.8,21.1-11.6,42.1-17.4,63.2
			c-85.2-30.8-187.6-37.2-260,17.3C402.2,342.6,375.3,417.6,371.3,491z"/>
		<path class="st172" d="M372,490.3c-0.3,4.8-0.4,9.6-0.5,14.4c-0.8,56.3,16.5,111.2,51.7,156.2c32.7,41.8,100.2,67.5,153.1,71.3
			c53,3.8,97.5-5.2,143.7-23.2c5.3,20.6,10.7,41.2,16,61.8c-65.6,23.3-135.9,32.1-204.9,22.3c-70.6-10.1-139.5-44.3-182.7-100.9
			c-34.8-45.6-51.5-101.6-55.1-158.8c-7.1-111.5,26.1-229.4,126-289.9c94.6-57.2,216.9-68.8,319.3-26c-5.8,21.1-11.6,42.1-17.4,63.2
			c-85.2-30.8-187.6-37.2-260,17.3C402.9,341.9,376,416.9,372,490.3z"/>
		<path class="st173" d="M372.7,489.5c-0.3,4.8-0.4,9.6-0.5,14.4c-0.8,56.3,16.5,111.2,51.7,156.2c32.7,41.8,100.2,67.5,153.1,71.3
			c52.9,3.9,97.4-5.2,143.6-23.2c5.3,20.6,10.7,41.2,16,61.8c-65.6,23.3-135.9,32.1-204.9,22.3C461.1,782.2,392.2,748,349,691.4
			c-34.8-45.6-51.5-101.6-55.1-158.8c-7.1-111.5,26.1-229.4,126-289.9c94.6-57.2,216.9-68.8,319.3-26c-5.8,21.1-11.6,42.1-17.4,63.2
			c-85.2-30.8-187.6-37.2-260,17.3C403.6,341.2,376.8,416.2,372.7,489.5z"/>
		<path d="M373.5,488.8c-0.3,4.8-0.4,9.6-0.5,14.4c-0.8,56.3,16.5,111.2,51.7,156.2c32.7,41.8,100.2,67.5,153.1,71.3
			c52.9,3.9,97.4-5.2,143.6-23.2c5.3,20.6,10.7,41.2,16,61.8c-65.6,23.3-135.9,32.1-204.9,22.3c-70.6-10.1-139.5-44.3-182.7-100.9
			c-34.8-45.6-51.5-101.6-55.1-158.8c-7.1-111.5,26.1-229.4,126-289.9c94.6-57.2,216.9-68.8,319.3-26c-5.8,21.1-11.6,42.1-17.4,63.2
			c-85.2-30.8-187.6-37.2-260,17.3C404.3,340.4,377.5,415.5,373.5,488.8z"/>
	</g>
	<g id="C">
		<path class="st174" d="M373.7,488.8c-0.3,4.8-0.4,9.6-0.5,14.4c-0.8,56.3,16.5,111.2,51.7,156.2c32.7,41.8,100.2,67.5,153.1,71.3
			c52.9,3.9,97.4-5.2,143.6-23.2c5.3,20.6,10.7,41.2,16,61.8c-65.6,23.3-135.9,32.1-204.9,22.3c-70.6-10.1-139.5-44.3-182.7-100.9
			c-34.8-45.6-51.5-101.6-55.1-158.8c-7.1-111.5,26.1-229.4,126-289.9c94.6-57.2,216.9-68.8,319.3-26c-5.8,21.1-11.6,42.1-17.4,63.2
			c-85.2-30.8-187.6-37.2-260,17.3C404.5,340.4,377.7,415.5,373.7,488.8z"/>
		<path class="st174" d="M373.7,488.8c-0.3,4.8-0.4,9.6-0.5,14.4c-0.8,56.3,16.5,111.2,51.7,156.2c32.7,41.8,100.2,67.5,153.1,71.3
			c52.9,3.9,97.4-5.2,143.6-23.2c5.3,20.6,10.7,41.2,16,61.8c-65.6,23.3-135.9,32.1-204.9,22.3c-70.6-10.1-139.5-44.3-182.7-100.9
			c-34.8-45.6-51.5-101.6-55.1-158.8c-7.1-111.5,26.1-229.4,126-289.9c94.6-57.2,216.9-68.8,319.3-26c-5.8,21.1-11.6,42.1-17.4,63.2
			c-85.2-30.8-187.6-37.2-260,17.3C404.5,340.4,377.7,415.5,373.7,488.8z"/>
		<path class="st175" d="M420.9,242c-99.9,60.5-133,178.3-126,289.9c2.3,36.5,10,72.5,24.2,105.6l63-63c-6.3-23-9.4-47-9-71.2
			c0.1-4.8,0.2-9.6,0.5-14.4c4-73.4,30.8-148.4,89.2-192.3c62.8-47.3,148.3-48.7,225.4-28.1l51.8-51.8c0-0.2,0.1-0.4,0.1-0.5
			C637.8,173.2,515.5,184.8,420.9,242z"/>
	</g>
</g>
</svg>
