<?xml version="1.0" encoding="utf-8"?>
<!-- Generator: Adobe Illustrator 21.0.2, SVG Export Plug-In . SVG Version: 6.00 Build 0)  -->
<svg version="1.1" id="Layer_1" xmlns="http://www.w3.org/2000/svg" xmlns:xlink="http://www.w3.org/1999/xlink" x="0px" y="0px"
	 viewBox="0 0 1024 1024" style="enable-background:new 0 0 1024 1024;" xml:space="preserve">
<style type="text/css">
	.st0{fill:#ECF0F1;}
	.st1{fill:#2474A9;}
	.st2{fill:#34495E;}
</style>
<g id="Layer_2">
	<rect class="st0" width="1024" height="1024"/>
</g>
<g id="Logo">
	<g id="C">
		<path class="st1" d="M226.1,509.9c-0.1,2.5-0.2,5-0.3,7.5c-0.4,29.3,8.6,57.9,26.9,81.3c17,21.7,52.2,35.1,79.7,37.1
			s50.7-2.7,74.8-12.1c2.8,10.7,5.6,21.4,8.3,32.2c-34.2,12.1-70.8,16.7-106.7,11.6c-36.7-5.2-72.6-23-95.1-52.5
			c-18.1-23.7-26.8-52.9-28.7-82.7c-3.7-58.1,13.6-119.4,65.6-150.9c49.3-29.8,113-35.8,166.3-13.5c-3,11-6,21.9-9.1,32.9
			c-44.3-16-97.7-19.4-135.3,9C242.1,432.6,228.2,471.7,226.1,509.9z"/>
		<path class="st2" d="M250.7,381.4c-52,31.5-69.2,92.8-65.6,150.9c1.2,19,5.2,37.7,12.6,55l32.8-32.8c-3.3-12-4.9-24.5-4.7-37.1
			c0-2.5,0.1-5,0.3-7.5c2.1-38.2,16-77.3,46.4-100.1c32.7-24.6,77.2-25.4,117.4-14.7l27-27c0-0.1,0.1-0.2,0.1-0.3
			C363.6,345.6,299.9,351.6,250.7,381.4z"/>
	</g>
	<g>
		<polygon class="st1" points="839.4,502.2 748.1,502.2 748.1,410.9 721.7,410.9 721.7,502.2 630.4,502.2 630.4,528.6 721.7,528.6 
			721.7,619.9 748.1,619.9 748.1,528.6 839.4,528.6 		"/>
		<polygon class="st1" points="619.4,502.2 528.1,502.2 528.1,410.9 501.7,410.9 501.7,502.2 410.4,502.2 410.4,528.6 501.7,528.6 
			501.7,619.9 528.1,619.9 528.1,528.6 619.4,528.6 		"/>
		<g>
			<polygon class="st2" points="410.4,502.2 410.4,528.6 412.1,528.6 438.5,502.2 			"/>
			<polygon class="st2" points="528.1,412.6 528.1,411.1 527.9,410.9 501.7,410.9 501.7,439 			"/>
		</g>
		<g>
			<polygon class="st2" points="630.4,502.2 630.4,528.6 632.1,528.6 658.5,502.2 			"/>
			<polygon class="st2" points="748.1,412.6 748.1,411.1 747.9,410.9 721.7,410.9 721.7,439 			"/>
		</g>
	</g>
</g>
</svg>
