<?xml version="1.0" encoding="utf-8"?>
<!-- Generator: Adobe Illustrator 21.0.2, SVG Export Plug-In . SVG Version: 6.00 Build 0)  -->
<svg version="1.1" id="Layer_1" xmlns="http://www.w3.org/2000/svg" xmlns:xlink="http://www.w3.org/1999/xlink" x="0px" y="0px"
	 viewBox="0 0 1024 1024" style="enable-background:new 0 0 1024 1024;" xml:space="preserve">
<style type="text/css">
	.st0{fill:#FF9000;}
	.st1{opacity:0.25;}
	.st2{fill-opacity:0;}
	.st3{opacity:1.111111e-02;enable-background:new    ;}
	.st4{opacity:2.222222e-02;enable-background:new    ;}
	.st5{opacity:3.333334e-02;enable-background:new    ;}
	.st6{opacity:4.444445e-02;enable-background:new    ;}
	.st7{opacity:5.555556e-02;enable-background:new    ;}
	.st8{opacity:6.666667e-02;enable-background:new    ;}
	.st9{opacity:7.777778e-02;enable-background:new    ;}
	.st10{opacity:8.888889e-02;enable-background:new    ;}
	.st11{opacity:0.1;enable-background:new    ;}
	.st12{opacity:0.1111;enable-background:new    ;}
	.st13{opacity:0.1222;enable-background:new    ;}
	.st14{opacity:0.1333;enable-background:new    ;}
	.st15{opacity:0.1444;enable-background:new    ;}
	.st16{opacity:0.1556;enable-background:new    ;}
	.st17{opacity:0.1667;enable-background:new    ;}
	.st18{opacity:0.1778;enable-background:new    ;}
	.st19{opacity:0.1889;enable-background:new    ;}
	.st20{opacity:0.2;enable-background:new    ;}
	.st21{opacity:0.2111;enable-background:new    ;}
	.st22{opacity:0.2222;enable-background:new    ;}
	.st23{opacity:0.2333;enable-background:new    ;}
	.st24{opacity:0.2444;enable-background:new    ;}
	.st25{opacity:0.2556;enable-background:new    ;}
	.st26{opacity:0.2667;enable-background:new    ;}
	.st27{opacity:0.2778;enable-background:new    ;}
	.st28{opacity:0.2889;enable-background:new    ;}
	.st29{opacity:0.3;enable-background:new    ;}
	.st30{opacity:0.3111;enable-background:new    ;}
	.st31{opacity:0.3222;enable-background:new    ;}
	.st32{opacity:0.3333;enable-background:new    ;}
	.st33{opacity:0.3444;enable-background:new    ;}
	.st34{opacity:0.3556;enable-background:new    ;}
	.st35{opacity:0.3667;enable-background:new    ;}
	.st36{opacity:0.3778;enable-background:new    ;}
	.st37{opacity:0.3889;enable-background:new    ;}
	.st38{opacity:0.4;enable-background:new    ;}
	.st39{opacity:0.4111;enable-background:new    ;}
	.st40{opacity:0.4222;enable-background:new    ;}
	.st41{opacity:0.4333;enable-background:new    ;}
	.st42{opacity:0.4444;enable-background:new    ;}
	.st43{opacity:0.4556;enable-background:new    ;}
	.st44{opacity:0.4667;enable-background:new    ;}
	.st45{opacity:0.4778;enable-background:new    ;}
	.st46{opacity:0.4889;enable-background:new    ;}
	.st47{opacity:0.5;enable-background:new    ;}
	.st48{opacity:0.5111;enable-background:new    ;}
	.st49{opacity:0.5222;enable-background:new    ;}
	.st50{opacity:0.5333;enable-background:new    ;}
	.st51{opacity:0.5444;enable-background:new    ;}
	.st52{opacity:0.5556;enable-background:new    ;}
	.st53{opacity:0.5667;enable-background:new    ;}
	.st54{opacity:0.5778;enable-background:new    ;}
	.st55{opacity:0.5889;enable-background:new    ;}
	.st56{opacity:0.6;enable-background:new    ;}
	.st57{opacity:0.6111;enable-background:new    ;}
	.st58{opacity:0.6222;enable-background:new    ;}
	.st59{opacity:0.6333;enable-background:new    ;}
	.st60{opacity:0.6444;enable-background:new    ;}
	.st61{opacity:0.6556;enable-background:new    ;}
	.st62{opacity:0.6667;enable-background:new    ;}
	.st63{opacity:0.6778;enable-background:new    ;}
	.st64{opacity:0.6889;enable-background:new    ;}
	.st65{opacity:0.7;enable-background:new    ;}
	.st66{opacity:0.7111;enable-background:new    ;}
	.st67{opacity:0.7222;enable-background:new    ;}
	.st68{opacity:0.7333;enable-background:new    ;}
	.st69{opacity:0.7444;enable-background:new    ;}
	.st70{opacity:0.7556;enable-background:new    ;}
	.st71{opacity:0.7667;enable-background:new    ;}
	.st72{opacity:0.7778;enable-background:new    ;}
	.st73{opacity:0.7889;enable-background:new    ;}
	.st74{opacity:0.8;enable-background:new    ;}
	.st75{opacity:0.8111;enable-background:new    ;}
	.st76{opacity:0.8222;enable-background:new    ;}
	.st77{opacity:0.8333;enable-background:new    ;}
	.st78{opacity:0.8444;enable-background:new    ;}
	.st79{opacity:0.8556;enable-background:new    ;}
	.st80{opacity:0.8667;enable-background:new    ;}
	.st81{opacity:0.8778;enable-background:new    ;}
	.st82{opacity:0.8889;enable-background:new    ;}
	.st83{opacity:0.9;enable-background:new    ;}
	.st84{opacity:0.9111;enable-background:new    ;}
	.st85{opacity:0.9222;enable-background:new    ;}
	.st86{opacity:0.9333;enable-background:new    ;}
	.st87{opacity:0.9444;enable-background:new    ;}
	.st88{opacity:0.9556;enable-background:new    ;}
	.st89{opacity:0.9667;enable-background:new    ;}
	.st90{opacity:0.9778;enable-background:new    ;}
	.st91{opacity:0.9889;enable-background:new    ;}
	.st92{fill:#2474A9;}
	.st93{fill:#34495E;}
	.st94{opacity:0.4;fill:url(#SVGID_1_);enable-background:new    ;}
	.st95{opacity:0.4;fill:url(#SVGID_2_);enable-background:new    ;}
</style>
<g id="Layer_2">
	<rect class="st0" width="1024" height="1024"/>
</g>
<g id="Logo">
	<g class="st1">
		<path class="st2" d="M199.7,573.4c-0.1,2.5-0.2,5-0.3,7.5c-0.4,29.3,8.6,57.9,26.9,81.3c17,21.7,52.2,35.1,79.7,37.1
			s50.7-2.7,74.8-12.1c2.8,10.7,5.6,21.4,8.3,32.2c-34.2,12.1-70.8,16.7-106.7,11.6c-36.7-5.2-72.6-23-95.1-52.5
			c-18.1-23.7-26.8-52.9-28.7-82.7c-3.7-58.1,13.6-119.4,65.6-150.9c49.2-29.8,112.9-35.8,166.2-13.5c-3,11-6,21.9-9.1,32.9
			c-44.3-16-97.7-19.4-135.3,9C215.7,496.2,201.8,535.2,199.7,573.4z"/>
		<path class="st3" d="M200.4,572.7c-0.1,2.5-0.2,5-0.3,7.5c-0.4,29.3,8.6,57.9,26.9,81.3c17,21.7,52.2,35.1,79.7,37.1
			s50.7-2.7,74.8-12.1c2.8,10.7,5.6,21.4,8.3,32.2c-34.2,12.1-70.8,16.7-106.7,11.6c-36.7-5.2-72.6-23-95.1-52.5
			c-18.1-23.7-26.8-52.9-28.7-82.7c-3.7-58.1,13.6-119.4,65.6-150.9c49.2-29.8,112.9-35.8,166.2-13.5c-3,11-6,21.9-9.1,32.9
			c-44.3-16-97.7-19.4-135.3,9C216.4,495.4,202.5,534.5,200.4,572.7z"/>
		<path class="st4" d="M201.1,572c-0.1,2.5-0.2,5-0.3,7.5c-0.4,29.3,8.6,57.9,26.9,81.3c17,21.7,52.2,35.1,79.7,37.1
			s50.7-2.7,74.8-12.1c2.8,10.7,5.6,21.4,8.3,32.2c-34.2,12.1-70.8,16.7-106.7,11.6c-36.7-5.2-72.6-23-95.1-52.5
			c-18.1-23.7-26.8-52.9-28.7-82.7c-3.7-58.1,13.6-119.4,65.6-150.9c49.2-29.8,112.9-35.8,166.2-13.5c-3,11-6,21.9-9.1,32.9
			c-44.3-16-97.7-19.4-135.3,9C217.1,494.7,203.2,533.8,201.1,572z"/>
		<path class="st5" d="M201.8,571.3c-0.1,2.5-0.2,5-0.3,7.5c-0.4,29.3,8.6,57.9,26.9,81.3c17,21.7,52.2,35.1,79.7,37.1
			s50.7-2.7,74.8-12.1c2.8,10.7,5.6,21.4,8.3,32.2c-34.2,12.1-70.8,16.7-106.7,11.6c-36.7-5.2-72.6-23-95.1-52.5
			c-18.1-23.7-26.8-52.9-28.7-82.7c-3.7-58.1,13.6-119.4,65.6-150.9c49.2-29.8,112.9-35.8,166.2-13.5c-3,11-6,21.9-9.1,32.9
			c-44.3-16-97.7-19.4-135.3,9C217.8,494,203.9,533.1,201.8,571.3z"/>
		<path class="st6" d="M202.5,570.6c-0.1,2.5-0.2,5-0.3,7.5c-0.4,29.3,8.6,57.9,26.9,81.3c17,21.7,52.2,35.1,79.7,37.1
			s50.7-2.7,74.8-12.1c2.8,10.7,5.6,21.4,8.3,32.2c-34.2,12.1-70.8,16.7-106.7,11.6c-36.7-5.2-72.6-23-95.1-52.5
			C172,652,163.3,622.8,161.4,593c-3.7-58.1,13.6-119.4,65.6-150.9c49.2-29.8,112.9-35.8,166.2-13.5c-3,11-6,21.9-9.1,32.9
			c-44.3-16-97.7-19.4-135.3,9C218.5,493.3,204.6,532.4,202.5,570.6z"/>
		<path class="st7" d="M203.2,569.9c-0.1,2.5-0.2,5-0.3,7.5c-0.4,29.3,8.6,57.9,26.9,81.3c17,21.7,52.2,35.1,79.7,37.1
			s50.7-2.7,74.8-12.1c2.8,10.7,5.6,21.4,8.3,32.2c-34.2,12.1-70.8,16.7-106.7,11.6c-36.7-5.2-72.6-23-95.1-52.5
			c-18.1-23.7-26.8-52.9-28.7-82.7c-3.7-58.1,13.6-119.4,65.6-150.9c49.2-29.8,112.9-35.8,166.2-13.5c-3,11-6,21.9-9.1,32.9
			c-44.3-16-97.7-19.4-135.3,9C219.2,492.6,205.3,531.7,203.2,569.9z"/>
		<path class="st8" d="M203.9,569.2c-0.1,2.5-0.2,5-0.3,7.5c-0.4,29.3,8.6,57.9,26.9,81.3c17,21.7,52.2,35.1,79.7,37.1
			s50.7-2.7,74.8-12.1c2.8,10.7,5.6,21.4,8.3,32.2c-34.2,12.1-70.8,16.7-106.7,11.6c-36.7-5.2-72.6-23-95.1-52.5
			c-18.1-23.7-26.8-52.9-28.7-82.7c-3.7-58.1,13.6-119.4,65.6-150.9c49.2-29.8,112.9-35.8,166.2-13.5c-3,11-6,21.9-9.1,32.9
			c-44.3-16-97.7-19.4-135.3,9C219.9,491.9,206,531,203.9,569.2z"/>
		<path class="st9" d="M204.6,568.5c-0.1,2.5-0.2,5-0.3,7.5c-0.4,29.3,8.6,57.9,26.9,81.3c17,21.7,52.2,35.1,79.7,37.1
			s50.7-2.7,74.8-12.1c2.8,10.7,5.6,21.4,8.3,32.2c-34.2,12.1-70.8,16.7-106.7,11.6c-36.7-5.2-72.6-23-95.1-52.5
			c-18.1-23.7-26.8-52.9-28.7-82.7c-3.7-58.1,13.6-119.4,65.6-150.9c49.2-29.8,112.9-35.8,166.2-13.5c-3,11-6,21.9-9.1,32.9
			c-44.3-16-97.7-19.4-135.3,9C220.6,491.2,206.7,530.3,204.6,568.5z"/>
		<path class="st10" d="M205.3,567.8c-0.1,2.5-0.2,5-0.3,7.5c-0.4,29.3,8.6,57.9,26.9,81.3c17,21.7,52.2,35.1,79.7,37.1
			s50.7-2.7,74.8-12.1c2.8,10.7,5.6,21.4,8.3,32.2c-34.2,12.1-70.8,16.7-106.7,11.6c-36.7-5.2-72.6-23-95.1-52.5
			c-18.1-23.7-26.8-52.9-28.7-82.7c-3.7-58.1,13.6-119.4,65.6-150.9c49.2-29.8,112.9-35.8,166.2-13.5c-3,11-6,21.9-9.1,32.9
			c-44.3-16-97.7-19.4-135.3,9C221.3,490.5,207.4,529.6,205.3,567.8z"/>
		<path class="st11" d="M206,567.1c-0.1,2.5-0.2,5-0.3,7.5c-0.4,29.3,8.6,57.9,26.9,81.3c17,21.7,52.2,35.1,79.7,37.1
			s50.7-2.7,74.8-12.1c2.8,10.7,5.6,21.4,8.3,32.2c-34.2,12.1-70.8,16.7-106.7,11.6c-36.7-5.2-72.6-23-95.1-52.5
			c-18.1-23.7-26.8-52.9-28.7-82.7c-3.7-58.1,13.6-119.4,65.6-150.9c49.2-29.8,112.9-35.8,166.2-13.5c-3,11-6,21.9-9.1,32.9
			c-44.3-16-97.7-19.4-135.3,9C222.1,489.8,208.1,528.9,206,567.1z"/>
		<path class="st12" d="M206.7,566.4c-0.1,2.5-0.2,5-0.3,7.5c-0.4,29.3,8.6,57.9,26.9,81.3c17,21.7,52.2,35.1,79.7,37.1
			s50.7-2.7,74.8-12.1c2.8,10.7,5.6,21.4,8.3,32.2c-34.2,12.1-70.8,16.7-106.7,11.6c-36.7-5.2-72.6-23-95.1-52.5
			c-18.1-23.7-26.8-52.9-28.7-82.7c-3.7-58.1,13.6-119.4,65.6-150.9c49.2-29.8,112.9-35.8,166.2-13.5c-3,11-6,21.9-9.1,32.9
			c-44.3-16-97.7-19.4-135.3,9C222.8,489.1,208.8,528.2,206.7,566.4z"/>
		<path class="st13" d="M207.4,565.7c-0.1,2.5-0.2,5-0.3,7.5c-0.4,29.3,8.6,57.9,26.9,81.3c17,21.7,52.2,35.1,79.7,37.1
			s50.7-2.7,74.8-12.1c2.8,10.7,5.6,21.4,8.3,32.2c-34.2,12.1-70.8,16.7-106.7,11.6c-36.7-5.2-72.6-23-95.1-52.5
			c-18.1-23.7-26.8-52.9-28.7-82.7C162.8,530,180,468.6,232,437.2c49.2-29.8,112.9-35.8,166.2-13.5c-3,11-6,21.9-9.1,32.9
			c-44.3-16-97.7-19.4-135.3,9C223.5,488.4,209.5,527.5,207.4,565.7z"/>
		<path class="st14" d="M208.1,564.9c-0.1,2.5-0.2,5-0.3,7.5c-0.4,29.3,8.6,57.9,26.9,81.3c17,21.7,52.2,35.1,79.7,37.1
			s50.7-2.7,74.8-12.1c2.8,10.7,5.6,21.4,8.3,32.2c-34.2,12.1-70.8,16.7-106.7,11.6c-36.7-5.2-72.6-23-95.1-52.5
			c-18.1-23.7-26.8-52.9-28.7-82.7c-3.7-58.1,13.6-119.4,65.6-150.9c49.2-29.8,112.9-35.8,166.2-13.5c-3,11-6,21.9-9.1,32.9
			c-44.3-16-97.7-19.4-135.3,9C224.2,487.7,210.2,526.8,208.1,564.9z"/>
		<path class="st15" d="M208.8,564.2c-0.1,2.5-0.2,5-0.3,7.5c-0.4,29.3,8.6,57.9,26.9,81.3c17,21.7,52.2,35.1,79.7,37.1
			c27.5,2,50.7-2.7,74.8-12.1c2.8,10.7,5.6,21.4,8.3,32.2c-34.2,12.1-70.8,16.7-106.7,11.6c-36.7-5.2-72.6-23-95.1-52.5
			c-18.1-23.7-26.8-52.9-28.7-82.7c-3.7-58.1,13.6-119.4,65.6-150.9c49.2-29.8,112.9-35.8,166.2-13.5c-3,11-6,21.9-9.1,32.9
			c-44.3-16-97.7-19.4-135.3,9C224.9,487,210.9,526.1,208.8,564.2z"/>
		<path class="st16" d="M209.5,563.5c-0.1,2.5-0.2,5-0.3,7.5c-0.4,29.3,8.6,57.9,26.9,81.3c17,21.7,52.2,35.1,79.7,37.1
			s50.7-2.7,74.8-12.1c2.8,10.7,5.6,21.4,8.3,32.2c-34.2,12.1-70.8,16.7-106.7,11.6c-36.7-5.2-72.6-23-95.1-52.5
			c-18.1-23.7-26.8-52.9-28.7-82.7C164.7,527.8,182,466.5,234,435c49.2-29.8,112.9-35.8,166.2-13.5c-3,11-6,21.9-9.1,32.9
			c-44.3-16-97.7-19.4-135.3,9C225.6,486.3,211.6,525.4,209.5,563.5z"/>
		<path class="st17" d="M210.2,562.8c-0.1,2.5-0.2,5-0.3,7.5c-0.4,29.3,8.6,57.9,26.9,81.3c17,21.7,52.2,35.1,79.7,37.1
			s50.7-2.7,74.8-12.1c2.8,10.7,5.6,21.4,8.3,32.2c-34.2,12.1-70.8,16.7-106.7,11.6c-36.7-5.2-72.6-23-95.1-52.5
			c-18.1-23.7-26.8-52.9-28.7-82.7c-3.7-58.1,13.6-119.4,65.6-150.9c49.2-29.8,112.9-35.8,166.2-13.5c-3,11-6,21.9-9.1,32.9
			c-44.3-16-97.7-19.4-135.3,9C226.3,485.6,212.3,524.6,210.2,562.8z"/>
		<path class="st18" d="M210.9,562.1c-0.1,2.5-0.2,5-0.3,7.5c-0.4,29.3,8.6,57.9,26.9,81.3c17,21.7,52.2,35.1,79.7,37.1
			s50.7-2.7,74.8-12.1c2.8,10.7,5.6,21.4,8.3,32.2c-34.2,12.1-70.8,16.7-106.7,11.6c-36.7-5.2-72.6-23-95.1-52.5
			c-18.1-23.7-26.8-52.9-28.7-82.7c-3.7-58.1,13.6-119.4,65.6-150.9c49.2-29.8,112.9-35.8,166.2-13.5c-3,11-6,21.9-9.1,32.9
			c-44.3-16-97.7-19.4-135.3,9C227,484.9,213,523.9,210.9,562.1z"/>
		<path class="st19" d="M211.6,561.4c-0.1,2.5-0.2,5-0.3,7.5c-0.4,29.3,8.6,57.9,26.9,81.3c17,21.7,52.2,35.1,79.7,37.1
			s50.7-2.7,74.8-12.1c2.8,10.7,5.6,21.4,8.3,32.2c-34.2,12.1-70.8,16.7-106.7,11.6c-36.7-5.2-72.6-23-95.1-52.5
			c-18.1-23.7-26.8-52.9-28.7-82.7c-3.7-58.1,13.6-119.4,65.6-150.9c49.2-29.8,112.9-35.8,166.2-13.5c-3,11-6,21.9-9.1,32.9
			c-44.3-16-97.7-19.4-135.3,9C227.7,484.2,213.7,523.2,211.6,561.4z"/>
		<path class="st20" d="M212.3,560.7c-0.1,2.5-0.2,5-0.3,7.5c-0.4,29.3,8.6,57.9,26.9,81.3c17,21.7,52.2,35.1,79.7,37.1
			c27.5,2,50.7-2.7,74.8-12.1c2.8,10.7,5.6,21.4,8.3,32.2c-34.2,12.1-70.8,16.7-106.7,11.6c-36.7-5.2-72.6-23-95.1-52.5
			c-18.1-23.7-26.8-52.9-28.7-82.7c-3.7-58.1,13.6-119.4,65.6-150.9c49.2-29.8,112.9-35.8,166.2-13.5c-3,11-6,21.9-9.1,32.9
			c-44.3-16-97.7-19.4-135.3,9C228.4,483.5,214.4,522.5,212.3,560.7z"/>
		<path class="st21" d="M213.1,560c-0.1,2.5-0.2,5-0.3,7.5c-0.4,29.3,8.6,57.9,26.9,81.3c17,21.7,52.2,35.1,79.7,37.1
			s50.7-2.7,74.8-12.1c2.8,10.7,5.6,21.4,8.3,32.2c-34.2,12.1-70.8,16.7-106.7,11.6c-36.7-5.2-72.6-23-95.1-52.5
			c-18.1-23.7-26.8-52.9-28.7-82.7c-3.7-58.1,13.6-119.4,65.6-150.9c49.2-29.8,112.9-35.8,166.2-13.5c-3,11-6,21.9-9.1,32.9
			c-44.3-16-97.7-19.4-135.3,9C229.1,482.8,215.1,521.8,213.1,560z"/>
		<path class="st22" d="M213.8,559.3c-0.1,2.5-0.2,5-0.3,7.5c-0.4,29.3,8.6,57.9,26.9,81.3c17,21.7,52.2,35.1,79.7,37.1
			c27.5,2,50.7-2.7,74.8-12.1c2.8,10.7,5.6,21.4,8.3,32.2c-34.2,12.1-70.8,16.7-106.7,11.6c-36.7-5.2-72.6-23-95.1-52.5
			c-18.1-23.7-26.8-52.9-28.7-82.7c-3.7-58.1,13.6-119.4,65.6-150.9c49.2-29.8,112.9-35.8,166.2-13.5c-3,11-6,21.9-9.1,32.9
			c-44.3-16-97.7-19.4-135.3,9C229.8,482.1,215.8,521.1,213.8,559.3z"/>
		<path class="st23" d="M214.5,558.6c-0.1,2.5-0.2,5-0.3,7.5c-0.4,29.3,8.6,57.9,26.9,81.3c17,21.7,52.2,35.1,79.7,37.1
			s50.7-2.7,74.8-12.1c2.8,10.7,5.6,21.4,8.3,32.2c-34.2,12.1-70.8,16.7-106.7,11.6c-36.7-5.2-72.6-23-95.1-52.5
			C184,640,175.3,610.8,173.4,581c-3.7-58.1,13.6-119.4,65.6-150.9c49.2-29.8,112.9-35.8,166.2-13.5c-3,11-6,21.9-9.1,32.9
			c-44.3-16-97.7-19.4-135.3,9C230.5,481.4,216.5,520.4,214.5,558.6z"/>
		<path class="st24" d="M215.2,557.9c-0.1,2.5-0.2,5-0.3,7.5c-0.4,29.3,8.6,57.9,26.9,81.3c17,21.7,52.2,35.1,79.7,37.1
			s50.7-2.7,74.8-12.1c2.8,10.7,5.6,21.4,8.3,32.2c-34.2,12.1-70.8,16.7-106.7,11.6c-36.7-5.2-72.6-23-95.1-52.5
			c-18.1-23.7-26.8-52.9-28.7-82.7c-3.7-58.1,13.6-119.4,65.6-150.9c49.2-29.8,112.9-35.8,166.2-13.5c-3,11-6,21.9-9.1,32.9
			c-44.3-16-97.7-19.4-135.3,9C231.2,480.7,217.3,519.7,215.2,557.9z"/>
		<path class="st25" d="M215.9,557.2c-0.1,2.5-0.2,5-0.3,7.5c-0.4,29.3,8.6,57.9,26.9,81.3c17,21.7,52.2,35.1,79.7,37.1
			s50.7-2.7,74.8-12.1c2.8,10.7,5.6,21.4,8.3,32.2c-34.2,12.1-70.8,16.7-106.7,11.6c-36.7-5.2-72.6-23-95.1-52.5
			c-18.1-23.7-26.8-52.9-28.7-82.7c-3.7-58.1,13.6-119.4,65.6-150.9c49.2-29.8,112.9-35.8,166.2-13.5c-3,11-6,21.9-9.1,32.9
			c-44.3-16-97.7-19.4-135.3,9C231.9,479.9,218,519,215.9,557.2z"/>
		<path class="st26" d="M216.6,556.5c-0.1,2.5-0.2,5-0.3,7.5c-0.4,29.3,8.6,57.9,26.9,81.3c17,21.7,52.2,35.1,79.7,37.1
			s50.7-2.7,74.8-12.1c2.8,10.7,5.6,21.4,8.3,32.2c-34.2,12.1-70.8,16.7-106.7,11.6c-36.7-5.2-72.6-23-95.1-52.5
			c-18.1-23.7-26.8-52.9-28.7-82.7c-3.7-58.1,13.6-119.4,65.6-150.9c49.2-29.8,112.9-35.8,166.2-13.5c-3,11-6,21.9-9.1,32.9
			c-44.3-16-97.7-19.4-135.3,9C232.6,479.2,218.7,518.3,216.6,556.5z"/>
		<path class="st27" d="M217.3,555.8c-0.1,2.5-0.2,5-0.3,7.5c-0.4,29.3,8.6,57.9,26.9,81.3c17,21.7,52.2,35.1,79.7,37.1
			c27.5,2,50.7-2.7,74.8-12.1c2.8,10.7,5.6,21.4,8.3,32.2c-34.2,12.1-70.8,16.7-106.7,11.6c-36.7-5.2-72.6-23-95.1-52.5
			c-18.1-23.7-26.8-52.9-28.7-82.7c-3.7-58.1,13.6-119.4,65.6-150.9c49.2-29.8,112.9-35.8,166.2-13.5c-3,11-6,21.9-9.1,32.9
			c-44.3-16-97.7-19.4-135.3,9C233.3,478.5,219.4,517.6,217.3,555.8z"/>
		<path class="st28" d="M218,555.1c-0.1,2.5-0.2,5-0.3,7.5c-0.4,29.3,8.6,57.9,26.9,81.3c17,21.7,52.2,35.1,79.7,37.1
			s50.7-2.7,74.8-12.1c2.8,10.7,5.6,21.4,8.3,32.2c-34.2,12.1-70.8,16.7-106.7,11.6c-36.7-5.2-72.6-23-95.1-52.5
			c-18.1-23.7-26.8-52.9-28.7-82.7c-3.7-58.1,13.6-119.4,65.6-150.9c49.2-29.8,112.9-35.8,166.2-13.5c-3,11-6,21.9-9.1,32.9
			c-44.3-16-97.7-19.4-135.3,9C234,477.8,220.1,516.9,218,555.1z"/>
		<path class="st29" d="M218.7,554.4c-0.1,2.5-0.2,5-0.3,7.5c-0.4,29.3,8.6,57.9,26.9,81.3c17,21.7,52.2,35.1,79.7,37.1
			s50.7-2.7,74.8-12.1c2.8,10.7,5.6,21.4,8.3,32.2c-34.2,12.1-70.8,16.7-106.7,11.6c-36.7-5.2-72.6-23-95.1-52.5
			c-18.1-23.7-26.8-52.9-28.7-82.7c-3.7-58.1,13.6-119.4,65.6-150.9c49.2-29.8,112.9-35.8,166.2-13.5c-3,11-6,21.9-9.1,32.9
			c-44.3-16-97.7-19.4-135.3,9C234.7,477.1,220.8,516.2,218.7,554.4z"/>
		<path class="st30" d="M219.4,553.7c-0.1,2.5-0.2,5-0.3,7.5c-0.4,29.3,8.6,57.9,26.9,81.3c17,21.7,52.2,35.1,79.7,37.1
			s50.7-2.7,74.8-12.1c2.8,10.7,5.6,21.4,8.3,32.2c-34.2,12.1-70.8,16.7-106.7,11.6c-36.7-5.2-72.6-23-95.1-52.5
			c-18.1-23.7-26.8-52.9-28.7-82.7C174.7,518,192,456.7,244,425.2c49.2-29.8,112.9-35.8,166.2-13.5c-3,11-6,21.9-9.1,32.9
			c-44.3-16-97.7-19.4-135.3,9C235.4,476.4,221.5,515.5,219.4,553.7z"/>
		<path class="st31" d="M220.1,553c-0.1,2.5-0.2,5-0.3,7.5c-0.4,29.3,8.6,57.9,26.9,81.3c17,21.7,52.2,35.1,79.7,37.1
			s50.7-2.7,74.8-12.1c2.8,10.7,5.6,21.4,8.3,32.2c-34.2,12.1-70.8,16.7-106.7,11.6c-36.7-5.2-72.6-23-95.1-52.5
			c-18.1-23.7-26.8-52.9-28.7-82.7c-3.7-58.1,13.6-119.4,65.6-150.9c49.2-29.8,112.9-35.8,166.2-13.5c-3,11-6,21.9-9.1,32.9
			c-44.3-16-97.7-19.4-135.3,9C236.1,475.7,222.2,514.8,220.1,553z"/>
		<path class="st32" d="M220.8,552.3c-0.1,2.5-0.2,5-0.3,7.5c-0.4,29.3,8.6,57.9,26.9,81.3c17,21.7,52.2,35.1,79.7,37.1
			c27.5,2,50.7-2.7,74.8-12.1c2.8,10.7,5.6,21.4,8.3,32.2c-34.2,12.1-70.8,16.7-106.7,11.6c-36.7-5.2-72.6-23-95.1-52.5
			c-18.1-23.7-26.8-52.9-28.7-82.7c-3.7-58.1,13.6-119.4,65.6-150.9c49.2-29.8,112.9-35.8,166.2-13.5c-3,11-6,21.9-9.1,32.9
			c-44.3-16-97.7-19.4-135.3,9C236.8,475,222.9,514.1,220.8,552.3z"/>
		<path class="st33" d="M221.5,551.6c-0.1,2.5-0.2,5-0.3,7.5c-0.4,29.3,8.6,57.9,26.9,81.3c17,21.7,52.2,35.1,79.7,37.1
			s50.7-2.7,74.8-12.1c2.8,10.7,5.6,21.4,8.3,32.2c-34.2,12.1-70.8,16.7-106.7,11.6c-36.7-5.2-72.6-23-95.1-52.5
			C191,633,182.3,603.8,180.4,574c-3.7-58.1,13.6-119.4,65.6-150.9c49.2-29.8,112.9-35.8,166.2-13.5c-3,11-6,21.9-9.1,32.9
			c-44.3-16-97.7-19.4-135.3,9C237.6,474.3,223.6,513.4,221.5,551.6z"/>
		<path class="st34" d="M222.2,550.9c-0.1,2.5-0.2,5-0.3,7.5c-0.4,29.3,8.6,57.9,26.9,81.3c17,21.7,52.2,35.1,79.7,37.1
			s50.7-2.7,74.8-12.1c2.8,10.7,5.6,21.4,8.3,32.2c-34.2,12.1-70.8,16.7-106.7,11.6c-36.7-5.2-72.6-23-95.1-52.5
			c-18.1-23.7-26.8-52.9-28.7-82.7c-3.7-58.1,13.6-119.4,65.6-150.9c49.2-29.8,112.9-35.8,166.2-13.5c-3,11-6,21.9-9.1,32.9
			c-44.3-16-97.7-19.4-135.3,9C238.3,473.6,224.3,512.7,222.2,550.9z"/>
		<path class="st35" d="M222.9,550.2c-0.1,2.5-0.2,5-0.3,7.5c-0.4,29.3,8.6,57.9,26.9,81.3c17,21.7,52.2,35.1,79.7,37.1
			S380,673.4,404,664c2.8,10.7,5.6,21.4,8.3,32.2c-34.2,12.1-70.8,16.7-106.7,11.6c-36.7-5.2-72.6-23-95.1-52.5
			c-18.1-23.7-26.8-52.9-28.7-82.7c-3.7-58.1,13.6-119.4,65.6-150.9c49.2-29.8,112.9-35.8,166.2-13.5c-3,11-6,21.9-9.1,32.9
			c-44.3-16-97.7-19.4-135.3,9C239,472.9,225,512,222.9,550.2z"/>
		<path class="st36" d="M223.6,549.4c-0.1,2.5-0.2,5-0.3,7.5c-0.4,29.3,8.6,57.9,26.9,81.3c17,21.7,52.2,35.1,79.7,37.1
			s50.7-2.7,74.8-12.1c2.8,10.7,5.6,21.4,8.3,32.2c-34.2,12.1-70.8,16.7-106.7,11.6c-36.7-5.2-72.6-23-95.1-52.5
			c-18.1-23.7-26.8-52.9-28.7-82.7c-3.7-58.1,13.6-119.4,65.6-150.9c49.2-29.8,112.9-35.8,166.2-13.5c-3,11-6,21.9-9.1,32.9
			c-44.3-16-97.7-19.4-135.3,9C239.7,472.2,225.7,511.3,223.6,549.4z"/>
		<path class="st37" d="M224.3,548.7c-0.1,2.5-0.2,5-0.3,7.5c-0.4,29.3,8.6,57.9,26.9,81.3c17,21.7,52.2,35.1,79.7,37.1
			s50.7-2.7,74.8-12.1c2.8,10.7,5.6,21.4,8.3,32.2c-34.2,12.1-70.8,16.7-106.7,11.6c-36.7-5.2-72.6-23-95.1-52.5
			c-18.1-23.7-26.8-52.9-28.7-82.7c-3.7-58.1,13.6-119.4,65.6-150.9c49.2-29.8,112.9-35.8,166.2-13.5c-3,11-6,21.9-9.1,32.9
			c-44.3-16-97.7-19.4-135.3,9C240.4,471.5,226.4,510.6,224.3,548.7z"/>
		<path class="st38" d="M225,548c-0.1,2.5-0.2,5-0.3,7.5c-0.4,29.3,8.6,57.9,26.9,81.3c17,21.7,52.2,35.1,79.7,37.1
			s50.7-2.7,74.8-12.1c2.8,10.7,5.6,21.4,8.3,32.2c-34.2,12.1-70.8,16.7-106.7,11.6c-36.7-5.2-72.6-23-95.1-52.5
			c-18.1-23.7-26.8-52.9-28.7-82.7c-3.7-58.1,13.6-119.4,65.6-150.9c49.2-29.8,112.9-35.8,166.2-13.5c-3,11-6,21.9-9.1,32.9
			c-44.3-16-97.7-19.4-135.3,9C241.1,470.8,227.1,509.9,225,548z"/>
		<path class="st39" d="M225.7,547.3c-0.1,2.5-0.2,5-0.3,7.5c-0.4,29.3,8.6,57.9,26.9,81.3c17,21.7,52.2,35.1,79.7,37.1
			s50.7-2.7,74.8-12.1c2.8,10.7,5.6,21.4,8.3,32.2c-34.2,12.1-70.8,16.7-106.7,11.6c-36.7-5.2-72.6-23-95.1-52.5
			c-18.1-23.7-26.8-52.9-28.7-82.7c-3.7-58.1,13.6-119.4,65.6-150.9c49.2-29.8,112.9-35.8,166.2-13.5c-3,11-6,21.9-9.1,32.9
			c-44.3-16-97.7-19.4-135.3,9C241.8,470.1,227.8,509.1,225.7,547.3z"/>
		<path class="st40" d="M226.4,546.6c-0.1,2.5-0.2,5-0.3,7.5c-0.4,29.3,8.6,57.9,26.9,81.3c17,21.7,52.2,35.1,79.7,37.1
			s50.7-2.7,74.8-12.1c2.8,10.7,5.6,21.4,8.3,32.2c-34.2,12.1-70.8,16.7-106.7,11.6c-36.7-5.2-72.6-23-95.1-52.5
			c-18-23.7-26.7-52.9-28.5-82.7c-3.7-58,13.5-119.4,65.5-150.9c49.2-29.8,112.9-35.8,166.2-13.5c-3,11-6,21.9-9.1,32.9
			c-44.3-16-97.7-19.4-135.3,9C242.5,469.4,228.5,508.4,226.4,546.6z"/>
		<path class="st41" d="M227.1,545.9c-0.1,2.5-0.2,5-0.3,7.5c-0.4,29.3,8.6,57.9,26.9,81.3c17,21.7,52.2,35.1,79.7,37.1
			s50.7-2.7,74.8-12.1c2.8,10.7,5.6,21.4,8.3,32.2c-34.2,12.1-70.8,16.7-106.7,11.6c-36.7-5.2-72.6-23-95.1-52.5
			c-18.1-23.7-26.8-52.9-28.7-82.7c-3.7-58.1,13.6-119.4,65.6-150.9c49.2-29.8,112.9-35.8,166.2-13.5c-3,11-6,21.9-9.1,32.9
			c-44.3-16-97.7-19.4-135.3,9C243.2,468.7,229.2,507.7,227.1,545.9z"/>
		<path class="st42" d="M227.8,545.2c-0.1,2.5-0.2,5-0.3,7.5c-0.4,29.3,8.6,57.9,26.9,81.3c17,21.7,52.2,35.1,79.7,37.1
			s50.7-2.7,74.8-12.1c2.8,10.7,5.6,21.4,8.3,32.2c-34.2,12.1-70.8,16.7-106.7,11.6c-36.7-5.2-72.6-23-95.1-52.5
			c-18.1-23.7-26.8-52.9-28.7-82.7c-3.7-58.1,13.6-119.4,65.6-150.9c49.2-29.8,112.9-35.8,166.2-13.5c-3,11-6,21.9-9.1,32.9
			c-44.3-16-97.7-19.4-135.3,9C243.9,468,229.9,507,227.8,545.2z"/>
		<path class="st43" d="M228.6,544.5c-0.1,2.5-0.2,5-0.3,7.5c-0.4,29.3,8.6,57.9,26.9,81.3c17,21.7,52.2,35.1,79.7,37.1
			s50.7-2.7,74.8-12.1c2.8,10.7,5.6,21.4,8.3,32.2c-34.2,12.1-70.8,16.7-106.7,11.6c-36.7-5.2-72.6-23-95.1-52.5
			c-18.1-23.7-26.8-52.9-28.7-82.7c-3.7-58.1,13.6-119.4,65.6-150.9c49.2-29.8,112.9-35.8,166.2-13.5c-3,11-6,21.9-9.1,32.9
			c-44.3-16-97.7-19.4-135.3,9C244.6,467.3,230.6,506.3,228.6,544.5z"/>
		<path class="st44" d="M229.3,543.8c-0.1,2.5-0.2,5-0.3,7.5c-0.4,29.3,8.6,57.9,26.9,81.3c17,21.7,52.2,35.1,79.7,37.1
			s50.7-2.7,74.8-12.1c2.8,10.7,5.6,21.4,8.3,32.2c-34.2,12.1-70.8,16.7-106.7,11.6c-36.7-5.2-72.6-23-95.1-52.5
			c-18.1-23.7-26.8-52.9-28.7-82.7c-3.7-58.1,13.6-119.4,65.6-150.9c49.2-29.8,112.9-35.8,166.2-13.5c-3,11-6,21.9-9.1,32.9
			c-44.3-16-97.7-19.4-135.3,9C245.3,466.6,231.3,505.6,229.3,543.8z"/>
		<path class="st45" d="M230,543.1c-0.1,2.5-0.2,5-0.3,7.5c-0.4,29.3,8.6,57.9,26.9,81.3c17,21.7,52.2,35.1,79.7,37.1
			c27.5,2,50.7-2.7,74.8-12.1c2.8,10.7,5.6,21.4,8.3,32.2c-34.2,12.1-70.8,16.7-106.7,11.6c-36.7-5.2-72.6-23-95.1-52.5
			c-18.1-23.7-26.8-52.9-28.7-82.7c-3.7-58.1,13.6-119.4,65.6-150.9c49.2-29.8,112.9-35.8,166.2-13.5c-3,11-6,21.9-9.1,32.9
			c-44.3-16-97.7-19.4-135.3,9C246,465.9,232,504.9,230,543.1z"/>
		<path class="st46" d="M230.7,542.4c-0.1,2.5-0.2,5-0.3,7.5c-0.4,29.3,8.6,57.9,26.9,81.3c17,21.7,52.2,35.1,79.7,37.1
			s50.7-2.7,74.8-12.1c2.8,10.7,5.6,21.4,8.3,32.2c-34.2,12.1-70.8,16.7-106.7,11.6c-36.7-5.2-72.6-23-95.1-52.5
			c-18.1-23.7-26.8-52.9-28.7-82.7c-3.7-58.1,13.6-119.4,65.6-150.9c49.2-29.8,112.9-35.8,166.2-13.5c-3,11-6,21.9-9.1,32.9
			c-44.3-16-97.7-19.4-135.3,9C246.7,465.2,232.8,504.2,230.7,542.4z"/>
		<path class="st47" d="M231.4,541.7c-0.1,2.5-0.2,5-0.3,7.5c-0.4,29.3,8.6,57.9,26.9,81.3c17,21.7,52.2,35.1,79.7,37.1
			s50.7-2.7,74.8-12.1c2.8,10.7,5.6,21.4,8.3,32.2c-34.2,12.1-70.8,16.7-106.7,11.6c-36.7-5.2-72.6-23-95.1-52.5
			c-18.1-23.7-26.8-52.9-28.7-82.7c-3.7-58.1,13.6-119.4,65.6-150.9c49.2-29.8,112.9-35.8,166.2-13.5c-3,11-6,21.9-9.1,32.9
			c-44.3-16-97.7-19.4-135.3,9C247.4,464.4,233.5,503.5,231.4,541.7z"/>
		<path class="st48" d="M232.1,541c-0.1,2.5-0.2,5-0.3,7.5c-0.4,29.3,8.6,57.9,26.9,81.3c17,21.7,52.2,35.1,79.7,37.1
			s50.7-2.7,74.8-12.1c2.8,10.7,5.6,21.4,8.3,32.2c-34.2,12.1-70.8,16.7-106.7,11.6c-36.7-5.2-72.6-23-95.1-52.5
			c-18.1-23.7-26.8-52.9-28.7-82.7c-3.7-58.1,13.6-119.4,65.6-150.9c49.2-29.8,112.9-35.8,166.2-13.5c-3,11-6,21.9-9.1,32.9
			c-44.3-16-97.7-19.4-135.3,9C248.1,463.7,234.2,502.8,232.1,541z"/>
		<path class="st49" d="M232.8,540.3c-0.1,2.5-0.2,5-0.3,7.5c-0.4,29.3,8.6,57.9,26.9,81.3c17,21.7,52.2,35.1,79.7,37.1
			s50.7-2.7,74.8-12.1c2.8,10.7,5.6,21.4,8.3,32.2c-34.2,12.1-70.8,16.7-106.7,11.6c-36.7-5.2-72.6-23-95.1-52.5
			c-18.1-23.7-26.8-52.9-28.7-82.7c-3.7-58.1,13.6-119.4,65.6-150.9c49.2-29.8,112.9-35.8,166.2-13.5c-3,11-6,21.9-9.1,32.9
			c-44.3-16-97.7-19.4-135.3,9C248.8,463,234.9,502.1,232.8,540.3z"/>
		<path class="st50" d="M233.5,539.6c-0.1,2.5-0.2,5-0.3,7.5c-0.4,29.3,8.6,57.9,26.9,81.3c17,21.7,52.2,35.1,79.7,37.1
			c27.5,2,50.7-2.7,74.8-12.1c2.8,10.7,5.6,21.4,8.3,32.2c-34.2,12.1-70.8,16.7-106.7,11.6c-36.7-5.2-72.6-23-95.1-52.5
			C203,621,194.3,591.8,192.4,562c-3.7-58.1,13.6-119.4,65.6-150.9c49.2-29.8,112.9-35.8,166.2-13.5c-3,11-6,21.9-9.1,32.9
			c-44.3-16-97.7-19.4-135.3,9C249.5,462.3,235.6,501.4,233.5,539.6z"/>
		<path class="st51" d="M234.2,538.9c-0.1,2.5-0.2,5-0.3,7.5c-0.4,29.3,8.6,57.9,26.9,81.3c17,21.7,52.2,35.1,79.7,37.1
			s50.7-2.7,74.8-12.1c2.8,10.7,5.6,21.4,8.3,32.2c-34.2,12.1-70.8,16.7-106.7,11.6c-36.7-5.2-72.6-23-95.1-52.5
			c-18.1-23.7-26.8-52.9-28.7-82.7c-3.7-58.1,13.6-119.4,65.6-150.9c49.2-29.8,112.9-35.8,166.2-13.5c-3,11-6,21.9-9.1,32.9
			c-44.3-16-97.7-19.4-135.3,9C250.2,461.6,236.3,500.7,234.2,538.9z"/>
		<path class="st52" d="M234.9,538.2c-0.1,2.5-0.2,5-0.3,7.5c-0.4,29.3,8.6,57.9,26.9,81.3c17,21.7,52.2,35.1,79.7,37.1
			s50.7-2.7,74.8-12.1c2.8,10.7,5.6,21.4,8.3,32.2c-34.2,12.1-70.8,16.7-106.7,11.6c-36.7-5.2-72.6-23-95.1-52.5
			c-18.1-23.7-26.8-52.9-28.7-82.7c-3.7-58.1,13.6-119.4,65.6-150.9c49.2-29.8,112.9-35.8,166.2-13.5c-3,11-6,21.9-9.1,32.9
			c-44.3-16-97.7-19.4-135.3,9C250.9,460.9,237,500,234.9,538.2z"/>
		<path class="st53" d="M235.6,537.5c-0.1,2.5-0.2,5-0.3,7.5c-0.4,29.3,8.6,57.9,26.9,81.3c17,21.7,52.2,35.1,79.7,37.1
			s50.7-2.7,74.8-12.1c2.8,10.7,5.6,21.4,8.3,32.2c-34.2,12.1-70.8,16.7-106.7,11.6c-36.7-5.2-72.6-23-95.1-52.5
			c-18.1-23.7-26.8-52.9-28.7-82.7c-3.7-58.1,13.6-119.4,65.6-150.9c49.2-29.8,112.9-35.8,166.2-13.5c-3,11-6,21.9-9.1,32.9
			c-44.3-16-97.7-19.4-135.3,9C251.6,460.2,237.7,499.3,235.6,537.5z"/>
		<path class="st54" d="M236.3,536.8c-0.1,2.5-0.2,5-0.3,7.5c-0.4,29.3,8.6,57.9,26.9,81.3c17,21.7,52.2,35.1,79.7,37.1
			c27.5,2,50.7-2.7,74.8-12.1c2.8,10.7,5.6,21.4,8.3,32.2c-34.2,12.1-70.8,16.7-106.7,11.6c-36.7-5.2-72.6-23-95.1-52.5
			c-18.1-23.7-26.8-52.9-28.7-82.7c-3.7-58.1,13.6-119.4,65.6-150.9c49.2-29.8,112.9-35.8,166.2-13.5c-3,11-6,21.9-9.1,32.9
			c-44.3-16-97.7-19.4-135.3,9C252.4,459.5,238.4,498.6,236.3,536.8z"/>
		<path class="st55" d="M237,536.1c-0.1,2.5-0.2,5-0.3,7.5c-0.4,29.3,8.6,57.9,26.9,81.3c17,21.7,52.2,35.1,79.7,37.1
			c27.5,2,50.7-2.7,74.8-12.1c2.8,10.7,5.6,21.4,8.3,32.2c-34.2,12.1-70.8,16.7-106.7,11.6c-36.7-5.2-72.6-23-95.1-52.5
			c-18.1-23.7-26.8-52.9-28.7-82.7c-3.7-58.1,13.6-119.4,65.6-150.9c49.2-29.8,112.9-35.8,166.2-13.5c-3,11-6,21.9-9.1,32.9
			c-44.3-16-97.7-19.4-135.3,9C253.1,458.8,239.1,497.9,237,536.1z"/>
		<path class="st56" d="M237.7,535.4c-0.1,2.5-0.2,5-0.3,7.5c-0.4,29.3,8.6,57.9,26.9,81.3c17,21.7,52.2,35.1,79.7,37.1
			s50.7-2.7,74.8-12.1c2.8,10.7,5.6,21.4,8.3,32.2c-34.2,12.1-70.8,16.7-106.7,11.6c-36.7-5.2-72.6-23-95.1-52.5
			c-18.1-23.7-26.8-52.9-28.7-82.7c-3.7-58.1,13.6-119.4,65.6-150.9c49.2-29.8,112.9-35.8,166.2-13.5c-3,11-6,21.9-9.1,32.9
			c-44.3-16-97.7-19.4-135.3,9C253.8,458.1,239.8,497.2,237.7,535.4z"/>
		<path class="st57" d="M238.4,534.7c-0.1,2.5-0.2,5-0.3,7.5c-0.4,29.3,8.6,57.9,26.9,81.3c17,21.7,52.2,35.1,79.7,37.1
			s50.7-2.7,74.8-12.1c2.8,10.7,5.6,21.4,8.3,32.2c-34.2,12.1-70.8,16.7-106.7,11.6c-36.7-5.2-72.6-23-95.1-52.5
			c-18.1-23.7-26.8-52.9-28.7-82.7C193.8,499,211,437.6,263,406.2c49.2-29.8,112.9-35.8,166.2-13.5c-3,11-6,21.9-9.1,32.9
			c-44.3-16-97.7-19.4-135.3,9C254.5,457.4,240.5,496.5,238.4,534.7z"/>
		<path class="st58" d="M239.1,533.9c-0.1,2.5-0.2,5-0.3,7.5c-0.4,29.3,8.6,57.9,26.9,81.3c17,21.7,52.2,35.1,79.7,37.1
			s50.7-2.7,74.8-12.1c2.8,10.7,5.6,21.4,8.3,32.2c-34.2,12.1-70.8,16.7-106.7,11.6c-36.7-5.2-72.6-23-95.1-52.5
			c-18.1-23.7-26.8-52.9-28.7-82.7c-3.7-58.1,13.6-119.4,65.6-150.9c49.2-29.8,112.9-35.8,166.2-13.5c-3,11-6,21.9-9.1,32.9
			c-44.3-16-97.7-19.4-135.3,9C255.2,456.7,241.2,495.8,239.1,533.9z"/>
		<path class="st59" d="M239.8,533.2c-0.1,2.5-0.2,5-0.3,7.5c-0.4,29.3,8.6,57.9,26.9,81.3c17,21.7,52.2,35.1,79.7,37.1
			c27.5,2,50.7-2.7,74.8-12.1c2.8,10.7,5.6,21.4,8.3,32.2c-34.2,12.1-70.8,16.7-106.7,11.6c-36.7-5.2-72.6-23-95.1-52.5
			c-18.1-23.7-26.8-52.9-28.7-82.7c-3.7-58.1,13.6-119.4,65.6-150.9c49.2-29.8,112.9-35.8,166.2-13.5c-3,11-6,21.9-9.1,32.9
			c-44.3-16-97.7-19.4-135.3,9C255.9,456,241.9,495.1,239.8,533.2z"/>
		<path class="st60" d="M240.5,532.5c-0.1,2.5-0.2,5-0.3,7.5c-0.4,29.3,8.6,57.9,26.9,81.3c17,21.7,52.2,35.1,79.7,37.1
			s50.7-2.7,74.8-12.1c2.8,10.7,5.6,21.4,8.3,32.2c-34.2,12.1-70.8,16.7-106.7,11.6c-36.7-5.2-72.6-23-95.1-52.5
			c-18.1-23.7-26.8-52.9-28.7-82.7C195.7,496.8,213,435.5,265,404c49.2-29.8,112.9-35.8,166.2-13.5c-3,11-6,21.9-9.1,32.9
			c-44.3-16-97.7-19.4-135.3,9C256.6,455.3,242.6,494.4,240.5,532.5z"/>
		<path class="st61" d="M241.2,531.8c-0.1,2.5-0.2,5-0.3,7.5c-0.4,29.3,8.6,57.9,26.9,81.3c17,21.7,52.2,35.1,79.7,37.1
			s50.7-2.7,74.8-12.1c2.8,10.7,5.6,21.4,8.3,32.2c-34.2,12.1-70.8,16.7-106.7,11.6c-36.7-5.2-72.6-23-95.1-52.5
			c-18.1-23.7-26.8-52.9-28.7-82.7c-3.7-58.1,13.6-119.4,65.6-150.9c49.2-29.8,112.9-35.8,166.2-13.5c-3,11-6,21.9-9.1,32.9
			c-44.3-16-97.7-19.4-135.3,9C257.3,454.6,243.3,493.6,241.2,531.8z"/>
		<path class="st62" d="M241.9,531.1c-0.1,2.5-0.2,5-0.3,7.5c-0.4,29.3,8.6,57.9,26.9,81.3c17,21.7,52.2,35.1,79.7,37.1
			s50.7-2.7,74.8-12.1c2.8,10.7,5.6,21.4,8.3,32.2c-34.2,12.1-70.8,16.7-106.7,11.6c-36.7-5.2-72.6-23-95.1-52.5
			c-18.1-23.7-26.8-52.9-28.7-82.7c-3.7-58.1,13.6-119.4,65.6-150.9c49.2-29.8,112.9-35.8,166.2-13.5c-3,11-6,21.9-9.1,32.9
			c-44.3-16-97.7-19.4-135.3,9C258,453.9,244,492.9,241.9,531.1z"/>
		<path class="st63" d="M242.6,530.4c-0.1,2.5-0.2,5-0.3,7.5c-0.4,29.3,8.6,57.9,26.9,81.3c17,21.7,52.2,35.1,79.7,37.1
			s50.7-2.7,74.8-12.1c2.8,10.7,5.6,21.4,8.3,32.2c-34.2,12.1-70.8,16.7-106.7,11.6c-36.7-5.2-72.6-23-95.1-52.5
			c-18.1-23.7-26.8-52.9-28.7-82.7c-3.7-58.1,13.6-119.4,65.6-150.9c49.2-29.8,112.9-35.8,166.2-13.5c-3,11-6,21.9-9.1,32.9
			c-44.3-16-97.7-19.4-135.3,9C258.7,453.2,244.7,492.2,242.6,530.4z"/>
		<path class="st64" d="M243.3,529.7c-0.1,2.5-0.2,5-0.3,7.5c-0.4,29.3,8.6,57.9,26.9,81.3c17,21.7,52.2,35.1,79.7,37.1
			c27.5,2,50.7-2.7,74.8-12.1c2.8,10.7,5.6,21.4,8.3,32.2c-34.2,12.1-70.8,16.7-106.7,11.6c-36.7-5.2-72.6-23-95.1-52.5
			c-18.1-23.7-26.8-52.9-28.7-82.7c-3.7-58.1,13.6-119.4,65.6-150.9c49.2-29.8,112.9-35.8,166.2-13.5c-3,11-6,21.9-9.1,32.9
			c-44.3-16-97.7-19.4-135.3,9C259.4,452.5,245.4,491.5,243.3,529.7z"/>
		<path class="st65" d="M244.1,529c-0.1,2.5-0.2,5-0.3,7.5c-0.4,29.3,8.6,57.9,26.9,81.3c17,21.7,52.2,35.1,79.7,37.1
			s50.7-2.7,74.8-12.1c2.8,10.7,5.6,21.4,8.3,32.2c-34.2,12.1-70.8,16.7-106.7,11.6c-36.7-5.2-72.6-23-95.1-52.5
			c-18.1-23.7-26.8-52.9-28.7-82.7c-3.7-58.1,13.6-119.4,65.6-150.9c49.2-29.8,112.9-35.8,166.2-13.5c-3,11-6,21.9-9.1,32.9
			c-44.3-16-97.7-19.4-135.3,9C260.1,451.8,246.1,490.8,244.1,529z"/>
		<path class="st66" d="M244.8,528.3c-0.1,2.5-0.2,5-0.3,7.5c-0.4,29.3,8.6,57.9,26.9,81.3c17,21.7,52.2,35.1,79.7,37.1
			c27.5,2,50.7-2.7,74.8-12.1c2.8,10.7,5.6,21.4,8.3,32.2c-34.2,12.1-70.8,16.7-106.7,11.6c-36.7-5.2-72.6-23-95.1-52.5
			c-18.1-23.7-26.8-52.9-28.7-82.7c-3.7-58.1,13.6-119.4,65.6-150.9c49.2-29.8,112.9-35.8,166.2-13.5c-3,11-6,21.9-9.1,32.9
			c-44.3-16-97.7-19.4-135.3,9C260.8,451.1,246.8,490.1,244.8,528.3z"/>
		<path class="st67" d="M245.5,527.6c-0.1,2.5-0.2,5-0.3,7.5c-0.4,29.3,8.6,57.9,26.9,81.3c17,21.7,52.2,35.1,79.7,37.1
			s50.7-2.7,74.8-12.1c2.8,10.7,5.6,21.4,8.3,32.2c-34.2,12.1-70.8,16.7-106.7,11.6c-36.7-5.2-72.6-23-95.1-52.5
			C215,609,206.3,579.8,204.4,550c-3.7-58.1,13.6-119.4,65.6-150.9c49.2-29.8,112.9-35.8,166.2-13.5c-3,11-6,21.9-9.1,32.9
			c-44.3-16-97.7-19.4-135.3,9C261.5,450.4,247.5,489.4,245.5,527.6z"/>
		<path class="st68" d="M246.2,526.9c-0.1,2.5-0.2,5-0.3,7.5c-0.4,29.3,8.6,57.9,26.9,81.3c17,21.7,52.2,35.1,79.7,37.1
			s50.7-2.7,74.8-12.1c2.8,10.7,5.6,21.4,8.3,32.2c-34.2,12.1-70.8,16.7-106.7,11.6c-36.7-5.2-72.6-23-95.1-52.5
			c-18.1-23.7-26.8-52.9-28.7-82.7c-3.7-58.1,13.6-119.4,65.6-150.9c49.2-29.8,112.9-35.8,166.2-13.5c-3,11-6,21.9-9.1,32.9
			c-44.3-16-97.7-19.4-135.3,9C262.2,449.7,248.3,488.7,246.2,526.9z"/>
		<path class="st69" d="M246.9,526.2c-0.1,2.5-0.2,5-0.3,7.5c-0.4,29.3,8.6,57.9,26.9,81.3c17,21.7,52.2,35.1,79.7,37.1
			s50.7-2.7,74.8-12.1c2.8,10.7,5.6,21.4,8.3,32.2c-34.2,12.1-70.8,16.7-106.7,11.6c-36.7-5.2-72.6-23-95.1-52.5
			c-18.1-23.7-26.8-52.9-28.7-82.7c-3.7-58.1,13.6-119.4,65.6-150.9c49.2-29.8,112.9-35.8,166.2-13.5c-3,11-6,21.9-9.1,32.9
			c-44.3-16-97.7-19.4-135.3,9C262.9,448.9,249,488,246.9,526.2z"/>
		<path class="st70" d="M247.6,525.5c-0.1,2.5-0.2,5-0.3,7.5c-0.4,29.3,8.6,57.9,26.9,81.3c17,21.7,52.2,35.1,79.7,37.1
			s50.7-2.7,74.8-12.1c2.8,10.7,5.6,21.4,8.3,32.2c-34.2,12.1-70.8,16.7-106.7,11.6c-36.7-5.2-72.6-23-95.1-52.5
			c-18.1-23.7-26.8-52.9-28.7-82.7c-3.7-58.1,13.6-119.4,65.6-150.9c49.2-29.8,112.9-35.8,166.2-13.5c-3,11-6,21.9-9.1,32.9
			c-44.3-16-97.7-19.4-135.3,9C263.6,448.2,249.7,487.3,247.6,525.5z"/>
		<path class="st71" d="M248.3,524.8c-0.1,2.5-0.2,5-0.3,7.5c-0.4,29.3,8.6,57.9,26.9,81.3c17,21.7,52.2,35.1,79.7,37.1
			c27.5,2,50.7-2.7,74.8-12.1c2.8,10.7,5.6,21.4,8.3,32.2c-34.2,12.1-70.8,16.7-106.7,11.6c-36.7-5.2-72.6-23-95.1-52.5
			c-18.1-23.7-26.8-52.9-28.7-82.7c-3.7-58.1,13.6-119.4,65.6-150.9c49.2-29.8,112.9-35.8,166.2-13.5c-3,11-6,21.9-9.1,32.9
			c-44.3-16-97.7-19.4-135.3,9C264.3,447.5,250.4,486.6,248.3,524.8z"/>
		<path class="st72" d="M249,524.1c-0.1,2.5-0.2,5-0.3,7.5c-0.4,29.3,8.6,57.9,26.9,81.3c17,21.7,52.2,35.1,79.7,37.1
			s50.7-2.7,74.8-12.1c2.8,10.7,5.6,21.4,8.3,32.2c-34.2,12.1-70.8,16.7-106.7,11.6c-36.7-5.2-72.6-23-95.1-52.5
			c-18.1-23.7-26.8-52.9-28.7-82.7c-3.7-58.1,13.6-119.4,65.6-150.9c49.2-29.8,112.9-35.8,166.2-13.5c-3,11-6,21.9-9.1,32.9
			c-44.3-16-97.7-19.4-135.3,9C265,446.8,251.1,485.9,249,524.1z"/>
		<path class="st73" d="M249.7,523.4c-0.1,2.5-0.2,5-0.3,7.5c-0.4,29.3,8.6,57.9,26.9,81.3c17,21.7,52.2,35.1,79.7,37.1
			s50.7-2.7,74.8-12.1c2.8,10.7,5.6,21.4,8.3,32.2c-34.2,12.1-70.8,16.7-106.7,11.6c-36.7-5.2-72.6-23-95.1-52.5
			c-18.1-23.7-26.8-52.9-28.7-82.7c-3.7-58.1,13.6-119.4,65.6-150.9c49.2-29.8,112.9-35.8,166.2-13.5c-3,11-6,21.9-9.1,32.9
			c-44.3-16-97.7-19.4-135.3,9C265.7,446.1,251.8,485.2,249.7,523.4z"/>
		<path class="st74" d="M250.4,522.7c-0.1,2.5-0.2,5-0.3,7.5c-0.4,29.3,8.6,57.9,26.9,81.3c17,21.7,52.2,35.1,79.7,37.1
			s50.7-2.7,74.8-12.1c2.8,10.7,5.6,21.4,8.3,32.2c-34.2,12.1-70.8,16.7-106.7,11.6c-36.7-5.2-72.6-23-95.1-52.5
			c-18.1-23.7-26.8-52.9-28.7-82.7C205.7,487,223,425.7,275,394.2c49.2-29.8,112.9-35.8,166.2-13.5c-3,11-6,21.9-9.1,32.9
			c-44.3-16-97.7-19.4-135.3,9C266.4,445.4,252.5,484.5,250.4,522.7z"/>
		<path class="st75" d="M251.1,522c-0.1,2.5-0.2,5-0.3,7.5c-0.4,29.3,8.6,57.9,26.9,81.3c17,21.7,52.2,35.1,79.7,37.1
			s50.7-2.7,74.8-12.1c2.8,10.7,5.6,21.4,8.3,32.2c-34.2,12.1-70.8,16.7-106.7,11.6c-36.7-5.2-72.6-23-95.1-52.5
			c-18.1-23.7-26.8-52.9-28.7-82.7c-3.7-58.1,13.6-119.4,65.6-150.9c49.2-29.8,112.9-35.8,166.2-13.5c-3,11-6,21.9-9.1,32.9
			c-44.3-16-97.7-19.4-135.3,9C267.1,444.7,253.2,483.8,251.1,522z"/>
		<path class="st76" d="M251.8,521.3c-0.1,2.5-0.2,5-0.3,7.5c-0.4,29.3,8.6,57.9,26.9,81.3c17,21.7,52.2,35.1,79.7,37.1
			s50.7-2.7,74.8-12.1c2.8,10.7,5.6,21.4,8.3,32.2c-34.2,12.1-70.8,16.7-106.7,11.6c-36.7-5.2-72.6-23-95.1-52.5
			c-18.1-23.7-26.8-52.9-28.7-82.7c-3.7-58.1,13.6-119.4,65.6-150.9c49.2-29.8,112.9-35.8,166.2-13.5c-3,11-6,21.9-9.1,32.9
			c-44.3-16-97.7-19.4-135.3,9C267.9,444,253.9,483.1,251.8,521.3z"/>
		<path class="st77" d="M252.5,520.6c-0.1,2.5-0.2,5-0.3,7.5c-0.4,29.3,8.6,57.9,26.9,81.3c17,21.7,52.2,35.1,79.7,37.1
			c27.5,2,50.7-2.7,74.8-12.1c2.8,10.7,5.6,21.4,8.3,32.2c-34.2,12.1-70.8,16.7-106.7,11.6c-36.7-5.2-72.6-23-95.1-52.5
			C222,602,213.3,572.8,211.4,543c-3.7-58.1,13.6-119.4,65.6-150.9c49.2-29.8,112.9-35.8,166.2-13.5c-3,11-6,21.9-9.1,32.9
			c-44.3-16-97.7-19.4-135.3,9C268.6,443.3,254.6,482.4,252.5,520.6z"/>
		<path class="st78" d="M253.2,519.9c-0.1,2.5-0.2,5-0.3,7.5c-0.4,29.3,8.6,57.9,26.9,81.3c17,21.7,52.2,35.1,79.7,37.1
			s50.7-2.7,74.8-12.1c2.8,10.7,5.6,21.4,8.3,32.2c-34.2,12.1-70.8,16.7-106.7,11.6c-36.7-5.2-72.6-23-95.1-52.5
			c-18.1-23.7-26.8-52.9-28.7-82.7c-3.7-58.1,13.6-119.4,65.6-150.9c49.2-29.8,112.9-35.8,166.2-13.5c-3,11-6,21.9-9.1,32.9
			c-44.3-16-97.7-19.4-135.3,9C269.3,442.6,255.3,481.7,253.2,519.9z"/>
		<path class="st79" d="M253.9,519.2c-0.1,2.5-0.2,5-0.3,7.5c-0.4,29.3,8.6,57.9,26.9,81.3c17,21.7,52.2,35.1,79.7,37.1
			s50.7-2.7,74.8-12.1c2.8,10.7,5.6,21.4,8.3,32.2c-34.2,12.1-70.8,16.7-106.7,11.6c-36.7-5.2-72.6-23-95.1-52.5
			c-18.1-23.7-26.8-52.9-28.7-82.7c-3.7-58.1,13.6-119.4,65.6-150.9c49.2-29.8,112.9-35.8,166.2-13.5c-3,11-6,21.9-9.1,32.9
			c-44.3-16-97.7-19.4-135.3,9C270,441.9,256,481,253.9,519.2z"/>
		<path class="st80" d="M254.6,518.4c-0.1,2.5-0.2,5-0.3,7.5c-0.4,29.3,8.6,57.9,26.9,81.3c17,21.7,52.2,35.1,79.7,37.1
			s50.7-2.7,74.8-12.1c2.8,10.7,5.6,21.4,8.3,32.2c-34.2,12.1-70.8,16.7-106.7,11.6c-36.7-5.2-72.6-23-95.1-52.5
			c-18.1-23.7-26.8-52.9-28.7-82.7c-3.7-58.1,13.6-119.4,65.6-150.9c49.2-29.8,112.9-35.8,166.2-13.5c-3,11-6,21.9-9.1,32.9
			c-44.3-16-97.7-19.4-135.3,9C270.7,441.2,256.7,480.3,254.6,518.4z"/>
		<path class="st81" d="M255.3,517.7c-0.1,2.5-0.2,5-0.3,7.5c-0.4,29.3,8.6,57.9,26.9,81.3c17,21.7,52.2,35.1,79.7,37.1
			s50.7-2.7,74.8-12.1c2.8,10.7,5.6,21.4,8.3,32.2c-34.2,12.1-70.8,16.7-106.7,11.6c-36.7-5.2-72.6-23-95.1-52.5
			c-18.1-23.7-26.8-52.9-28.7-82.7c-3.7-58.1,13.6-119.4,65.6-150.9c49.2-29.8,112.9-35.8,166.2-13.5c-3,11-6,21.9-9.1,32.9
			c-44.3-16-97.7-19.4-135.3,9C271.4,440.5,257.4,479.6,255.3,517.7z"/>
		<path class="st82" d="M256,517c-0.1,2.5-0.2,5-0.3,7.5c-0.4,29.3,8.6,57.9,26.9,81.3c17,21.7,52.2,35.1,79.7,37.1
			c27.5,2,50.7-2.7,74.8-12.1c2.8,10.7,5.6,21.4,8.3,32.2c-34.2,12.1-70.8,16.7-106.7,11.6c-36.7-5.2-72.6-23-95.1-52.5
			c-18.1-23.7-26.8-52.9-28.7-82.7c-3.7-58.1,13.6-119.4,65.6-150.9c49.2-29.8,112.9-35.8,166.2-13.5c-3,11-6,21.9-9.1,32.9
			c-44.3-16-97.7-19.4-135.3,9C272.1,439.8,258.1,478.9,256,517z"/>
		<path class="st83" d="M256.7,516.3c-0.1,2.5-0.2,5-0.3,7.5c-0.4,29.3,8.6,57.9,26.9,81.3c17,21.7,52.2,35.1,79.7,37.1
			s50.7-2.7,74.8-12.1c2.8,10.7,5.6,21.4,8.3,32.2c-34.2,12.1-70.8,16.7-106.7,11.6c-36.7-5.2-72.6-23-95.1-52.5
			c-18.1-23.7-26.8-52.9-28.7-82.7c-3.7-58.1,13.6-119.4,65.6-150.9c49.2-29.8,112.9-35.8,166.2-13.5c-3,11-6,21.9-9.1,32.9
			c-44.3-16-97.7-19.4-135.3,9C272.8,439.1,258.8,478.1,256.7,516.3z"/>
		<path class="st84" d="M257.4,515.6c-0.1,2.5-0.2,5-0.3,7.5c-0.4,29.3,8.6,57.9,26.9,81.3c17,21.7,52.2,35.1,79.7,37.1
			s50.7-2.7,74.8-12.1c2.8,10.7,5.6,21.4,8.3,32.2c-34.2,12.1-70.8,16.7-106.7,11.6c-36.7-5.2-72.6-23-95.1-52.5
			c-18-23.7-26.7-52.9-28.5-82.7c-3.7-58,13.5-119.4,65.5-150.9c49.2-29.8,112.9-35.8,166.2-13.5c-3,11-6,21.9-9.1,32.9
			c-44.3-16-97.7-19.4-135.3,9C273.5,438.4,259.5,477.4,257.4,515.6z"/>
		<path class="st85" d="M258.1,514.9c-0.1,2.5-0.2,5-0.3,7.5c-0.4,29.3,8.6,57.9,26.9,81.3c17,21.7,52.2,35.1,79.7,37.1
			s50.7-2.7,74.8-12.1c2.8,10.7,5.6,21.4,8.3,32.2c-34.2,12.1-70.8,16.7-106.7,11.6c-36.7-5.2-72.6-23-95.1-52.5
			c-18.1-23.7-26.8-52.9-28.7-82.7c-3.7-58.1,13.6-119.4,65.6-150.9c49.2-29.8,112.9-35.8,166.2-13.5c-3,11-6,21.9-9.1,32.9
			c-44.3-16-97.7-19.4-135.3,9C274.2,437.7,260.2,476.7,258.1,514.9z"/>
		<path class="st86" d="M258.8,514.2c-0.1,2.5-0.2,5-0.3,7.5c-0.4,29.3,8.6,57.9,26.9,81.3c17,21.7,52.2,35.1,79.7,37.1
			c27.5,2,50.7-2.7,74.8-12.1c2.8,10.7,5.6,21.4,8.3,32.2c-34.2,12.1-70.8,16.7-106.7,11.6c-36.7-5.2-72.6-23-95.1-52.5
			c-18.1-23.7-26.8-52.9-28.7-82.7c-3.7-58.1,13.6-119.4,65.6-150.9c49.2-29.8,112.9-35.8,166.2-13.5c-3,11-6,21.9-9.1,32.9
			c-44.3-16-97.7-19.4-135.3,9C274.9,437,260.9,476,258.8,514.2z"/>
		<path class="st87" d="M259.6,513.5c-0.1,2.5-0.2,5-0.3,7.5c-0.4,29.3,8.6,57.9,26.9,81.3c17,21.7,52.2,35.1,79.7,37.1
			s50.7-2.7,74.8-12.1c2.8,10.7,5.6,21.4,8.3,32.2c-34.2,12.1-70.8,16.7-106.7,11.6c-36.7-5.2-72.6-23-95.1-52.5
			c-18.1-23.7-26.8-52.9-28.7-82.7c-3.7-58.1,13.6-119.4,65.6-150.9c49.2-29.8,112.9-35.8,166.2-13.5c-3,11-6,21.9-9.1,32.9
			c-44.3-16-97.7-19.4-135.3,9C275.6,436.3,261.6,475.3,259.6,513.5z"/>
		<path class="st88" d="M260.3,512.8c-0.1,2.5-0.2,5-0.3,7.5c-0.4,29.3,8.6,57.9,26.9,81.3c17,21.7,52.2,35.1,79.7,37.1
			s50.7-2.7,74.8-12.1c2.8,10.7,5.6,21.4,8.3,32.2c-34.2,12.1-70.8,16.7-106.7,11.6c-36.7-5.2-72.6-23-95.1-52.5
			c-18.1-23.7-26.8-52.9-28.7-82.7c-3.7-58.1,13.6-119.4,65.6-150.9c49.2-29.8,112.9-35.8,166.2-13.5c-3,11-6,21.9-9.1,32.9
			c-44.3-16-97.7-19.4-135.3,9C276.3,435.6,262.3,474.6,260.3,512.8z"/>
		<path class="st89" d="M261,512.1c-0.1,2.5-0.2,5-0.3,7.5c-0.4,29.3,8.6,57.9,26.9,81.3c17,21.7,52.2,35.1,79.7,37.1
			c27.5,2,50.7-2.7,74.8-12.1c2.8,10.7,5.6,21.4,8.3,32.2c-34.2,12.1-70.8,16.7-106.7,11.6c-36.7-5.2-72.6-23-95.1-52.5
			c-18.1-23.7-26.8-52.9-28.7-82.7c-3.7-58.1,13.6-119.4,65.6-150.9c49.2-29.8,112.9-35.8,166.2-13.5c-3,11-6,21.9-9.1,32.9
			c-44.3-16-97.7-19.4-135.3,9C277,434.9,263,473.9,261,512.1z"/>
		<path class="st90" d="M261.7,511.4c-0.1,2.5-0.2,5-0.3,7.5c-0.4,29.3,8.6,57.9,26.9,81.3c17,21.7,52.2,35.1,79.7,37.1
			s50.7-2.7,74.8-12.1c2.8,10.7,5.6,21.4,8.3,32.2c-34.2,12.1-70.8,16.7-106.7,11.6c-36.7-5.2-72.6-23-95.1-52.5
			c-18.1-23.7-26.8-52.9-28.7-82.7c-3.7-58.1,13.6-119.4,65.6-150.9c49.2-29.8,112.9-35.8,166.2-13.5c-3,11-6,21.9-9.1,32.9
			c-44.3-16-97.7-19.4-135.3,9C277.7,434.2,263.8,473.2,261.7,511.4z"/>
		<path class="st91" d="M262.4,510.7c-0.1,2.5-0.2,5-0.3,7.5c-0.4,29.3,8.6,57.9,26.9,81.3c17,21.7,52.2,35.1,79.7,37.1
			s50.7-2.7,74.8-12.1c2.8,10.7,5.6,21.4,8.3,32.2c-34.2,12.1-70.8,16.7-106.7,11.6c-36.7-5.2-72.6-23-95.1-52.5
			c-18.1-23.7-26.8-52.9-28.7-82.7c-3.7-58.1,13.6-119.4,65.6-150.9c49.2-29.8,112.9-35.8,166.2-13.5c-3,11-6,21.9-9.1,32.9
			c-44.3-16-97.7-19.4-135.3,9C278.4,433.4,264.5,472.5,262.4,510.7z"/>
		<path d="M263.1,510c-0.1,2.5-0.2,5-0.3,7.5c-0.4,29.3,8.6,57.9,26.9,81.3c17,21.7,52.2,35.1,79.7,37.1s50.7-2.7,74.8-12.1
			c2.8,10.7,5.6,21.4,8.3,32.2c-34.2,12.1-70.8,16.7-106.7,11.6c-36.7-5.2-72.6-23-95.1-52.5c-18.1-23.7-26.8-52.9-28.7-82.7
			c-3.7-58.1,13.6-119.4,65.6-150.9c49.2-29.8,112.9-35.8,166.2-13.5c-3,11-6,21.9-9.1,32.9c-44.3-16-97.7-19.4-135.3,9
			C279.1,432.7,265.2,471.8,263.1,510z"/>
	</g>
	<g id="C">
		<path class="st92" d="M263.2,510c-0.1,2.5-0.2,5-0.3,7.5c-0.4,29.3,8.6,57.9,26.9,81.3c17,21.7,52.2,35.1,79.7,37.1
			s50.7-2.7,74.8-12.1c2.8,10.7,5.6,21.4,8.3,32.2c-34.2,12.1-70.8,16.7-106.7,11.6c-36.7-5.2-72.6-23-95.1-52.5
			c-18.1-23.7-26.8-52.9-28.7-82.7c-3.7-58.1,13.6-119.4,65.6-150.9c49.3-29.8,113-35.8,166.3-13.5c-3,11-6,21.9-9.1,32.9
			c-44.3-16-97.7-19.4-135.3,9C279.2,432.7,265.3,471.8,263.2,510z"/>
		<path class="st92" d="M263.2,510c-0.1,2.5-0.2,5-0.3,7.5c-0.4,29.3,8.6,57.9,26.9,81.3c17,21.7,52.2,35.1,79.7,37.1
			s50.7-2.7,74.8-12.1c2.8,10.7,5.6,21.4,8.3,32.2c-34.2,12.1-70.8,16.7-106.7,11.6c-36.7-5.2-72.6-23-95.1-52.5
			c-18.1-23.7-26.8-52.9-28.7-82.7c-3.7-58.1,13.6-119.4,65.6-150.9c49.3-29.8,113-35.8,166.3-13.5c-3,11-6,21.9-9.1,32.9
			c-44.3-16-97.7-19.4-135.3,9C279.2,432.7,265.3,471.8,263.2,510z"/>
		<path class="st93" d="M287.8,381.5c-52,31.5-69.2,92.8-65.6,150.9c1.2,19,5.2,37.7,12.6,55l32.8-32.8c-3.3-12-4.9-24.5-4.7-37.1
			c0-2.5,0.1-5,0.3-7.5c2.1-38.2,16-77.3,46.4-100.1c32.7-24.6,77.2-25.4,117.4-14.7l27-27c0-0.1,0.1-0.2,0.1-0.3
			C400.7,345.7,337,351.7,287.8,381.5z"/>
	</g>
	
		<linearGradient id="SVGID_1_" gradientUnits="userSpaceOnUse" x1="425.1" y1="381.7" x2="598.2" y2="554.8" gradientTransform="matrix(1 0 0 -1 0 1024)">
		<stop  offset="0" style="stop-color:#000000;stop-opacity:0"/>
		<stop  offset="1" style="stop-color:#000000"/>
	</linearGradient>
	<polygon class="st94" points="638,509 557,509 557,428 540,411 538.8,411 366.3,583.5 483.9,701.1 657,528 	"/>
	
		<linearGradient id="SVGID_2_" gradientUnits="userSpaceOnUse" x1="645.1" y1="381.7" x2="818.2" y2="554.8" gradientTransform="matrix(1 0 0 -1 0 1024)">
		<stop  offset="0" style="stop-color:#000000;stop-opacity:0"/>
		<stop  offset="1" style="stop-color:#000000"/>
	</linearGradient>
	<polygon class="st95" points="858,509 777,509 777,428 760,411 758.8,411 586.3,583.5 703.9,701.1 877,528 	"/>
	<g>
		<polygon class="st92" points="876.5,502.3 785.2,502.3 785.2,411 758.8,411 758.8,502.3 667.5,502.3 667.5,528.7 758.8,528.7 
			758.8,620 785.2,620 785.2,528.7 876.5,528.7 		"/>
		<polygon class="st92" points="656.5,502.3 565.2,502.3 565.2,411 538.8,411 538.8,502.3 447.5,502.3 447.5,528.7 538.8,528.7 
			538.8,620 565.2,620 565.2,528.7 656.5,528.7 		"/>
		<g>
			<polygon class="st93" points="447.5,502.3 447.5,528.7 449.2,528.7 475.6,502.3 			"/>
			<polygon class="st93" points="565.2,412.7 565.2,411.2 565,411 538.8,411 538.8,439.1 			"/>
		</g>
		<g>
			<polygon class="st93" points="667.5,502.3 667.5,528.7 669.2,528.7 695.6,502.3 			"/>
			<polygon class="st93" points="785.2,412.7 785.2,411.2 785,411 758.8,411 758.8,439.1 			"/>
		</g>
	</g>
</g>
</svg>
