<?xml version="1.0" encoding="utf-8"?>
<!-- Generator: Adobe Illustrator 21.0.2, SVG Export Plug-In . SVG Version: 6.00 Build 0)  -->
<svg version="1.1" id="Logo" xmlns="http://www.w3.org/2000/svg" xmlns:xlink="http://www.w3.org/1999/xlink" x="0px" y="0px"
	 viewBox="0 0 1024 800" style="enable-background:new 0 0 1024 800;" xml:space="preserve">
<style type="text/css">
	.st0{opacity:0.85;fill:#5D9FD0;}
	.st1{opacity:0.85;fill:#F58D73;}
	.st2{opacity:0.85;fill:#69C7EE;}
	.st3{opacity:0.85;fill:#59C4BC;}
	.st4{opacity:0.75;fill:#74C69E;}
</style>
<path class="st0" d="M452,202.1L223.4,430.7c-26.3,26.3-68.9,26.3-95.2,0l0,0c-26.3-26.3-26.3-68.9,0-95.2l228.6-228.6
	c26.3-26.3,68.9-26.3,95.2,0l0,0C478.2,133.2,478.2,175.9,452,202.1z"/>
<path class="st1" d="M358,562.9l228.6-228.6c26.3-26.3,68.9-26.3,95.2,0l0,0c26.3,26.3,26.3,68.9,0,95.2L453.2,658.1
	c-26.3,26.3-68.9,26.3-95.2,0l0,0C331.8,631.8,331.8,589.2,358,562.9z"/>
<path class="st2" d="M356.8,658.1L128.2,429.5c-26.3-26.3-26.3-68.9,0-95.2l0,0c26.3-26.3,68.9-26.3,95.2,0L452,562.9
	c26.3,26.3,26.3,68.9,0,95.2l0,0C425.7,684.4,383,684.4,356.8,658.1z"/>
<path class="st3" d="M804.1,433.2L575.5,204.6c-26.3-26.3-26.3-68.9,0-95.2l0,0c26.3-26.3,68.9-26.3,95.2,0L899.3,338
	c26.3,26.3,26.3,68.9,0,95.2l0,0C873,459.5,830.4,459.5,804.1,433.2z"/>
<path class="st4" d="M899.3,432L670.7,660.5c-26.3,26.3-68.9,26.3-95.2,0l0,0c-26.3-26.3-26.3-68.9,0-95.2l228.6-228.6
	c26.3-26.3,68.9-26.3,95.2,0l0,0C925.6,363.1,925.6,405.7,899.3,432z"/>
</svg>
