<?xml version="1.0" encoding="utf-8"?>
<!-- Generator: Adobe Illustrator 21.0.2, SVG Export Plug-In . SVG Version: 6.00 Build 0)  -->
<svg version="1.1" id="Layer_1" xmlns="http://www.w3.org/2000/svg" xmlns:xlink="http://www.w3.org/1999/xlink" x="0px" y="0px"
	 viewBox="0 0 1024 1024" style="enable-background:new 0 0 1024 1024;" xml:space="preserve">
<style type="text/css">
	.st0{fill:#ECF0F1;}
	.st1{fill:#E84C3D;}
	.st2{fill:#4B77BE;}
</style>
<g id="Layer_3">
	<rect class="st0" width="1024" height="1024"/>
</g>
<g id="Smoke">
	<path id="Smoke2" class="st1" d="M570.6,183.4c-11.7,37.5-34.2,70.9-59.7,100.8c-19.3,22.7-40.5,43.6-61.2,65
		c-17.8,18.5-41.2,39.5-44.3,66.6c-0.2,1.6-0.3,3.1-0.3,4.7c-0.1,11.6,4.4,22.8,10.1,32.9c17,30.4,44,53.7,70.5,76.4
		c-2.1-36.1-39.4-62.3-42.8-98.2c-1.3-13.3,2.4-26.7,9-38.3c12.6-22.3,34.7-37.1,53.6-54.4c43-39.4,71.1-97.6,65.2-155.7
		C570.6,183.2,570.6,183.3,570.6,183.4z"/>
	<path id="Smoke1" class="st1" d="M562.1,335.3c-1.5,0.7-3,1.4-4.4,2.1c-3.7,1.8-7.3,3.8-10.9,5.9c-3.6,2.1-7,4.4-10.4,6.8
		s-6.6,5-9.7,7.8c-3.1,2.7-6,5.7-8.7,8.7c-1.4,1.5-2.7,3.1-4,4.8c-0.6,0.8-1.3,1.6-1.9,2.5c-0.5,0.7-0.9,1.6-1.4,2.3
		c-2.5,3.2-4.8,6.6-6.7,10.2s-3.5,7.3-4.9,11.2c-1.3,3.9-2.4,7.8-3.1,11.9c-0.7,4-1.2,8.1-1.4,12.2s-0.1,8.2,0.2,12.3
		c0,0.5,0.1,0.9,0.1,1.4c2.1,21.2,10.6,41.4,21.5,59.7c3.2,5.3,6.6,10.6,8.7,16.4c2.1,5.8,2.8,12.4,0.6,18.1
		c-1.7,4.3-5,9.1-2.7,13.1c1.5,2.6,4.8,3.6,7.9,3.6c9,0.3,17.5-5,22.7-12.3s7.3-16.4,7.7-25.4c0.6-17-4.8-33.7-12.4-48.9
		c-6.4-12.7-14.4-25-16.1-39.1c-2.4-19.8,8.4-39.1,22.8-52.9s32.3-23.1,49-33.9c5.3-3.4,11.2-7,13.6-12.9c0.8-1.9,0.8-3.9,0.8-3.9
		s-2.9,0.3-4.4,0.7C596.8,322.4,578.9,327.6,562.1,335.3z"/>
</g>
<g id="Cup">
	<g id="Cup_1_">
		<path class="st2" d="M409.2,532.3c-1.3-0.3-2.7-0.2-4-0.1c-14.1,1.6-27.9,5.5-40.8,11.4c-13.6,6.3-36.1,19.4-36.2,25.5
			c-0.2,15.9,68.5,24,105,24c40.4,0,80.7-1.8,120.9-5.5c25.6-2.3,51.3-5.5,75.5-14.2c-7.2-4.8-16.2-5.5-24.9-5.9
			c-69.8-3.2-139.8,6.5-209.6,2.5c-3.2-0.2-7.4-1.3-7.7-4.5c-0.1-1.4,0.6-2.6,1.4-3.7c5.9-8.5,16.9-12.5,22.1-21.4
			c1.2-2,2-4.6,0.6-6.5C411,533,410.2,532.5,409.2,532.3z"/>
		<path class="st2" d="M460.3,628.7c14.4,0.9,29,1,43.4,0.8c35.6-0.5,71.4-2.6,106.8,2c3.7,0.5,8.5,2.6,7.5,6.2
			c-0.3,1.3-1.4,2.2-2.4,3.1c-5.6,4.4-12.3,7-19.1,9.1c-14.4,4.4-29.4,6.4-44.3,7.9c-23.4,2.4-46.9,3.6-70.4,3.7
			c-21.7,0.1-43.7-0.9-64.5-7.3c-14.3-4.4-28.7-12.2-35.2-25.6c-1.5-3.1-3.2-9.2,0.1-11.8c3.8-3.1,11.8,0,15.8,1.3
			C418.1,624.4,439.1,627.4,460.3,628.7z"/>
		<path class="st2" d="M490.3,692c0,0,86,1,111,10s-1,19-1,19s-34,15-97,13s-86-15-86-15s-42-22,0-26
			C435.5,691.3,490.3,692,490.3,692z"/>
		<path class="st2" d="M718.4,568c0,2.3-0.3,4.5-0.7,6.7c-2.2,12.1-8.8,23-16.4,32.8c-7.5,9.7-16.2,18.6-23.4,28.6
			c-2.3,3.2-4.5,6.6-6,10.2c-0.8,2.1-1.3,4.8,0.2,6.5c2,2.2,5.5,1,8.1-0.4c6.7-3.6,13.1-8,19.2-12.5c10.1-7.4,19.9-15.1,29.2-23.6
			c7.5-6.9,14.7-14.3,19.7-23.2c2.7-4.8,4.6-10.2,4.7-15.8c0-4-1-7.9-2.5-11.6c-4.4-10.9-13.4-19.7-23.8-25.2
			c-10.5-5.5-22.3-7.8-34.1-8c-2.6-0.1-5.2,0-7.7,0.9c-0.9,0.3-2.7,0.9-2.5,2c0.1,1.1,1.4,1.9,2.4,2.3c9.6,4.1,21.2,5.1,28.1,13
			C717,555.6,718.5,561.8,718.4,568z"/>
		<path class="st2" d="M319.1,730.6c-1,0.4-1.9,0.7-2.9,1.1c-12.8,4.8-25,11.1-36.4,18.6c-3.8,2.5-7.8,5.6-8.6,10.1
			c-1.5,8,7.7,13.6,15.5,16.1c27.6,9,56.7,12.4,85.6,14.9c108.5,9.5,220,7.6,323.3-26.8c9.3-3.1,19.5-7.4,23-16.4
			c1.2-3.1,1.1-7.4-1.9-8.8c-2.9-1.4-6.1,0.8-8.6,2.7c-11,8.1-24.1,12.8-37.3,16.4c-26.9,7.2-54.7,10.1-82.4,12.2
			c-42.5,3.3-85.1,4.8-127.7,4.5c-28-0.2-56.1-1.1-83.8-4.9c-13.5-1.8-26.9-4.3-39.6-9c-3.2-1.2-6.9-3.4-6.7-6.8
			c0.2-2.1,1.9-3.8,3.5-5.2c7.3-6.3,14.5-12.7,21.8-19c2.1-1.9,4.4-5,2.7-7.2c-1.1-1.4-3.1-1.4-4.8-1.3
			C341.5,722.3,330.5,726.3,319.1,730.6z"/>
		<path class="st2" d="M409.2,532.3c-1.3-0.3-2.7-0.2-4-0.1c-14.1,1.6-27.9,5.5-40.8,11.4c-13.6,6.3-36.1,19.4-36.2,25.5
			c-0.2,15.9,68.5,24,105,24c40.4,0,80.7-1.8,120.9-5.5c25.6-2.3,51.3-5.5,75.5-14.2c-7.2-4.8-16.2-5.5-24.9-5.9
			c-69.8-3.2-139.8,6.5-209.6,2.5c-3.2-0.2-7.4-1.3-7.7-4.5c-0.1-1.4,0.6-2.6,1.4-3.7c5.9-8.5,16.9-12.5,22.1-21.4
			c1.2-2,2-4.6,0.6-6.5C411,533,410.2,532.5,409.2,532.3z"/>
		<path class="st2" d="M460.3,628.7c14.4,0.9,29,1,43.4,0.8c35.6-0.5,71.4-2.6,106.8,2c3.7,0.5,8.5,2.6,7.5,6.2
			c-0.3,1.3-1.4,2.2-2.4,3.1c-5.6,4.4-12.3,7-19.1,9.1c-14.4,4.4-29.4,6.4-44.3,7.9c-23.4,2.4-46.9,3.6-70.4,3.7
			c-21.7,0.1-43.7-0.9-64.5-7.3c-14.3-4.4-28.7-12.2-35.2-25.6c-1.5-3.1-3.2-9.2,0.1-11.8c3.8-3.1,11.8,0,15.8,1.3
			C418.1,624.4,439.1,627.4,460.3,628.7z"/>
		<path class="st2" d="M490.3,692c0,0,86,1,111,10s-1,19-1,19s-34,15-97,13s-86-15-86-15s-42-22,0-26
			C435.5,691.3,490.3,692,490.3,692z"/>
		<path class="st2" d="M718.4,568c0,2.3-0.3,4.5-0.7,6.7c-2.2,12.1-8.8,23-16.4,32.8c-7.5,9.7-16.2,18.6-23.4,28.6
			c-2.3,3.2-4.5,6.6-6,10.2c-0.8,2.1-1.3,4.8,0.2,6.5c2,2.2,5.5,1,8.1-0.4c6.7-3.6,13.1-8,19.2-12.5c10.1-7.4,19.9-15.1,29.2-23.6
			c7.5-6.9,14.7-14.3,19.7-23.2c2.7-4.8,4.6-10.2,4.7-15.8c0-4-1-7.9-2.5-11.6c-4.4-10.9-13.4-19.7-23.8-25.2
			c-10.5-5.5-22.3-7.8-34.1-8c-2.6-0.1-5.2,0-7.7,0.9c-0.9,0.3-2.7,0.9-2.5,2c0.1,1.1,1.4,1.9,2.4,2.3c9.6,4.1,21.2,5.1,28.1,13
			C717,555.6,718.5,561.8,718.4,568z"/>
		<path class="st2" d="M319.1,730.6c-1,0.4-1.9,0.7-2.9,1.1c-12.8,4.8-25,11.1-36.4,18.6c-3.8,2.5-7.8,5.6-8.6,10.1
			c-1.5,8,7.7,13.6,15.5,16.1c27.6,9,56.7,12.4,85.6,14.9c108.5,9.5,220,7.6,323.3-26.8c9.3-3.1,19.5-7.4,23-16.4
			c1.2-3.1,1.1-7.4-1.9-8.8c-2.9-1.4-6.1,0.8-8.6,2.7c-11,8.1-24.1,12.8-37.3,16.4c-26.9,7.2-54.7,10.1-82.4,12.2
			c-42.5,3.3-85.1,4.8-127.7,4.5c-28-0.2-56.1-1.1-83.8-4.9c-13.5-1.8-26.9-4.3-39.6-9c-3.2-1.2-6.9-3.4-6.7-6.8
			c0.2-2.1,1.9-3.8,3.5-5.2c7.3-6.3,14.5-12.7,21.8-19c2.1-1.9,4.4-5,2.7-7.2c-1.1-1.4-3.1-1.4-4.8-1.3
			C341.5,722.3,330.5,726.3,319.1,730.6z"/>
		<path class="st2" d="M411.4,815.7c4.3-0.7,8.7-1.2,13.1-1.8c11.3-1.4,22.7-2.3,34.1-3c22.8-1.3,45.7-1.6,68.6-1.9
			c22.8-0.3,45.7-0.8,68.5-2.4c14.2-1.1,28.4-2.6,42.5-4.9c33-5.5,65.3-15.2,98.5-19.9c3.8-0.5,8.5-0.6,10.5,2.7
			c-9,9.9-21.9,15.5-34.6,19.6c-25.2,8.3-51.6,12.4-78,15.6c-65.8,7.8-132.2,9.2-198.4,5.7c-10.1-0.5-20.3-1.2-30-3.7
			c-1.4-0.3-4.5-1.5-4.4-3.4c0-1.8,4.6-1.7,6-1.9C408.8,816.1,410.1,815.9,411.4,815.7z"/>
	</g>
</g>
</svg>
