<?xml version="1.0" encoding="utf-8"?>
<!-- Generator: Adobe Illustrator 21.0.2, SVG Export Plug-In . SVG Version: 6.00 Build 0)  -->
<svg version="1.1" id="Layer_1" xmlns="http://www.w3.org/2000/svg" xmlns:xlink="http://www.w3.org/1999/xlink" x="0px" y="0px"
	 viewBox="0 0 1024 1024" style="enable-background:new 0 0 1024 1024;" xml:space="preserve">
<style type="text/css">
	.st0{fill:#ECF0F1;}
	.st1{fill:#F9BF3A;}
	.st2{fill:#4B77BE;}
</style>
<g id="Background">
	<rect x="0" y="0" class="st0" width="1023.6" height="1023.8"/>
</g>
<g id="Outline">
	<path class="st1" d="M716.8,372.5l-59.6,1.2c0,0-0.6,57.9-0.6,77.2c0,28-28,65.6-66.9,65.6c0,0-118.5,1.2-158,1.2
		c-25.5,0-52.3,31.6-52.3,63.2v150.8c0,0,0,62,128.9,62S642,745.1,642,745.1l1.2-81.5L515,664.3v-15.8h195.7
		c0,0,68.7-4.3,71.1-139.2S716.8,372.5,716.8,372.5z M602,686.2c10.7,0,19.5,8.8,19.5,19.5s-8.8,19.5-19.5,19.5
		c-10.7,0-19.5-8.8-19.5-19.5S591.3,686.2,602,686.2z"/>
	<path class="st2" d="M515.7,230.3c-128.9,0-133.7,48.6-133.7,48.6l-1.2,81.5l128.3-0.6v15.8H313.3c0,0-68.7,4.3-71.1,139.2
		c-2.4,134.9,65,136.8,65,136.8l59.6-1.2c0,0,0.6-57.9,0.6-77.2c0-28,28-65.6,66.9-65.6c0,0,118.5-1.2,158-1.2
		c25.5,0,52.3-31.6,52.3-63.2V292.3C644.6,292.3,644.6,230.3,515.7,230.3z M424.5,332.4c-10.7,0-19.5-8.8-19.5-19.5
		c0-10.7,8.8-19.5,19.5-19.5s19.5,8.8,19.5,19.5C444,323.6,435.2,332.4,424.5,332.4z"/>
</g>
</svg>
