<?xml version="1.0" encoding="utf-8"?>
<!-- Generator: Adobe Illustrator 21.0.2, SVG Export Plug-In . SVG Version: 6.00 Build 0)  -->
<svg version="1.1" id="Layer_1" xmlns="http://www.w3.org/2000/svg" xmlns:xlink="http://www.w3.org/1999/xlink" x="0px" y="0px"
	 viewBox="0 0 1024 1024" style="enable-background:new 0 0 1024 1024;" xml:space="preserve">
<style type="text/css">
	.st0{fill:#FF9000;}
	.st1{opacity:0.3;}
	.st2{fill:#030000;fill-opacity:0;}
	.st3{opacity:1.010101e-02;fill:#030000;enable-background:new    ;}
	.st4{opacity:2.020202e-02;fill:#030000;enable-background:new    ;}
	.st5{opacity:3.030303e-02;fill:#030000;enable-background:new    ;}
	.st6{opacity:4.040404e-02;fill:#030000;enable-background:new    ;}
	.st7{opacity:5.050505e-02;fill:#030000;enable-background:new    ;}
	.st8{opacity:6.060606e-02;fill:#030000;enable-background:new    ;}
	.st9{opacity:7.070707e-02;fill:#030000;enable-background:new    ;}
	.st10{opacity:8.080808e-02;fill:#030000;enable-background:new    ;}
	.st11{opacity:9.090909e-02;fill:#030000;enable-background:new    ;}
	.st12{opacity:0.101;fill:#030000;enable-background:new    ;}
	.st13{opacity:0.1111;fill:#030000;enable-background:new    ;}
	.st14{opacity:0.1212;fill:#030000;enable-background:new    ;}
	.st15{opacity:0.1313;fill:#030000;enable-background:new    ;}
	.st16{opacity:0.1414;fill:#030000;enable-background:new    ;}
	.st17{opacity:0.1515;fill:#030000;enable-background:new    ;}
	.st18{opacity:0.1616;fill:#030000;enable-background:new    ;}
	.st19{opacity:0.1717;fill:#020000;enable-background:new    ;}
	.st20{opacity:0.1818;fill:#020000;enable-background:new    ;}
	.st21{opacity:0.1919;fill:#020000;enable-background:new    ;}
	.st22{opacity:0.202;fill:#020000;enable-background:new    ;}
	.st23{opacity:0.2121;fill:#020000;enable-background:new    ;}
	.st24{opacity:0.2222;fill:#020000;enable-background:new    ;}
	.st25{opacity:0.2323;fill:#020000;enable-background:new    ;}
	.st26{opacity:0.2424;fill:#020000;enable-background:new    ;}
	.st27{opacity:0.2525;fill:#020000;enable-background:new    ;}
	.st28{opacity:0.2626;fill:#020000;enable-background:new    ;}
	.st29{opacity:0.2727;fill:#020000;enable-background:new    ;}
	.st30{opacity:0.2828;fill:#020000;enable-background:new    ;}
	.st31{opacity:0.2929;fill:#020000;enable-background:new    ;}
	.st32{opacity:0.303;fill:#020000;enable-background:new    ;}
	.st33{opacity:0.3131;fill:#020000;enable-background:new    ;}
	.st34{opacity:0.3232;fill:#020000;enable-background:new    ;}
	.st35{opacity:0.3333;fill:#020000;enable-background:new    ;}
	.st36{opacity:0.3434;fill:#020000;enable-background:new    ;}
	.st37{opacity:0.3535;fill:#020000;enable-background:new    ;}
	.st38{opacity:0.3636;fill:#020000;enable-background:new    ;}
	.st39{opacity:0.3737;fill:#020000;enable-background:new    ;}
	.st40{opacity:0.3838;fill:#020000;enable-background:new    ;}
	.st41{opacity:0.3939;fill:#020000;enable-background:new    ;}
	.st42{opacity:0.404;fill:#020000;enable-background:new    ;}
	.st43{opacity:0.4141;fill:#020000;enable-background:new    ;}
	.st44{opacity:0.4242;fill:#020000;enable-background:new    ;}
	.st45{opacity:0.4343;fill:#020000;enable-background:new    ;}
	.st46{opacity:0.4444;fill:#020000;enable-background:new    ;}
	.st47{opacity:0.4545;fill:#020000;enable-background:new    ;}
	.st48{opacity:0.4646;fill:#020000;enable-background:new    ;}
	.st49{opacity:0.4747;fill:#020000;enable-background:new    ;}
	.st50{opacity:0.4848;fill:#020000;enable-background:new    ;}
	.st51{opacity:0.4949;fill:#020000;enable-background:new    ;}
	.st52{opacity:0.5051;fill:#010000;enable-background:new    ;}
	.st53{opacity:0.5152;fill:#010000;enable-background:new    ;}
	.st54{opacity:0.5253;fill:#010000;enable-background:new    ;}
	.st55{opacity:0.5354;fill:#010000;enable-background:new    ;}
	.st56{opacity:0.5455;fill:#010000;enable-background:new    ;}
	.st57{opacity:0.5556;fill:#010000;enable-background:new    ;}
	.st58{opacity:0.5657;fill:#010000;enable-background:new    ;}
	.st59{opacity:0.5758;fill:#010000;enable-background:new    ;}
	.st60{opacity:0.5859;fill:#010000;enable-background:new    ;}
	.st61{opacity:0.596;fill:#010000;enable-background:new    ;}
	.st62{opacity:0.6061;fill:#010000;enable-background:new    ;}
	.st63{opacity:0.6162;fill:#010000;enable-background:new    ;}
	.st64{opacity:0.6263;fill:#010000;enable-background:new    ;}
	.st65{opacity:0.6364;fill:#010000;enable-background:new    ;}
	.st66{opacity:0.6465;fill:#010000;enable-background:new    ;}
	.st67{opacity:0.6566;fill:#010000;enable-background:new    ;}
	.st68{opacity:0.6667;fill:#010000;enable-background:new    ;}
	.st69{opacity:0.6768;fill:#010000;enable-background:new    ;}
	.st70{opacity:0.6869;fill:#010000;enable-background:new    ;}
	.st71{opacity:0.697;fill:#010000;enable-background:new    ;}
	.st72{opacity:0.7071;fill:#010000;enable-background:new    ;}
	.st73{opacity:0.7172;fill:#010000;enable-background:new    ;}
	.st74{opacity:0.7273;fill:#010000;enable-background:new    ;}
	.st75{opacity:0.7374;fill:#010000;enable-background:new    ;}
	.st76{opacity:0.7475;fill:#010000;enable-background:new    ;}
	.st77{opacity:0.7576;fill:#010000;enable-background:new    ;}
	.st78{opacity:0.7677;fill:#010000;enable-background:new    ;}
	.st79{opacity:0.7778;fill:#010000;enable-background:new    ;}
	.st80{opacity:0.7879;fill:#010000;enable-background:new    ;}
	.st81{opacity:0.798;fill:#010000;enable-background:new    ;}
	.st82{opacity:0.8081;fill:#010000;enable-background:new    ;}
	.st83{opacity:0.8182;fill:#010000;enable-background:new    ;}
	.st84{opacity:0.8283;fill:#010000;enable-background:new    ;}
	.st85{opacity:0.8384;enable-background:new    ;}
	.st86{opacity:0.8485;enable-background:new    ;}
	.st87{opacity:0.8586;enable-background:new    ;}
	.st88{opacity:0.8687;enable-background:new    ;}
	.st89{opacity:0.8788;enable-background:new    ;}
	.st90{opacity:0.8889;enable-background:new    ;}
	.st91{opacity:0.899;enable-background:new    ;}
	.st92{opacity:0.9091;enable-background:new    ;}
	.st93{opacity:0.9192;enable-background:new    ;}
	.st94{opacity:0.9293;enable-background:new    ;}
	.st95{opacity:0.9394;enable-background:new    ;}
	.st96{opacity:0.9495;enable-background:new    ;}
	.st97{opacity:0.9596;enable-background:new    ;}
	.st98{opacity:0.9697;enable-background:new    ;}
	.st99{opacity:0.9798;enable-background:new    ;}
	.st100{opacity:0.9899;enable-background:new    ;}
	.st101{fill-opacity:0;}
	.st102{opacity:1.010101e-02;enable-background:new    ;}
	.st103{opacity:2.020202e-02;enable-background:new    ;}
	.st104{opacity:3.030303e-02;enable-background:new    ;}
	.st105{opacity:4.040404e-02;enable-background:new    ;}
	.st106{opacity:5.050505e-02;enable-background:new    ;}
	.st107{opacity:6.060606e-02;enable-background:new    ;}
	.st108{opacity:7.070707e-02;enable-background:new    ;}
	.st109{opacity:8.080808e-02;enable-background:new    ;}
	.st110{opacity:9.090909e-02;enable-background:new    ;}
	.st111{opacity:0.101;enable-background:new    ;}
	.st112{opacity:0.1111;enable-background:new    ;}
	.st113{opacity:0.1212;enable-background:new    ;}
	.st114{opacity:0.1313;enable-background:new    ;}
	.st115{opacity:0.1414;enable-background:new    ;}
	.st116{opacity:0.1515;enable-background:new    ;}
	.st117{opacity:0.1616;enable-background:new    ;}
	.st118{opacity:0.1717;enable-background:new    ;}
	.st119{opacity:0.1818;enable-background:new    ;}
	.st120{opacity:0.1919;enable-background:new    ;}
	.st121{opacity:0.202;enable-background:new    ;}
	.st122{opacity:0.2121;enable-background:new    ;}
	.st123{opacity:0.2222;enable-background:new    ;}
	.st124{opacity:0.2323;enable-background:new    ;}
	.st125{opacity:0.2424;enable-background:new    ;}
	.st126{opacity:0.2525;enable-background:new    ;}
	.st127{opacity:0.2626;enable-background:new    ;}
	.st128{opacity:0.2727;enable-background:new    ;}
	.st129{opacity:0.2828;enable-background:new    ;}
	.st130{opacity:0.2929;enable-background:new    ;}
	.st131{opacity:0.303;enable-background:new    ;}
	.st132{opacity:0.3131;enable-background:new    ;}
	.st133{opacity:0.3232;enable-background:new    ;}
	.st134{opacity:0.3333;enable-background:new    ;}
	.st135{opacity:0.3434;enable-background:new    ;}
	.st136{opacity:0.3535;enable-background:new    ;}
	.st137{opacity:0.3636;enable-background:new    ;}
	.st138{opacity:0.3737;enable-background:new    ;}
	.st139{opacity:0.3838;enable-background:new    ;}
	.st140{opacity:0.3939;enable-background:new    ;}
	.st141{opacity:0.404;enable-background:new    ;}
	.st142{opacity:0.4141;enable-background:new    ;}
	.st143{opacity:0.4242;enable-background:new    ;}
	.st144{opacity:0.4343;enable-background:new    ;}
	.st145{opacity:0.4444;enable-background:new    ;}
	.st146{opacity:0.4545;enable-background:new    ;}
	.st147{opacity:0.4646;enable-background:new    ;}
	.st148{opacity:0.4747;enable-background:new    ;}
	.st149{opacity:0.4848;enable-background:new    ;}
	.st150{opacity:0.4949;enable-background:new    ;}
	.st151{opacity:0.5051;enable-background:new    ;}
	.st152{opacity:0.5152;enable-background:new    ;}
	.st153{opacity:0.5253;enable-background:new    ;}
	.st154{opacity:0.5354;enable-background:new    ;}
	.st155{opacity:0.5455;enable-background:new    ;}
	.st156{opacity:0.5556;enable-background:new    ;}
	.st157{opacity:0.5657;enable-background:new    ;}
	.st158{opacity:0.5758;enable-background:new    ;}
	.st159{opacity:0.5859;enable-background:new    ;}
	.st160{opacity:0.596;enable-background:new    ;}
	.st161{opacity:0.6061;enable-background:new    ;}
	.st162{opacity:0.6162;enable-background:new    ;}
	.st163{opacity:0.6263;enable-background:new    ;}
	.st164{opacity:0.6364;enable-background:new    ;}
	.st165{opacity:0.6465;enable-background:new    ;}
	.st166{opacity:0.6566;enable-background:new    ;}
	.st167{opacity:0.6667;enable-background:new    ;}
	.st168{opacity:0.6768;enable-background:new    ;}
	.st169{opacity:0.6869;enable-background:new    ;}
	.st170{opacity:0.697;enable-background:new    ;}
	.st171{opacity:0.7071;enable-background:new    ;}
	.st172{opacity:0.7172;enable-background:new    ;}
	.st173{opacity:0.7273;enable-background:new    ;}
	.st174{opacity:0.7374;enable-background:new    ;}
	.st175{opacity:0.7475;enable-background:new    ;}
	.st176{opacity:0.7576;enable-background:new    ;}
	.st177{opacity:0.7677;enable-background:new    ;}
	.st178{opacity:0.7778;enable-background:new    ;}
	.st179{opacity:0.7879;enable-background:new    ;}
	.st180{opacity:0.798;enable-background:new    ;}
	.st181{opacity:0.8081;enable-background:new    ;}
	.st182{opacity:0.8182;enable-background:new    ;}
	.st183{opacity:0.8283;enable-background:new    ;}
	.st184{fill:#F9BF3A;}
	.st185{fill:#4B77BE;}
</style>
<g id="Background">
	<rect x="-0.5" y="0.5" class="st0" width="1024.5" height="1023.5"/>
</g>
<g id="Outline">
	<g class="st1">
		<path class="st2" d="M536.5,715.5c8.8,0,16,7.2,16,16s-7.2,16-16,16s-16-7.2-16-16S527.7,715.5,536.5,715.5z M630.9,457.5l-49,1
			c0,0-0.5,47.6-0.5,63.5c0,23-23,54-55,54c0,0-97.5,1-130,1c-21,0-43,26-43,52v124c0,0,0,51,106,51s110-40,110-40l1-67l-105.5,0.5
			v-13h161c0,0,56.5-3.5,58.5-114.5S630.9,457.5,630.9,457.5z"/>
		<path class="st3" d="M537.2,714.8c8.8,0,16,7.2,16,16s-7.2,16-16,16s-16-7.2-16-16S528.4,714.8,537.2,714.8z M631.7,456.8l-49,1
			c0,0-0.5,47.6-0.5,63.5c0,23-23,54-55,54c0,0-97.5,1-130,1c-21,0-43,26-43,52v124c0,0,0,51,106,51s110-40,110-40l1-67l-105.5,0.5
			v-13h161c0,0,56.5-3.5,58.5-114.5S631.7,456.8,631.7,456.8z"/>
		<path class="st4" d="M537.9,714.1c8.8,0,16,7.2,16,16s-7.2,16-16,16s-16-7.2-16-16S529.1,714.1,537.9,714.1z M632.4,456.1l-49,1
			c0,0-0.5,47.6-0.5,63.5c0,23-23,54-55,54c0,0-97.5,1-130,1c-21,0-43,26-43,52v124c0,0,0,51,106,51s110-40,110-40l1-67l-105.5,0.5
			v-13h161c0,0,56.5-3.5,58.5-114.5S632.4,456.1,632.4,456.1z"/>
		<path class="st5" d="M538.6,713.4c8.8,0,16,7.2,16,16s-7.2,16-16,16s-16-7.2-16-16S529.8,713.4,538.6,713.4z M633.1,455.4l-49,1
			c0,0-0.5,47.6-0.5,63.5c0,23-23,54-55,54c0,0-97.5,1-130,1c-21,0-43,26-43,52v124c0,0,0,51,106,51s110-40,110-40l1-67l-105.5,0.5
			v-13h161c0,0,56.5-3.5,58.5-114.5S633.1,455.4,633.1,455.4z"/>
		<path class="st6" d="M539.3,712.7c8.8,0,16,7.2,16,16s-7.2,16-16,16s-16-7.2-16-16S530.5,712.7,539.3,712.7z M633.8,454.7l-49,1
			c0,0-0.5,47.6-0.5,63.5c0,23-23,54-55,54c0,0-97.5,1-130,1c-21,0-43,26-43,52v124c0,0,0,51,106,51s110-40,110-40l1-67l-105.5,0.5
			v-13h161c0,0,56.5-3.5,58.5-114.5S633.8,454.7,633.8,454.7z"/>
		<path class="st7" d="M540,712c8.8,0,16,7.2,16,16s-7.2,16-16,16s-16-7.2-16-16S531.2,712,540,712z M634.5,454l-49,1
			c0,0-0.5,47.6-0.5,63.5c0,23-23,54-55,54c0,0-97.5,1-130,1c-21,0-43,26-43,52v124c0,0,0,51,106,51s110-40,110-40l1-67L468.5,694
			v-13h161c0,0,56.5-3.5,58.5-114.5S634.5,454,634.5,454z"/>
		<path class="st8" d="M540.7,711.3c8.8,0,16,7.2,16,16s-7.2,16-16,16s-16-7.2-16-16S531.9,711.3,540.7,711.3z M635.2,453.3l-49,1
			c0,0-0.5,47.6-0.5,63.5c0,23-23,54-55,54c0,0-97.5,1-130,1c-21,0-43,26-43,52v124c0,0,0,51,106,51s110-40,110-40l1-67l-105.5,0.5
			v-13h161c0,0,56.5-3.5,58.5-114.5S635.2,453.3,635.2,453.3z"/>
		<path class="st9" d="M541.4,710.6c8.8,0,16,7.2,16,16s-7.2,16-16,16s-16-7.2-16-16S532.6,710.6,541.4,710.6z M635.9,452.6l-49,1
			c0,0-0.5,47.6-0.5,63.5c0,23-23,54-55,54c0,0-97.5,1-130,1c-21,0-43,26-43,52v124c0,0,0,51,106,51s110-40,110-40l1-67l-105.5,0.5
			v-13h161c0,0,56.5-3.5,58.5-114.5S635.9,452.6,635.9,452.6z"/>
		<path class="st10" d="M542.2,709.8c8.8,0,16,7.2,16,16s-7.2,16-16,16s-16-7.2-16-16S533.3,709.8,542.2,709.8z M636.6,451.8l-49,1
			c0,0-0.5,47.6-0.5,63.5c0,23-23,54-55,54c0,0-97.5,1-130,1c-21,0-43,26-43,52v124c0,0,0,51,106,51s110-40,110-40l1-67l-105.5,0.5
			v-13h161c0,0,56.5-3.5,58.5-114.5S636.6,451.8,636.6,451.8z"/>
		<path class="st11" d="M542.9,709.1c8.8,0,16,7.2,16,16s-7.2,16-16,16s-16-7.2-16-16S534,709.1,542.9,709.1z M637.3,451.1l-49,1
			c0,0-0.5,47.6-0.5,63.5c0,23-23,54-55,54c0,0-97.5,1-130,1c-21,0-43,26-43,52v124c0,0,0,51,106,51s110-40,110-40l1-67l-105.5,0.5
			v-13h161c0,0,56.5-3.5,58.5-114.5S637.3,451.1,637.3,451.1z"/>
		<path class="st12" d="M543.6,708.4c8.8,0,16,7.2,16,16s-7.2,16-16,16s-16-7.2-16-16S534.7,708.4,543.6,708.4z M638,450.4l-49,1
			c0,0-0.5,47.6-0.5,63.5c0,23-23,54-55,54c0,0-97.5,1-130,1c-21,0-43,26-43,52v124c0,0,0,51,106,51s110-40,110-40l1-67L472,690.4
			v-13h161c0,0,56.5-3.5,58.5-114.5S638,450.4,638,450.4z"/>
		<path class="st13" d="M544.3,707.7c8.8,0,16,7.2,16,16s-7.2,16-16,16s-16-7.2-16-16S535.4,707.7,544.3,707.7z M638.7,449.7l-49,1
			c0,0-0.5,47.6-0.5,63.5c0,23-23,54-55,54c0,0-97.5,1-130,1c-21,0-43,26-43,52v124c0,0,0,51,106,51s110-40,110-40l1-67l-105.5,0.5
			v-13h161c0,0,56.5-3.5,58.5-114.5S638.7,449.7,638.7,449.7z"/>
		<path class="st14" d="M545,707c8.8,0,16,7.2,16,16s-7.2,16-16,16s-16-7.2-16-16S536.1,707,545,707z M639.4,449l-49,1
			c0,0-0.5,47.6-0.5,63.5c0,23-23,54-55,54c0,0-97.5,1-130,1c-21,0-43,26-43,52v124c0,0,0,51,106,51s110-40,110-40l1-67L473.4,689
			v-13h161c0,0,56.5-3.5,58.5-114.5S639.4,449,639.4,449z"/>
		<path class="st15" d="M545.7,706.3c8.8,0,16,7.2,16,16s-7.2,16-16,16s-16-7.2-16-16S536.9,706.3,545.7,706.3z M640.1,448.3l-49,1
			c0,0-0.5,47.6-0.5,63.5c0,23-23,54-55,54c0,0-97.5,1-130,1c-21,0-43,26-43,52v124c0,0,0,51,106,51s110-40,110-40l1-67l-105.5,0.5
			v-13h161c0,0,56.5-3.5,58.5-114.5S640.1,448.3,640.1,448.3z"/>
		<path class="st16" d="M546.4,705.6c8.8,0,16,7.2,16,16s-7.2,16-16,16s-16-7.2-16-16S537.6,705.6,546.4,705.6z M640.8,447.6l-49,1
			c0,0-0.5,47.6-0.5,63.5c0,23-23,54-55,54c0,0-97.5,1-130,1c-21,0-43,26-43,52v124c0,0,0,51,106,51s110-40,110-40l1-67l-105.5,0.5
			v-13h161c0,0,56.5-3.5,58.5-114.5S640.8,447.6,640.8,447.6z"/>
		<path class="st17" d="M547.1,704.9c8.8,0,16,7.2,16,16s-7.2,16-16,16s-16-7.2-16-16S538.3,704.9,547.1,704.9z M641.6,446.9l-49,1
			c0,0-0.5,47.6-0.5,63.5c0,23-23,54-55,54c0,0-97.5,1-130,1c-21,0-43,26-43,52v124c0,0,0,51,106,51s110-40,110-40l1-67l-105.5,0.5
			v-13h161c0,0,56.5-3.5,58.5-114.5S641.6,446.9,641.6,446.9z"/>
		<path class="st18" d="M547.8,704.2c8.8,0,16,7.2,16,16s-7.2,16-16,16s-16-7.2-16-16S539,704.2,547.8,704.2z M642.3,446.2l-49,1
			c0,0-0.5,47.6-0.5,63.5c0,23-23,54-55,54c0,0-97.5,1-130,1c-21,0-43,26-43,52v124c0,0,0,51,106,51s110-40,110-40l1-67l-105.5,0.5
			v-13h161c0,0,56.5-3.5,58.5-114.5S642.3,446.2,642.3,446.2z"/>
		<path class="st19" d="M548.5,703.5c8.8,0,16,7.2,16,16s-7.2,16-16,16s-16-7.2-16-16S539.7,703.5,548.5,703.5z M643,445.5l-49,1
			c0,0-0.5,47.6-0.5,63.5c0,23-23,54-55,54c0,0-97.5,1-130,1c-21,0-43,26-43,52v124c0,0,0,51,106,51s110-40,110-40l1-67L477,685.5
			v-13h161c0,0,56.5-3.5,58.5-114.5S643,445.5,643,445.5z"/>
		<path class="st20" d="M549.2,702.8c8.8,0,16,7.2,16,16s-7.2,16-16,16s-16-7.2-16-16S540.4,702.8,549.2,702.8z M643.7,444.8l-49,1
			c0,0-0.5,47.6-0.5,63.5c0,23-23,54-55,54c0,0-97.5,1-130,1c-21,0-43,26-43,52v124c0,0,0,51,106,51s110-40,110-40l1-67l-105.5,0.5
			v-13h161c0,0,56.5-3.5,58.5-114.5S643.7,444.8,643.7,444.8z"/>
		<path class="st21" d="M549.9,702.1c8.8,0,16,7.2,16,16s-7.2,16-16,16s-16-7.2-16-16S541.1,702.1,549.9,702.1z M644.4,444.1l-49,1
			c0,0-0.5,47.6-0.5,63.5c0,23-23,54-55,54c0,0-97.5,1-130,1c-21,0-43,26-43,52v124c0,0,0,51,106,51s110-40,110-40l1-67l-105.5,0.5
			v-13h161c0,0,56.5-3.5,58.5-114.5S644.4,444.1,644.4,444.1z"/>
		<path class="st22" d="M550.6,701.4c8.8,0,16,7.2,16,16s-7.2,16-16,16s-16-7.2-16-16S541.8,701.4,550.6,701.4z M645.1,443.4l-49,1
			c0,0-0.5,47.6-0.5,63.5c0,23-23,54-55,54c0,0-97.5,1-130,1c-21,0-43,26-43,52v124c0,0,0,51,106,51s110-40,110-40l1-67l-105.5,0.5
			v-13h161c0,0,56.5-3.5,58.5-114.5S645.1,443.4,645.1,443.4z"/>
		<path class="st23" d="M551.3,700.7c8.8,0,16,7.2,16,16s-7.2,16-16,16s-16-7.2-16-16S542.5,700.7,551.3,700.7z M645.8,442.7l-49,1
			c0,0-0.5,47.6-0.5,63.5c0,23-23,54-55,54c0,0-97.5,1-130,1c-21,0-43,26-43,52v124c0,0,0,51,106,51s110-40,110-40l1-67l-105.5,0.5
			v-13h161c0,0,56.5-3.5,58.5-114.5S645.8,442.7,645.8,442.7z"/>
		<path class="st24" d="M552.1,699.9c8.8,0,16,7.2,16,16s-7.2,16-16,16s-16-7.2-16-16S543.2,699.9,552.1,699.9z M646.5,441.9l-49,1
			c0,0-0.5,47.6-0.5,63.5c0,23-23,54-55,54c0,0-97.5,1-130,1c-21,0-43,26-43,52v124c0,0,0,51,106,51s110-40,110-40l1-67l-105.5,0.5
			v-13h161c0,0,56.5-3.5,58.5-114.5S646.5,441.9,646.5,441.9z"/>
		<path class="st25" d="M552.8,699.2c8.8,0,16,7.2,16,16s-7.2,16-16,16s-16-7.2-16-16S543.9,699.2,552.8,699.2z M647.2,441.2l-49,1
			c0,0-0.5,47.6-0.5,63.5c0,23-23,54-55,54c0,0-97.5,1-130,1c-21,0-43,26-43,52v124c0,0,0,51,106,51s110-40,110-40l1-67l-105.5,0.5
			v-13h161c0,0,56.5-3.5,58.5-114.5S647.2,441.2,647.2,441.2z"/>
		<path class="st26" d="M553.5,698.5c8.8,0,16,7.2,16,16s-7.2,16-16,16s-16-7.2-16-16S544.6,698.5,553.5,698.5z M647.9,440.5l-49,1
			c0,0-0.5,47.6-0.5,63.5c0,23-23,54-55,54c0,0-97.5,1-130,1c-21,0-43,26-43,52v124c0,0,0,51,106,51s110-40,110-40l1-67l-105.5,0.5
			v-13h161c0,0,56.5-3.5,58.5-114.5S647.9,440.5,647.9,440.5z"/>
		<path class="st27" d="M554.2,697.8c8.8,0,16,7.2,16,16s-7.2,16-16,16s-16-7.2-16-16S545.3,697.8,554.2,697.8z M648.6,439.8l-49,1
			c0,0-0.5,47.6-0.5,63.5c0,23-23,54-55,54c0,0-97.5,1-130,1c-21,0-43,26-43,52v124c0,0,0,51,106,51s110-40,110-40l1-67l-105.5,0.5
			v-13h161c0,0,56.5-3.5,58.5-114.5S648.6,439.8,648.6,439.8z"/>
		<path class="st28" d="M554.9,697.1c8.8,0,16,7.2,16,16s-7.2,16-16,16s-16-7.2-16-16S546,697.1,554.9,697.1z M649.3,439.1l-49,1
			c0,0-0.5,47.6-0.5,63.5c0,23-23,54-55,54c0,0-97.5,1-130,1c-21,0-43,26-43,52v124c0,0,0,51,106,51s110-40,110-40l1-67l-105.5,0.5
			v-13h161c0,0,56.5-3.5,58.5-114.5S649.3,439.1,649.3,439.1z"/>
		<path class="st29" d="M555.6,696.4c8.8,0,16,7.2,16,16s-7.2,16-16,16s-16-7.2-16-16S546.8,696.4,555.6,696.4z M650,438.4l-49,1
			c0,0-0.5,47.6-0.5,63.5c0,23-23,54-55,54c0,0-97.5,1-130,1c-21,0-43,26-43,52v124c0,0,0,51,106,51s110-40,110-40l1-67L484,678.4
			v-13h161c0,0,56.5-3.5,58.5-114.5S650,438.4,650,438.4z"/>
		<path class="st30" d="M556.3,695.7c8.8,0,16,7.2,16,16s-7.2,16-16,16s-16-7.2-16-16S547.5,695.7,556.3,695.7z M650.7,437.7l-49,1
			c0,0-0.5,47.6-0.5,63.5c0,23-23,54-55,54c0,0-97.5,1-130,1c-21,0-43,26-43,52v124c0,0,0,51,106,51s110-40,110-40l1-67l-105.5,0.5
			v-13h161c0,0,56.5-3.5,58.5-114.5S650.7,437.7,650.7,437.7z"/>
		<path class="st31" d="M557,695c8.8,0,16,7.2,16,16s-7.2,16-16,16s-16-7.2-16-16S548.2,695,557,695z M651.5,437l-49,1
			c0,0-0.5,47.6-0.5,63.5c0,23-23,54-55,54c0,0-97.5,1-130,1c-21,0-43,26-43,52v124c0,0,0,51,106,51s110-40,110-40l1-67L485.5,677
			v-13h161c0,0,56.5-3.5,58.5-114.5S651.5,437,651.5,437z"/>
		<path class="st32" d="M557.7,694.3c8.8,0,16,7.2,16,16s-7.2,16-16,16s-16-7.2-16-16S548.9,694.3,557.7,694.3z M652.2,436.3l-49,1
			c0,0-0.5,47.6-0.5,63.5c0,23-23,54-55,54c0,0-97.5,1-130,1c-21,0-43,26-43,52v124c0,0,0,51,106,51s110-40,110-40l1-67l-105.5,0.5
			v-13h161c0,0,56.5-3.5,58.5-114.5S652.2,436.3,652.2,436.3z"/>
		<path class="st33" d="M558.4,693.6c8.8,0,16,7.2,16,16s-7.2,16-16,16s-16-7.2-16-16S549.6,693.6,558.4,693.6z M652.9,435.6l-49,1
			c0,0-0.5,47.6-0.5,63.5c0,23-23,54-55,54c0,0-97.5,1-130,1c-21,0-43,26-43,52v124c0,0,0,51,106,51s110-40,110-40l1-67l-105.5,0.5
			v-13h161c0,0,56.5-3.5,58.5-114.5S652.9,435.6,652.9,435.6z"/>
		<path class="st34" d="M559.1,692.9c8.8,0,16,7.2,16,16s-7.2,16-16,16s-16-7.2-16-16S550.3,692.9,559.1,692.9z M653.6,434.9l-49,1
			c0,0-0.5,47.6-0.5,63.5c0,23-23,54-55,54c0,0-97.5,1-130,1c-21,0-43,26-43,52v124c0,0,0,51,106,51s110-40,110-40l1-67l-105.5,0.5
			v-13h161c0,0,56.5-3.5,58.5-114.5S653.6,434.9,653.6,434.9z"/>
		<path class="st35" d="M559.8,692.2c8.8,0,16,7.2,16,16s-7.2,16-16,16s-16-7.2-16-16S551,692.2,559.8,692.2z M654.3,434.2l-49,1
			c0,0-0.5,47.6-0.5,63.5c0,23-23,54-55,54c0,0-97.5,1-130,1c-21,0-43,26-43,52v124c0,0,0,51,106,51s110-40,110-40l1-67l-105.5,0.5
			v-13h161c0,0,56.5-3.5,58.5-114.5S654.3,434.2,654.3,434.2z"/>
		<path class="st36" d="M560.5,691.5c8.8,0,16,7.2,16,16s-7.2,16-16,16s-16-7.2-16-16S551.7,691.5,560.5,691.5z M655,433.5l-49,1
			c0,0-0.5,47.6-0.5,63.5c0,23-23,54-55,54c0,0-97.5,1-130,1c-21,0-43,26-43,52v124c0,0,0,51,106,51s110-40,110-40l1-67L489,673.5
			v-13h161c0,0,56.5-3.5,58.5-114.5S655,433.5,655,433.5z"/>
		<path class="st37" d="M561.2,690.8c8.8,0,16,7.2,16,16s-7.2,16-16,16s-16-7.2-16-16S552.4,690.8,561.2,690.8z M655.7,432.8l-49,1
			c0,0-0.5,47.6-0.5,63.5c0,23-23,54-55,54c0,0-97.5,1-130,1c-21,0-43,26-43,52v124c0,0,0,51,106,51s110-40,110-40l1-67l-105.5,0.5
			v-13h161c0,0,56.5-3.5,58.5-114.5S655.7,432.8,655.7,432.8z"/>
		<path class="st38" d="M562,690c8.8,0,16,7.2,16,16s-7.2,16-16,16s-16-7.2-16-16S553.1,690,562,690z M656.4,432l-49,1
			c0,0-0.5,47.6-0.5,63.5c0,23-23,54-55,54c0,0-97.5,1-130,1c-21,0-43,26-43,52v124c0,0,0,51,106,51s110-40,110-40l1-67L490.4,672
			v-13h161c0,0,56.5-3.5,58.5-114.5S656.4,432,656.4,432z"/>
		<path class="st39" d="M562.7,689.3c8.8,0,16,7.2,16,16s-7.2,16-16,16s-16-7.2-16-16S553.8,689.3,562.7,689.3z M657.1,431.3l-49,1
			c0,0-0.5,47.6-0.5,63.5c0,23-23,54-55,54c0,0-97.5,1-130,1c-21,0-43,26-43,52v124c0,0,0,51,106,51s110-40,110-40l1-67l-105.5,0.5
			v-13h161c0,0,56.5-3.5,58.5-114.5S657.1,431.3,657.1,431.3z"/>
		<path class="st40" d="M563.4,688.6c8.8,0,16,7.2,16,16s-7.2,16-16,16s-16-7.2-16-16S554.5,688.6,563.4,688.6z M657.8,430.6l-49,1
			c0,0-0.5,47.6-0.5,63.5c0,23-23,54-55,54c0,0-97.5,1-130,1c-21,0-43,26-43,52v124c0,0,0,51,106,51s110-40,110-40l1-67l-105.5,0.5
			v-13h161c0,0,56.5-3.5,58.5-114.5S657.8,430.6,657.8,430.6z"/>
		<path class="st41" d="M564.1,687.9c8.8,0,16,7.2,16,16s-7.2,16-16,16s-16-7.2-16-16S555.2,687.9,564.1,687.9z M658.5,429.9l-49,1
			c0,0-0.5,47.6-0.5,63.5c0,23-23,54-55,54c0,0-97.5,1-130,1c-21,0-43,26-43,52v124c0,0,0,51,106,51s110-40,110-40l1-67l-105.5,0.5
			v-13h161c0,0,56.5-3.5,58.5-114.5S658.5,429.9,658.5,429.9z"/>
		<path class="st42" d="M564.8,687.2c8.8,0,16,7.2,16,16s-7.2,16-16,16s-16-7.2-16-16S555.9,687.2,564.8,687.2z M659.2,429.2l-49,1
			c0,0-0.5,47.6-0.5,63.5c0,23-23,54-55,54c0,0-97.5,1-130,1c-21,0-43,26-43,52v124c0,0,0,51,106,51s110-40,110-40l1-67l-105.5,0.5
			v-13h161c0,0,56.5-3.5,58.5-114.5S659.2,429.2,659.2,429.2z"/>
		<path class="st43" d="M565.5,686.5c8.8,0,16,7.2,16,16s-7.2,16-16,16s-16-7.2-16-16S556.7,686.5,565.5,686.5z M659.9,428.5l-49,1
			c0,0-0.5,47.6-0.5,63.5c0,23-23,54-55,54c0,0-97.5,1-130,1c-21,0-43,26-43,52v124c0,0,0,51,106,51s110-40,110-40l1-67l-105.5,0.5
			v-13h161c0,0,56.5-3.5,58.5-114.5S659.9,428.5,659.9,428.5z"/>
		<path class="st44" d="M566.2,685.8c8.8,0,16,7.2,16,16s-7.2,16-16,16s-16-7.2-16-16S557.4,685.8,566.2,685.8z M660.6,427.8l-49,1
			c0,0-0.5,47.6-0.5,63.5c0,23-23,54-55,54c0,0-97.5,1-130,1c-21,0-43,26-43,52v124c0,0,0,51,106,51s110-40,110-40l1-67l-105.5,0.5
			v-13h161c0,0,56.5-3.5,58.5-114.5S660.6,427.8,660.6,427.8z"/>
		<path class="st45" d="M566.9,685.1c8.8,0,16,7.2,16,16s-7.2,16-16,16s-16-7.2-16-16S558.1,685.1,566.9,685.1z M661.4,427.1l-49,1
			c0,0-0.5,47.6-0.5,63.5c0,23-23,54-55,54c0,0-97.5,1-130,1c-21,0-43,26-43,52v124c0,0,0,51,106,51s110-40,110-40l1-67l-105.5,0.5
			v-13h161c0,0,56.5-3.5,58.5-114.5S661.4,427.1,661.4,427.1z"/>
		<path class="st46" d="M567.6,684.4c8.8,0,16,7.2,16,16s-7.2,16-16,16s-16-7.2-16-16S558.8,684.4,567.6,684.4z M662.1,426.4l-49,1
			c0,0-0.5,47.6-0.5,63.5c0,23-23,54-55,54c0,0-97.5,1-130,1c-21,0-43,26-43,52v124c0,0,0,51,106,51s110-40,110-40l1-67l-105.5,0.5
			v-13h161c0,0,56.5-3.5,58.5-114.5S662.1,426.4,662.1,426.4z"/>
		<path class="st47" d="M568.3,683.7c8.8,0,16,7.2,16,16s-7.2,16-16,16s-16-7.2-16-16S559.5,683.7,568.3,683.7z M662.8,425.7l-49,1
			c0,0-0.5,47.6-0.5,63.5c0,23-23,54-55,54c0,0-97.5,1-130,1c-21,0-43,26-43,52v124c0,0,0,51,106,51s110-40,110-40l1-67l-105.5,0.5
			v-13h161c0,0,56.5-3.5,58.5-114.5S662.8,425.7,662.8,425.7z"/>
		<path class="st48" d="M569,683c8.8,0,16,7.2,16,16s-7.2,16-16,16s-16-7.2-16-16S560.2,683,569,683z M663.5,425l-49,1
			c0,0-0.5,47.6-0.5,63.5c0,23-23,54-55,54c0,0-97.5,1-130,1c-21,0-43,26-43,52v124c0,0,0,51,106,51s110-40,110-40l1-67L497.5,665
			v-13h161c0,0,56.5-3.5,58.5-114.5S663.5,425,663.5,425z"/>
		<path class="st49" d="M569.7,682.3c8.8,0,16,7.2,16,16s-7.2,16-16,16s-16-7.2-16-16S560.9,682.3,569.7,682.3z M664.2,424.3l-49,1
			c0,0-0.5,47.6-0.5,63.5c0,23-23,54-55,54c0,0-97.5,1-130,1c-21,0-43,26-43,52v124c0,0,0,51,106,51s110-40,110-40l1-67l-105.5,0.5
			v-13h161c0,0,56.5-3.5,58.5-114.5S664.2,424.3,664.2,424.3z"/>
		<path class="st50" d="M570.4,681.6c8.8,0,16,7.2,16,16s-7.2,16-16,16s-16-7.2-16-16S561.6,681.6,570.4,681.6z M664.9,423.6l-49,1
			c0,0-0.5,47.6-0.5,63.5c0,23-23,54-55,54c0,0-97.5,1-130,1c-21,0-43,26-43,52v124c0,0,0,51,106,51s110-40,110-40l1-67l-105.5,0.5
			v-13h161c0,0,56.5-3.5,58.5-114.5S664.9,423.6,664.9,423.6z"/>
		<path class="st51" d="M571.1,680.9c8.8,0,16,7.2,16,16s-7.2,16-16,16s-16-7.2-16-16S562.3,680.9,571.1,680.9z M665.6,422.9l-49,1
			c0,0-0.5,47.6-0.5,63.5c0,23-23,54-55,54c0,0-97.5,1-130,1c-21,0-43,26-43,52v124c0,0,0,51,106,51s110-40,110-40l1-67l-105.5,0.5
			v-13h161c0,0,56.5-3.5,58.5-114.5S665.6,422.9,665.6,422.9z"/>
		<path class="st52" d="M571.9,680.1c8.8,0,16,7.2,16,16s-7.2,16-16,16s-16-7.2-16-16S563,680.1,571.9,680.1z M666.3,422.1l-49,1
			c0,0-0.5,47.6-0.5,63.5c0,23-23,54-55,54c0,0-97.5,1-130,1c-21,0-43,26-43,52v124c0,0,0,51,106,51s110-40,110-40l1-67l-105.5,0.5
			v-13h161c0,0,56.5-3.5,58.5-114.5S666.3,422.1,666.3,422.1z"/>
		<path class="st53" d="M572.6,679.4c8.8,0,16,7.2,16,16s-7.2,16-16,16s-16-7.2-16-16S563.7,679.4,572.6,679.4z M667,421.4l-49,1
			c0,0-0.5,47.6-0.5,63.5c0,23-23,54-55,54c0,0-97.5,1-130,1c-21,0-43,26-43,52v124c0,0,0,51,106,51s110-40,110-40l1-67L501,661.4
			v-13h161c0,0,56.5-3.5,58.5-114.5S667,421.4,667,421.4z"/>
		<path class="st54" d="M573.3,678.7c8.8,0,16,7.2,16,16s-7.2,16-16,16s-16-7.2-16-16S564.4,678.7,573.3,678.7z M667.7,420.7l-49,1
			c0,0-0.5,47.6-0.5,63.5c0,23-23,54-55,54c0,0-97.5,1-130,1c-21,0-43,26-43,52v124c0,0,0,51,106,51s110-40,110-40l1-67l-105.5,0.5
			v-13h161c0,0,56.5-3.5,58.5-114.5S667.7,420.7,667.7,420.7z"/>
		<path class="st55" d="M574,678c8.8,0,16,7.2,16,16s-7.2,16-16,16s-16-7.2-16-16S565.1,678,574,678z M668.4,420l-49,1
			c0,0-0.5,47.6-0.5,63.5c0,23-23,54-55,54c0,0-97.5,1-130,1c-21,0-43,26-43,52v124c0,0,0,51,106,51s110-40,110-40l1-67L502.4,660
			v-13h161c0,0,56.5-3.5,58.5-114.5S668.4,420,668.4,420z"/>
		<path class="st56" d="M574.7,677.3c8.8,0,16,7.2,16,16s-7.2,16-16,16s-16-7.2-16-16S565.8,677.3,574.7,677.3z M669.1,419.3l-49,1
			c0,0-0.5,47.6-0.5,63.5c0,23-23,54-55,54c0,0-97.5,1-130,1c-21,0-43,26-43,52v124c0,0,0,51,106,51s110-40,110-40l1-67l-105.5,0.5
			v-13h161c0,0,56.5-3.5,58.5-114.5S669.1,419.3,669.1,419.3z"/>
		<path class="st57" d="M575.4,676.6c8.8,0,16,7.2,16,16s-7.2,16-16,16s-16-7.2-16-16S566.6,676.6,575.4,676.6z M669.8,418.6l-49,1
			c0,0-0.5,47.6-0.5,63.5c0,23-23,54-55,54c0,0-97.5,1-130,1c-21,0-43,26-43,52v124c0,0,0,51,106,51s110-40,110-40l1-67l-105.5,0.5
			v-13h161c0,0,56.5-3.5,58.5-114.5S669.8,418.6,669.8,418.6z"/>
		<path class="st58" d="M576.1,675.9c8.8,0,16,7.2,16,16s-7.2,16-16,16s-16-7.2-16-16S567.3,675.9,576.1,675.9z M670.5,417.9l-49,1
			c0,0-0.5,47.6-0.5,63.5c0,23-23,54-55,54c0,0-97.5,1-130,1c-21,0-43,26-43,52v124c0,0,0,51,106,51s110-40,110-40l1-67l-105.5,0.5
			v-13h161c0,0,56.5-3.5,58.5-114.5S670.5,417.9,670.5,417.9z"/>
		<path class="st59" d="M576.8,675.2c8.8,0,16,7.2,16,16s-7.2,16-16,16s-16-7.2-16-16S568,675.2,576.8,675.2z M671.3,417.2l-49,1
			c0,0-0.5,47.6-0.5,63.5c0,23-23,54-55,54c0,0-97.5,1-130,1c-21,0-43,26-43,52v124c0,0,0,51,106,51s110-40,110-40l1-67l-105.5,0.5
			v-13h161c0,0,56.5-3.5,58.5-114.5S671.3,417.2,671.3,417.2z"/>
		<path class="st60" d="M577.5,674.5c8.8,0,16,7.2,16,16s-7.2,16-16,16s-16-7.2-16-16S568.7,674.5,577.5,674.5z M672,416.5l-49,1
			c0,0-0.5,47.6-0.5,63.5c0,23-23,54-55,54c0,0-97.5,1-130,1c-21,0-43,26-43,52v124c0,0,0,51,106,51s110-40,110-40l1-67L506,656.5
			v-13h161c0,0,56.5-3.5,58.5-114.5S672,416.5,672,416.5z"/>
		<path class="st61" d="M578.2,673.8c8.8,0,16,7.2,16,16s-7.2,16-16,16s-16-7.2-16-16S569.4,673.8,578.2,673.8z M672.7,415.8l-49,1
			c0,0-0.5,47.6-0.5,63.5c0,23-23,54-55,54c0,0-97.5,1-130,1c-21,0-43,26-43,52v124c0,0,0,51,106,51s110-40,110-40l1-67l-105.5,0.5
			v-13h161c0,0,56.5-3.5,58.5-114.5S672.7,415.8,672.7,415.8z"/>
		<path class="st62" d="M578.9,673.1c8.8,0,16,7.2,16,16s-7.2,16-16,16s-16-7.2-16-16S570.1,673.1,578.9,673.1z M673.4,415.1l-49,1
			c0,0-0.5,47.6-0.5,63.5c0,23-23,54-55,54c0,0-97.5,1-130,1c-21,0-43,26-43,52v124c0,0,0,51,106,51s110-40,110-40l1-67l-105.5,0.5
			v-13h161c0,0,56.5-3.5,58.5-114.5S673.4,415.1,673.4,415.1z"/>
		<path class="st63" d="M579.6,672.4c8.8,0,16,7.2,16,16s-7.2,16-16,16s-16-7.2-16-16S570.8,672.4,579.6,672.4z M674.1,414.4l-49,1
			c0,0-0.5,47.6-0.5,63.5c0,23-23,54-55,54c0,0-97.5,1-130,1c-21,0-43,26-43,52v124c0,0,0,51,106,51s110-40,110-40l1-67l-105.5,0.5
			v-13h161c0,0,56.5-3.5,58.5-114.5S674.1,414.4,674.1,414.4z"/>
		<path class="st64" d="M580.3,671.7c8.8,0,16,7.2,16,16s-7.2,16-16,16s-16-7.2-16-16S571.5,671.7,580.3,671.7z M674.8,413.7l-49,1
			c0,0-0.5,47.6-0.5,63.5c0,23-23,54-55,54c0,0-97.5,1-130,1c-21,0-43,26-43,52v124c0,0,0,51,106,51s110-40,110-40l1-67l-105.5,0.5
			v-13h161c0,0,56.5-3.5,58.5-114.5S674.8,413.7,674.8,413.7z"/>
		<path class="st65" d="M581,671c8.8,0,16,7.2,16,16s-7.2,16-16,16s-16-7.2-16-16S572.2,671,581,671z M675.5,413l-49,1
			c0,0-0.5,47.6-0.5,63.5c0,23-23,54-55,54c0,0-97.5,1-130,1c-21,0-43,26-43,52v124c0,0,0,51,106,51s110-40,110-40l1-67L509.5,653
			v-13h161c0,0,56.5-3.5,58.5-114.5S675.5,413,675.5,413z"/>
		<path class="st66" d="M581.8,670.2c8.8,0,16,7.2,16,16s-7.2,16-16,16s-16-7.2-16-16S572.9,670.2,581.8,670.2z M676.2,412.2l-49,1
			c0,0-0.5,47.6-0.5,63.5c0,23-23,54-55,54c0,0-97.5,1-130,1c-21,0-43,26-43,52v124c0,0,0,51,106,51s110-40,110-40l1-67l-105.5,0.5
			v-13h161c0,0,56.5-3.5,58.5-114.5S676.2,412.2,676.2,412.2z"/>
		<path class="st67" d="M582.5,669.5c8.8,0,16,7.2,16,16s-7.2,16-16,16s-16-7.2-16-16S573.6,669.5,582.5,669.5z M676.9,411.5l-49,1
			c0,0-0.5,47.6-0.5,63.5c0,23-23,54-55,54c0,0-97.5,1-130,1c-21,0-43,26-43,52v124c0,0,0,51,106,51s110-40,110-40l1-67l-105.5,0.5
			v-13h161c0,0,56.5-3.5,58.5-114.5S676.9,411.5,676.9,411.5z"/>
		<path class="st68" d="M583.2,668.8c8.8,0,16,7.2,16,16s-7.2,16-16,16s-16-7.2-16-16S574.3,668.8,583.2,668.8z M677.6,410.8l-49,1
			c0,0-0.5,47.6-0.5,63.5c0,23-23,54-55,54c0,0-97.5,1-130,1c-21,0-43,26-43,52v124c0,0,0,51,106,51s110-40,110-40l1-67l-105.5,0.5
			v-13h161c0,0,56.5-3.5,58.5-114.5S677.6,410.8,677.6,410.8z"/>
		<path class="st69" d="M583.9,668.1c8.8,0,16,7.2,16,16s-7.2,16-16,16s-16-7.2-16-16S575,668.1,583.9,668.1z M678.3,410.1l-49,1
			c0,0-0.5,47.6-0.5,63.5c0,23-23,54-55,54c0,0-97.5,1-130,1c-21,0-43,26-43,52v124c0,0,0,51,106,51s110-40,110-40l1-67l-105.5,0.5
			v-13h161c0,0,56.5-3.5,58.5-114.5S678.3,410.1,678.3,410.1z"/>
		<path class="st70" d="M584.6,667.4c8.8,0,16,7.2,16,16s-7.2,16-16,16s-16-7.2-16-16S575.7,667.4,584.6,667.4z M679,409.4l-49,1
			c0,0-0.5,47.6-0.5,63.5c0,23-23,54-55,54c0,0-97.5,1-130,1c-21,0-43,26-43,52v124c0,0,0,51,106,51s110-40,110-40l1-67L513,649.4
			v-13h161c0,0,56.5-3.5,58.5-114.5S679,409.4,679,409.4z"/>
		<path class="st71" d="M585.3,666.7c8.8,0,16,7.2,16,16s-7.2,16-16,16s-16-7.2-16-16S576.5,666.7,585.3,666.7z M679.7,408.7l-49,1
			c0,0-0.5,47.6-0.5,63.5c0,23-23,54-55,54c0,0-97.5,1-130,1c-21,0-43,26-43,52v124c0,0,0,51,106,51s110-40,110-40l1-67l-105.5,0.5
			v-13h161c0,0,56.5-3.5,58.5-114.5S679.7,408.7,679.7,408.7z"/>
		<path class="st72" d="M586,666c8.8,0,16,7.2,16,16s-7.2,16-16,16s-16-7.2-16-16S577.2,666,586,666z M680.4,408l-49,1
			c0,0-0.5,47.6-0.5,63.5c0,23-23,54-55,54c0,0-97.5,1-130,1c-21,0-43,26-43,52v124c0,0,0,51,106,51s110-40,110-40l1-67L514.4,648
			v-13h161c0,0,56.5-3.5,58.5-114.5S680.4,408,680.4,408z"/>
		<path class="st73" d="M586.7,665.3c8.8,0,16,7.2,16,16s-7.2,16-16,16s-16-7.2-16-16S577.9,665.3,586.7,665.3z M681.1,407.3l-49,1
			c0,0-0.5,47.6-0.5,63.5c0,23-23,54-55,54c0,0-97.5,1-130,1c-21,0-43,26-43,52v124c0,0,0,51,106,51s110-40,110-40l1-67l-105.5,0.5
			v-13h161c0,0,56.5-3.5,58.5-114.5S681.1,407.3,681.1,407.3z"/>
		<path class="st74" d="M587.4,664.6c8.8,0,16,7.2,16,16s-7.2,16-16,16s-16-7.2-16-16S578.6,664.6,587.4,664.6z M681.9,406.6l-49,1
			c0,0-0.5,47.6-0.5,63.5c0,23-23,54-55,54c0,0-97.5,1-130,1c-21,0-43,26-43,52v124c0,0,0,51,106,51s110-40,110-40l1-67l-105.5,0.5
			v-13h161c0,0,56.5-3.5,58.5-114.5S681.9,406.6,681.9,406.6z"/>
		<path class="st75" d="M588.1,663.9c8.8,0,16,7.2,16,16s-7.2,16-16,16s-16-7.2-16-16S579.3,663.9,588.1,663.9z M682.6,405.9l-49,1
			c0,0-0.5,47.6-0.5,63.5c0,23-23,54-55,54c0,0-97.5,1-130,1c-21,0-43,26-43,52v124c0,0,0,51,106,51s110-40,110-40l1-67l-105.5,0.5
			v-13h161c0,0,56.5-3.5,58.5-114.5S682.6,405.9,682.6,405.9z"/>
		<path class="st76" d="M588.8,663.2c8.8,0,16,7.2,16,16s-7.2,16-16,16s-16-7.2-16-16S580,663.2,588.8,663.2z M683.3,405.2l-49,1
			c0,0-0.5,47.6-0.5,63.5c0,23-23,54-55,54c0,0-97.5,1-130,1c-21,0-43,26-43,52v124c0,0,0,51,106,51s110-40,110-40l1-67l-105.5,0.5
			v-13h161c0,0,56.5-3.5,58.5-114.5S683.3,405.2,683.3,405.2z"/>
		<path class="st77" d="M589.5,662.5c8.8,0,16,7.2,16,16s-7.2,16-16,16s-16-7.2-16-16S580.7,662.5,589.5,662.5z M684,404.5l-49,1
			c0,0-0.5,47.6-0.5,63.5c0,23-23,54-55,54c0,0-97.5,1-130,1c-21,0-43,26-43,52v124c0,0,0,51,106,51s110-40,110-40l1-67L518,644.5
			v-13h161c0,0,56.5-3.5,58.5-114.5S684,404.5,684,404.5z"/>
		<path class="st78" d="M590.2,661.8c8.8,0,16,7.2,16,16s-7.2,16-16,16s-16-7.2-16-16S581.4,661.8,590.2,661.8z M684.7,403.8l-49,1
			c0,0-0.5,47.6-0.5,63.5c0,23-23,54-55,54c0,0-97.5,1-130,1c-21,0-43,26-43,52v124c0,0,0,51,106,51s110-40,110-40l1-67l-105.5,0.5
			v-13h161c0,0,56.5-3.5,58.5-114.5S684.7,403.8,684.7,403.8z"/>
		<path class="st79" d="M590.9,661.1c8.8,0,16,7.2,16,16s-7.2,16-16,16s-16-7.2-16-16S582.1,661.1,590.9,661.1z M685.4,403.1l-49,1
			c0,0-0.5,47.6-0.5,63.5c0,23-23,54-55,54c0,0-97.5,1-130,1c-21,0-43,26-43,52v124c0,0,0,51,106,51s110-40,110-40l1-67l-105.5,0.5
			v-13h161c0,0,56.5-3.5,58.5-114.5S685.4,403.1,685.4,403.1z"/>
		<path class="st80" d="M591.7,660.3c8.8,0,16,7.2,16,16s-7.2,16-16,16s-16-7.2-16-16S582.8,660.3,591.7,660.3z M686.1,402.3l-49,1
			c0,0-0.5,47.6-0.5,63.5c0,23-23,54-55,54c0,0-97.5,1-130,1c-21,0-43,26-43,52v124c0,0,0,51,106,51s110-40,110-40l1-67l-105.5,0.5
			v-13h161c0,0,56.5-3.5,58.5-114.5S686.1,402.3,686.1,402.3z"/>
		<path class="st81" d="M592.4,659.6c8.8,0,16,7.2,16,16s-7.2,16-16,16s-16-7.2-16-16S583.5,659.6,592.4,659.6z M686.8,401.6l-49,1
			c0,0-0.5,47.6-0.5,63.5c0,23-23,54-55,54c0,0-97.5,1-130,1c-21,0-43,26-43,52v124c0,0,0,51,106,51s110-40,110-40l1-67l-105.5,0.5
			v-13h161c0,0,56.5-3.5,58.5-114.5S686.8,401.6,686.8,401.6z"/>
		<path class="st82" d="M593.1,658.9c8.8,0,16,7.2,16,16s-7.2,16-16,16s-16-7.2-16-16S584.2,658.9,593.1,658.9z M687.5,400.9l-49,1
			c0,0-0.5,47.6-0.5,63.5c0,23-23,54-55,54c0,0-97.5,1-130,1c-21,0-43,26-43,52v124c0,0,0,51,106,51s110-40,110-40l1-67l-105.5,0.5
			v-13h161c0,0,56.5-3.5,58.5-114.5S687.5,400.9,687.5,400.9z"/>
		<path class="st83" d="M593.8,658.2c8.8,0,16,7.2,16,16s-7.2,16-16,16s-16-7.2-16-16S584.9,658.2,593.8,658.2z M688.2,400.2l-49,1
			c0,0-0.5,47.6-0.5,63.5c0,23-23,54-55,54c0,0-97.5,1-130,1c-21,0-43,26-43,52v124c0,0,0,51,106,51s110-40,110-40l1-67l-105.5,0.5
			v-13h161c0,0,56.5-3.5,58.5-114.5S688.2,400.2,688.2,400.2z"/>
		<path class="st84" d="M594.5,657.5c8.8,0,16,7.2,16,16s-7.2,16-16,16s-16-7.2-16-16S585.6,657.5,594.5,657.5z M688.9,399.5l-49,1
			c0,0-0.5,47.6-0.5,63.5c0,23-23,54-55,54c0,0-97.5,1-130,1c-21,0-43,26-43,52v124c0,0,0,51,106,51s110-40,110-40l1-67l-105.5,0.5
			v-13h161c0,0,56.5-3.5,58.5-114.5S688.9,399.5,688.9,399.5z"/>
		<path class="st85" d="M595.2,656.8c8.8,0,16,7.2,16,16s-7.2,16-16,16s-16-7.2-16-16S586.4,656.8,595.2,656.8z M689.6,398.8l-49,1
			c0,0-0.5,47.6-0.5,63.5c0,23-23,54-55,54c0,0-97.5,1-130,1c-21,0-43,26-43,52v124c0,0,0,51,106,51s110-40,110-40l1-67l-105.5,0.5
			v-13h161c0,0,56.5-3.5,58.5-114.5S689.6,398.8,689.6,398.8z"/>
		<path class="st86" d="M595.9,656.1c8.8,0,16,7.2,16,16s-7.2,16-16,16s-16-7.2-16-16S587.1,656.1,595.9,656.1z M690.3,398.1l-49,1
			c0,0-0.5,47.6-0.5,63.5c0,23-23,54-55,54c0,0-97.5,1-130,1c-21,0-43,26-43,52v124c0,0,0,51,106,51s110-40,110-40l1-67l-105.5,0.5
			v-13h161c0,0,56.5-3.5,58.5-114.5S690.3,398.1,690.3,398.1z"/>
		<path class="st87" d="M596.6,655.4c8.8,0,16,7.2,16,16s-7.2,16-16,16s-16-7.2-16-16S587.8,655.4,596.6,655.4z M691,397.4l-49,1
			c0,0-0.5,47.6-0.5,63.5c0,23-23,54-55,54c0,0-97.5,1-130,1c-21,0-43,26-43,52v124c0,0,0,51,106,51s110-40,110-40l1-67L525,637.4
			v-13h161c0,0,56.5-3.5,58.5-114.5S691,397.4,691,397.4z"/>
		<path class="st88" d="M597.3,654.7c8.8,0,16,7.2,16,16s-7.2,16-16,16s-16-7.2-16-16S588.5,654.7,597.3,654.7z M691.8,396.7l-49,1
			c0,0-0.5,47.6-0.5,63.5c0,23-23,54-55,54c0,0-97.5,1-130,1c-21,0-43,26-43,52v124c0,0,0,51,106,51s110-40,110-40l1-67l-105.5,0.5
			v-13h161c0,0,56.5-3.5,58.5-114.5S691.8,396.7,691.8,396.7z"/>
		<path class="st89" d="M598,654c8.8,0,16,7.2,16,16s-7.2,16-16,16s-16-7.2-16-16S589.2,654,598,654z M692.5,396l-49,1
			c0,0-0.5,47.6-0.5,63.5c0,23-23,54-55,54c0,0-97.5,1-130,1c-21,0-43,26-43,52v124c0,0,0,51,106,51s110-40,110-40l1-67L526.5,636
			v-13h161c0,0,56.5-3.5,58.5-114.5S692.5,396,692.5,396z"/>
		<path class="st90" d="M598.7,653.3c8.8,0,16,7.2,16,16s-7.2,16-16,16s-16-7.2-16-16S589.9,653.3,598.7,653.3z M693.2,395.3l-49,1
			c0,0-0.5,47.6-0.5,63.5c0,23-23,54-55,54c0,0-97.5,1-130,1c-21,0-43,26-43,52v124c0,0,0,51,106,51s110-40,110-40l1-67l-105.5,0.5
			v-13h161c0,0,56.5-3.5,58.5-114.5S693.2,395.3,693.2,395.3z"/>
		<path class="st91" d="M599.4,652.6c8.8,0,16,7.2,16,16s-7.2,16-16,16s-16-7.2-16-16S590.6,652.6,599.4,652.6z M693.9,394.6l-49,1
			c0,0-0.5,47.6-0.5,63.5c0,23-23,54-55,54c0,0-97.5,1-130,1c-21,0-43,26-43,52v124c0,0,0,51,106,51s110-40,110-40l1-67l-105.5,0.5
			v-13h161c0,0,56.5-3.5,58.5-114.5S693.9,394.6,693.9,394.6z"/>
		<path class="st92" d="M600.1,651.9c8.8,0,16,7.2,16,16s-7.2,16-16,16s-16-7.2-16-16S591.3,651.9,600.1,651.9z M694.6,393.9l-49,1
			c0,0-0.5,47.6-0.5,63.5c0,23-23,54-55,54c0,0-97.5,1-130,1c-21,0-43,26-43,52v124c0,0,0,51,106,51s110-40,110-40l1-67l-105.5,0.5
			v-13h161c0,0,56.5-3.5,58.5-114.5S694.6,393.9,694.6,393.9z"/>
		<path class="st93" d="M600.8,651.2c8.8,0,16,7.2,16,16s-7.2,16-16,16s-16-7.2-16-16S592,651.2,600.8,651.2z M695.3,393.2l-49,1
			c0,0-0.5,47.6-0.5,63.5c0,23-23,54-55,54c0,0-97.5,1-130,1c-21,0-43,26-43,52v124c0,0,0,51,106,51s110-40,110-40l1-67l-105.5,0.5
			v-13h161c0,0,56.5-3.5,58.5-114.5S695.3,393.2,695.3,393.2z"/>
		<path class="st94" d="M601.6,650.4c8.8,0,16,7.2,16,16s-7.2,16-16,16s-16-7.2-16-16S592.7,650.4,601.6,650.4z M696,392.4l-49,1
			c0,0-0.5,47.6-0.5,63.5c0,23-23,54-55,54c0,0-97.5,1-130,1c-21,0-43,26-43,52v124c0,0,0,51,106,51s110-40,110-40l1-67L530,632.4
			v-13h161c0,0,56.5-3.5,58.5-114.5S696,392.4,696,392.4z"/>
		<path class="st95" d="M602.3,649.7c8.8,0,16,7.2,16,16s-7.2,16-16,16s-16-7.2-16-16S593.4,649.7,602.3,649.7z M696.7,391.7l-49,1
			c0,0-0.5,47.6-0.5,63.5c0,23-23,54-55,54c0,0-97.5,1-130,1c-21,0-43,26-43,52v124c0,0,0,51,106,51s110-40,110-40l1-67l-105.5,0.5
			v-13h161c0,0,56.5-3.5,58.5-114.5S696.7,391.7,696.7,391.7z"/>
		<path class="st96" d="M603,649c8.8,0,16,7.2,16,16s-7.2,16-16,16s-16-7.2-16-16S594.1,649,603,649z M697.4,391l-49,1
			c0,0-0.5,47.6-0.5,63.5c0,23-23,54-55,54c0,0-97.5,1-130,1c-21,0-43,26-43,52v124c0,0,0,51,106,51s110-40,110-40l1-67L531.4,631
			v-13h161c0,0,56.5-3.5,58.5-114.5S697.4,391,697.4,391z"/>
		<path class="st97" d="M603.7,648.3c8.8,0,16,7.2,16,16s-7.2,16-16,16s-16-7.2-16-16S594.8,648.3,603.7,648.3z M698.1,390.3l-49,1
			c0,0-0.5,47.6-0.5,63.5c0,23-23,54-55,54c0,0-97.5,1-130,1c-21,0-43,26-43,52v124c0,0,0,51,106,51s110-40,110-40l1-67l-105.5,0.5
			v-13h161c0,0,56.5-3.5,58.5-114.5S698.1,390.3,698.1,390.3z"/>
		<path class="st98" d="M604.4,647.6c8.8,0,16,7.2,16,16s-7.2,16-16,16s-16-7.2-16-16S595.5,647.6,604.4,647.6z M698.8,389.6l-49,1
			c0,0-0.5,47.6-0.5,63.5c0,23-23,54-55,54c0,0-97.5,1-130,1c-21,0-43,26-43,52v124c0,0,0,51,106,51s110-40,110-40l1-67l-105.5,0.5
			v-13h161c0,0,56.5-3.5,58.5-114.5S698.8,389.6,698.8,389.6z"/>
		<path class="st99" d="M605.1,646.9c8.8,0,16,7.2,16,16s-7.2,16-16,16s-16-7.2-16-16S596.2,646.9,605.1,646.9z M699.5,388.9l-49,1
			c0,0-0.5,47.6-0.5,63.5c0,23-23,54-55,54c0,0-97.5,1-130,1c-21,0-43,26-43,52v124c0,0,0,51,106,51s110-40,110-40l1-67l-105.5,0.5
			v-13h161c0,0,56.5-3.5,58.5-114.5S699.5,388.9,699.5,388.9z"/>
		<path class="st100" d="M605.8,646.2c8.8,0,16,7.2,16,16s-7.2,16-16,16s-16-7.2-16-16S597,646.2,605.8,646.2z M700.2,388.2l-49,1
			c0,0-0.5,47.6-0.5,63.5c0,23-23,54-55,54c0,0-97.5,1-130,1c-21,0-43,26-43,52v124c0,0,0,51,106,51s110-40,110-40l1-67l-105.5,0.5
			v-13h161c0,0,56.5-3.5,58.5-114.5S700.2,388.2,700.2,388.2z"/>
		<path d="M606.5,645.5c8.8,0,16,7.2,16,16s-7.2,16-16,16s-16-7.2-16-16S597.7,645.5,606.5,645.5z M700.9,387.5l-49,1
			c0,0-0.5,47.6-0.5,63.5c0,23-23,54-55,54c0,0-97.5,1-130,1c-21,0-43,26-43,52v124c0,0,0,51,106,51s110-40,110-40l1-67l-105.5,0.5
			v-13h161c0,0,56.5-3.5,58.5-114.5S700.9,387.5,700.9,387.5z"/>
	</g>
	<g class="st1">
		<path class="st101" d="M390.5,424.5c-8.8,0-16-7.2-16-16s7.2-16,16-16s16,7.2,16,16S399.3,424.5,390.5,424.5z M465.5,340.5
			c-106,0-110,40-110,40l-1,67L460,447v13H299c0,0-56.5,3.5-58.5,114.5S294,687,294,687l49-1c0,0,0.5-47.6,0.5-63.5
			c0-23,23-54,55-54c0,0,97.5-1,130-1c21,0,43-26,43-52v-124C571.5,391.5,571.5,340.5,465.5,340.5z"/>
		<path class="st102" d="M391.2,423.8c-8.8,0-16-7.2-16-16s7.2-16,16-16s16,7.2,16,16S400,423.8,391.2,423.8z M466.2,339.8
			c-106,0-110,40-110,40l-1,67l105.5-0.5v13h-161c0,0-56.5,3.5-58.5,114.5s53.5,112.5,53.5,112.5l49-1c0,0,0.5-47.6,0.5-63.5
			c0-23,23-54,55-54c0,0,97.5-1,130-1c21,0,43-26,43-52v-124C572.2,390.8,572.2,339.8,466.2,339.8z"/>
		<path class="st103" d="M391.9,423.1c-8.8,0-16-7.2-16-16s7.2-16,16-16s16,7.2,16,16S400.8,423.1,391.9,423.1z M466.9,339.1
			c-106,0-110,40-110,40l-1,67l105.5-0.5v13h-161c0,0-56.5,3.5-58.5,114.5s53.5,112.5,53.5,112.5l49-1c0,0,0.5-47.6,0.5-63.5
			c0-23,23-54,55-54c0,0,97.5-1,130-1c21,0,43-26,43-52v-124C572.9,390.1,572.9,339.1,466.9,339.1z"/>
		<path class="st104" d="M392.6,422.4c-8.8,0-16-7.2-16-16s7.2-16,16-16s16,7.2,16,16S401.5,422.4,392.6,422.4z M467.6,338.4
			c-106,0-110,40-110,40l-1,67l105.5-0.5v13h-161c0,0-56.5,3.5-58.5,114.5s53.5,112.5,53.5,112.5l49-1c0,0,0.5-47.6,0.5-63.5
			c0-23,23-54,55-54c0,0,97.5-1,130-1c21,0,43-26,43-52v-124C573.6,389.4,573.6,338.4,467.6,338.4z"/>
		<path class="st105" d="M393.3,421.7c-8.8,0-16-7.2-16-16s7.2-16,16-16s16,7.2,16,16S402.2,421.7,393.3,421.7z M468.3,337.7
			c-106,0-110,40-110,40l-1,67l105.5-0.5v13h-161c0,0-56.5,3.5-58.5,114.5s53.5,112.5,53.5,112.5l49-1c0,0,0.5-47.6,0.5-63.5
			c0-23,23-54,55-54c0,0,97.5-1,130-1c21,0,43-26,43-52v-124C574.3,388.7,574.3,337.7,468.3,337.7z"/>
		<path class="st106" d="M394,421c-8.8,0-16-7.2-16-16s7.2-16,16-16s16,7.2,16,16S402.9,421,394,421z M469,337c-106,0-110,40-110,40
			l-1,67l105.5-0.5v13h-161c0,0-56.5,3.5-58.5,114.5s53.5,112.5,53.5,112.5l49-1c0,0,0.5-47.6,0.5-63.5c0-23,23-54,55-54
			c0,0,97.5-1,130-1c21,0,43-26,43-52V388C575,388,575,337,469,337z"/>
		<path class="st107" d="M394.7,420.3c-8.8,0-16-7.2-16-16s7.2-16,16-16s16,7.2,16,16S403.6,420.3,394.7,420.3z M469.7,336.3
			c-106,0-110,40-110,40l-1,67l105.5-0.5v13h-161c0,0-56.5,3.5-58.5,114.5s53.5,112.5,53.5,112.5l49-1c0,0,0.5-47.6,0.5-63.5
			c0-23,23-54,55-54c0,0,97.5-1,130-1c21,0,43-26,43-52v-124C575.7,387.3,575.7,336.3,469.7,336.3z"/>
		<path class="st108" d="M395.4,419.6c-8.8,0-16-7.2-16-16s7.2-16,16-16s16,7.2,16,16S404.3,419.6,395.4,419.6z M470.4,335.6
			c-106,0-110,40-110,40l-1,67l105.5-0.5v13h-161c0,0-56.5,3.5-58.5,114.5s53.5,112.5,53.5,112.5l49-1c0,0,0.5-47.6,0.5-63.5
			c0-23,23-54,55-54c0,0,97.5-1,130-1c21,0,43-26,43-52v-124C576.4,386.6,576.4,335.6,470.4,335.6z"/>
		<path class="st109" d="M396.2,418.8c-8.8,0-16-7.2-16-16s7.2-16,16-16s16,7.2,16,16S405,418.8,396.2,418.8z M471.2,334.8
			c-106,0-110,40-110,40l-1,67l105.5-0.5v13h-161c0,0-56.5,3.5-58.5,114.5s53.5,112.5,53.5,112.5l49-1c0,0,0.5-47.6,0.5-63.5
			c0-23,23-54,55-54c0,0,97.5-1,130-1c21,0,43-26,43-52v-124C577.2,385.8,577.2,334.8,471.2,334.8z"/>
		<path class="st110" d="M396.9,418.1c-8.8,0-16-7.2-16-16s7.2-16,16-16s16,7.2,16,16S405.7,418.1,396.9,418.1z M471.9,334.1
			c-106,0-110,40-110,40l-1,67l105.5-0.5v13h-161c0,0-56.5,3.5-58.5,114.5s53.5,112.5,53.5,112.5l49-1c0,0,0.5-47.6,0.5-63.5
			c0-23,23-54,55-54c0,0,97.5-1,130-1c21,0,43-26,43-52v-124C577.9,385.1,577.9,334.1,471.9,334.1z"/>
		<path class="st111" d="M397.6,417.4c-8.8,0-16-7.2-16-16s7.2-16,16-16s16,7.2,16,16S406.4,417.4,397.6,417.4z M472.6,333.4
			c-106,0-110,40-110,40l-1,67l105.5-0.5v13h-161c0,0-56.5,3.5-58.5,114.5s53.5,112.5,53.5,112.5l49-1c0,0,0.5-47.6,0.5-63.5
			c0-23,23-54,55-54c0,0,97.5-1,130-1c21,0,43-26,43-52v-124C578.6,384.4,578.6,333.4,472.6,333.4z"/>
		<path class="st112" d="M398.3,416.7c-8.8,0-16-7.2-16-16s7.2-16,16-16s16,7.2,16,16S407.1,416.7,398.3,416.7z M473.3,332.7
			c-106,0-110,40-110,40l-1,67l105.5-0.5v13h-161c0,0-56.5,3.5-58.5,114.5s53.5,112.5,53.5,112.5l49-1c0,0,0.5-47.6,0.5-63.5
			c0-23,23-54,55-54c0,0,97.5-1,130-1c21,0,43-26,43-52v-124C579.3,383.7,579.3,332.7,473.3,332.7z"/>
		<path class="st113" d="M399,416c-8.8,0-16-7.2-16-16s7.2-16,16-16s16,7.2,16,16S407.8,416,399,416z M474,332c-106,0-110,40-110,40
			l-1,67l105.5-0.5v13h-161c0,0-56.5,3.5-58.5,114.5s53.5,112.5,53.5,112.5l49-1c0,0,0.5-47.6,0.5-63.5c0-23,23-54,55-54
			c0,0,97.5-1,130-1c21,0,43-26,43-52V383C580,383,580,332,474,332z"/>
		<path class="st114" d="M399.7,415.3c-8.8,0-16-7.2-16-16s7.2-16,16-16s16,7.2,16,16S408.5,415.3,399.7,415.3z M474.7,331.3
			c-106,0-110,40-110,40l-1,67l105.5-0.5v13h-161c0,0-56.5,3.5-58.5,114.5s53.5,112.5,53.5,112.5l49-1c0,0,0.5-47.6,0.5-63.5
			c0-23,23-54,55-54c0,0,97.5-1,130-1c21,0,43-26,43-52v-124C580.7,382.3,580.7,331.3,474.7,331.3z"/>
		<path class="st115" d="M400.4,414.6c-8.8,0-16-7.2-16-16s7.2-16,16-16s16,7.2,16,16S409.2,414.6,400.4,414.6z M475.4,330.6
			c-106,0-110,40-110,40l-1,67l105.5-0.5v13h-161c0,0-56.5,3.5-58.5,114.5s53.5,112.5,53.5,112.5l49-1c0,0,0.5-47.6,0.5-63.5
			c0-23,23-54,55-54c0,0,97.5-1,130-1c21,0,43-26,43-52v-124C581.4,381.6,581.4,330.6,475.4,330.6z"/>
		<path class="st116" d="M401.1,413.9c-8.8,0-16-7.2-16-16s7.2-16,16-16s16,7.2,16,16S409.9,413.9,401.1,413.9z M476.1,329.9
			c-106,0-110,40-110,40l-1,67l105.5-0.5v13h-161c0,0-56.5,3.5-58.5,114.5s53.5,112.5,53.5,112.5l49-1c0,0,0.5-47.6,0.5-63.5
			c0-23,23-54,55-54c0,0,97.5-1,130-1c21,0,43-26,43-52v-124C582.1,380.9,582.1,329.9,476.1,329.9z"/>
		<path class="st117" d="M401.8,413.2c-8.8,0-16-7.2-16-16s7.2-16,16-16s16,7.2,16,16S410.6,413.2,401.8,413.2z M476.8,329.2
			c-106,0-110,40-110,40l-1,67l105.5-0.5v13h-161c0,0-56.5,3.5-58.5,114.5s53.5,112.5,53.5,112.5l49-1c0,0,0.5-47.6,0.5-63.5
			c0-23,23-54,55-54c0,0,97.5-1,130-1c21,0,43-26,43-52v-124C582.8,380.2,582.8,329.2,476.8,329.2z"/>
		<path class="st118" d="M402.5,412.5c-8.8,0-16-7.2-16-16s7.2-16,16-16s16,7.2,16,16S411.4,412.5,402.5,412.5z M477.5,328.5
			c-106,0-110,40-110,40l-1,67L472,435v13H311c0,0-56.5,3.5-58.5,114.5S306,675,306,675l49-1c0,0,0.5-47.6,0.5-63.5
			c0-23,23-54,55-54c0,0,97.5-1,130-1c21,0,43-26,43-52v-124C583.5,379.5,583.5,328.5,477.5,328.5z"/>
		<path class="st119" d="M403.2,411.8c-8.8,0-16-7.2-16-16s7.2-16,16-16s16,7.2,16,16S412.1,411.8,403.2,411.8z M478.2,327.8
			c-106,0-110,40-110,40l-1,67l105.5-0.5v13h-161c0,0-56.5,3.5-58.5,114.5s53.5,112.5,53.5,112.5l49-1c0,0,0.5-47.6,0.5-63.5
			c0-23,23-54,55-54c0,0,97.5-1,130-1c21,0,43-26,43-52v-124C584.2,378.8,584.2,327.8,478.2,327.8z"/>
		<path class="st120" d="M403.9,411.1c-8.8,0-16-7.2-16-16s7.2-16,16-16s16,7.2,16,16S412.8,411.1,403.9,411.1z M478.9,327.1
			c-106,0-110,40-110,40l-1,67l105.5-0.5v13h-161c0,0-56.5,3.5-58.5,114.5s53.5,112.5,53.5,112.5l49-1c0,0,0.5-47.6,0.5-63.5
			c0-23,23-54,55-54c0,0,97.5-1,130-1c21,0,43-26,43-52v-124C584.9,378.1,584.9,327.1,478.9,327.1z"/>
		<path class="st121" d="M404.6,410.4c-8.8,0-16-7.2-16-16s7.2-16,16-16s16,7.2,16,16S413.5,410.4,404.6,410.4z M479.6,326.4
			c-106,0-110,40-110,40l-1,67l105.5-0.5v13h-161c0,0-56.5,3.5-58.5,114.5s53.5,112.5,53.5,112.5l49-1c0,0,0.5-47.6,0.5-63.5
			c0-23,23-54,55-54c0,0,97.5-1,130-1c21,0,43-26,43-52v-124C585.6,377.4,585.6,326.4,479.6,326.4z"/>
		<path class="st122" d="M405.3,409.7c-8.8,0-16-7.2-16-16s7.2-16,16-16s16,7.2,16,16S414.2,409.7,405.3,409.7z M480.3,325.7
			c-106,0-110,40-110,40l-1,67l105.5-0.5v13h-161c0,0-56.5,3.5-58.5,114.5s53.5,112.5,53.5,112.5l49-1c0,0,0.5-47.6,0.5-63.5
			c0-23,23-54,55-54c0,0,97.5-1,130-1c21,0,43-26,43-52v-124C586.3,376.7,586.3,325.7,480.3,325.7z"/>
		<path class="st123" d="M406.1,408.9c-8.8,0-16-7.2-16-16s7.2-16,16-16s16,7.2,16,16S414.9,408.9,406.1,408.9z M481.1,324.9
			c-106,0-110,40-110,40l-1,67l105.5-0.5v13h-161c0,0-56.5,3.5-58.5,114.5s53.5,112.5,53.5,112.5l49-1c0,0,0.5-47.6,0.5-63.5
			c0-23,23-54,55-54c0,0,97.5-1,130-1c21,0,43-26,43-52v-124C587.1,375.9,587.1,324.9,481.1,324.9z"/>
		<path class="st124" d="M406.8,408.2c-8.8,0-16-7.2-16-16s7.2-16,16-16s16,7.2,16,16S415.6,408.2,406.8,408.2z M481.8,324.2
			c-106,0-110,40-110,40l-1,67l105.5-0.5v13h-161c0,0-56.5,3.5-58.5,114.5s53.5,112.5,53.5,112.5l49-1c0,0,0.5-47.6,0.5-63.5
			c0-23,23-54,55-54c0,0,97.5-1,130-1c21,0,43-26,43-52v-124C587.8,375.2,587.8,324.2,481.8,324.2z"/>
		<path class="st125" d="M407.5,407.5c-8.8,0-16-7.2-16-16s7.2-16,16-16s16,7.2,16,16S416.3,407.5,407.5,407.5z M482.5,323.5
			c-106,0-110,40-110,40l-1,67L477,430v13H316c0,0-56.5,3.5-58.5,114.5S311,670,311,670l49-1c0,0,0.5-47.6,0.5-63.5
			c0-23,23-54,55-54c0,0,97.5-1,130-1c21,0,43-26,43-52v-124C588.5,374.5,588.5,323.5,482.5,323.5z"/>
		<path class="st126" d="M408.2,406.8c-8.8,0-16-7.2-16-16s7.2-16,16-16s16,7.2,16,16S417,406.8,408.2,406.8z M483.2,322.8
			c-106,0-110,40-110,40l-1,67l105.5-0.5v13h-161c0,0-56.5,3.5-58.5,114.5s53.5,112.5,53.5,112.5l49-1c0,0,0.5-47.6,0.5-63.5
			c0-23,23-54,55-54c0,0,97.5-1,130-1c21,0,43-26,43-52v-124C589.2,373.8,589.2,322.8,483.2,322.8z"/>
		<path class="st127" d="M408.9,406.1c-8.8,0-16-7.2-16-16s7.2-16,16-16s16,7.2,16,16S417.7,406.1,408.9,406.1z M483.9,322.1
			c-106,0-110,40-110,40l-1,67l105.5-0.5v13h-161c0,0-56.5,3.5-58.5,114.5s53.5,112.5,53.5,112.5l49-1c0,0,0.5-47.6,0.5-63.5
			c0-23,23-54,55-54c0,0,97.5-1,130-1c21,0,43-26,43-52v-124C589.9,373.1,589.9,322.1,483.9,322.1z"/>
		<path class="st128" d="M409.6,405.4c-8.8,0-16-7.2-16-16s7.2-16,16-16s16,7.2,16,16S418.4,405.4,409.6,405.4z M484.6,321.4
			c-106,0-110,40-110,40l-1,67l105.5-0.5v13h-161c0,0-56.5,3.5-58.5,114.5s53.5,112.5,53.5,112.5l49-1c0,0,0.5-47.6,0.5-63.5
			c0-23,23-54,55-54c0,0,97.5-1,130-1c21,0,43-26,43-52v-124C590.6,372.4,590.6,321.4,484.6,321.4z"/>
		<path class="st129" d="M410.3,404.7c-8.8,0-16-7.2-16-16s7.2-16,16-16s16,7.2,16,16S419.1,404.7,410.3,404.7z M485.3,320.7
			c-106,0-110,40-110,40l-1,67l105.5-0.5v13h-161c0,0-56.5,3.5-58.5,114.5s53.5,112.5,53.5,112.5l49-1c0,0,0.5-47.6,0.5-63.5
			c0-23,23-54,55-54c0,0,97.5-1,130-1c21,0,43-26,43-52v-124C591.3,371.7,591.3,320.7,485.3,320.7z"/>
		<path class="st130" d="M411,404c-8.8,0-16-7.2-16-16s7.2-16,16-16s16,7.2,16,16S419.8,404,411,404z M486,320c-106,0-110,40-110,40
			l-1,67l105.5-0.5v13h-161c0,0-56.5,3.5-58.5,114.5s53.5,112.5,53.5,112.5l49-1c0,0,0.5-47.6,0.5-63.5c0-23,23-54,55-54
			c0,0,97.5-1,130-1c21,0,43-26,43-52V371C592,371,592,320,486,320z"/>
		<path class="st131" d="M411.7,403.3c-8.8,0-16-7.2-16-16s7.2-16,16-16s16,7.2,16,16S420.5,403.3,411.7,403.3z M486.7,319.3
			c-106,0-110,40-110,40l-1,67l105.5-0.5v13h-161c0,0-56.5,3.5-58.5,114.5s53.5,112.5,53.5,112.5l49-1c0,0,0.5-47.6,0.5-63.5
			c0-23,23-54,55-54c0,0,97.5-1,130-1c21,0,43-26,43-52v-124C592.7,370.3,592.7,319.3,486.7,319.3z"/>
		<path class="st132" d="M412.4,402.6c-8.8,0-16-7.2-16-16s7.2-16,16-16s16,7.2,16,16S421.3,402.6,412.4,402.6z M487.4,318.6
			c-106,0-110,40-110,40l-1,67l105.5-0.5v13h-161c0,0-56.5,3.5-58.5,114.5s53.5,112.5,53.5,112.5l49-1c0,0,0.5-47.6,0.5-63.5
			c0-23,23-54,55-54c0,0,97.5-1,130-1c21,0,43-26,43-52v-124C593.4,369.6,593.4,318.6,487.4,318.6z"/>
		<path class="st133" d="M413.1,401.9c-8.8,0-16-7.2-16-16s7.2-16,16-16s16,7.2,16,16S422,401.9,413.1,401.9z M488.1,317.9
			c-106,0-110,40-110,40l-1,67l105.5-0.5v13h-161c0,0-56.5,3.5-58.5,114.5s53.5,112.5,53.5,112.5l49-1c0,0,0.5-47.6,0.5-63.5
			c0-23,23-54,55-54c0,0,97.5-1,130-1c21,0,43-26,43-52v-124C594.1,368.9,594.1,317.9,488.1,317.9z"/>
		<path class="st134" d="M413.8,401.2c-8.8,0-16-7.2-16-16s7.2-16,16-16s16,7.2,16,16S422.7,401.2,413.8,401.2z M488.8,317.2
			c-106,0-110,40-110,40l-1,67l105.5-0.5v13h-161c0,0-56.5,3.5-58.5,114.5s53.5,112.5,53.5,112.5l49-1c0,0,0.5-47.6,0.5-63.5
			c0-23,23-54,55-54c0,0,97.5-1,130-1c21,0,43-26,43-52v-124C594.8,368.2,594.8,317.2,488.8,317.2z"/>
		<path class="st135" d="M414.5,400.5c-8.8,0-16-7.2-16-16s7.2-16,16-16s16,7.2,16,16S423.4,400.5,414.5,400.5z M489.5,316.5
			c-106,0-110,40-110,40l-1,67L484,423v13H323c0,0-56.5,3.5-58.5,114.5S318,663,318,663l49-1c0,0,0.5-47.6,0.5-63.5
			c0-23,23-54,55-54c0,0,97.5-1,130-1c21,0,43-26,43-52v-124C595.5,367.5,595.5,316.5,489.5,316.5z"/>
		<path class="st136" d="M415.2,399.8c-8.8,0-16-7.2-16-16s7.2-16,16-16s16,7.2,16,16S424.1,399.8,415.2,399.8z M490.2,315.8
			c-106,0-110,40-110,40l-1,67l105.5-0.5v13h-161c0,0-56.5,3.5-58.5,114.5s53.5,112.5,53.5,112.5l49-1c0,0,0.5-47.6,0.5-63.5
			c0-23,23-54,55-54c0,0,97.5-1,130-1c21,0,43-26,43-52v-124C596.2,366.8,596.2,315.8,490.2,315.8z"/>
		<path class="st137" d="M416,399c-8.8,0-16-7.2-16-16s7.2-16,16-16s16,7.2,16,16S424.8,399,416,399z M491,315c-106,0-110,40-110,40
			l-1,67l105.5-0.5v13h-161c0,0-56.5,3.5-58.5,114.5s53.5,112.5,53.5,112.5l49-1c0,0,0.5-47.6,0.5-63.5c0-23,23-54,55-54
			c0,0,97.5-1,130-1c21,0,43-26,43-52V366C597,366,597,315,491,315z"/>
		<path class="st138" d="M416.7,398.3c-8.8,0-16-7.2-16-16s7.2-16,16-16s16,7.2,16,16S425.5,398.3,416.7,398.3z M491.7,314.3
			c-106,0-110,40-110,40l-1,67l105.5-0.5v13h-161c0,0-56.5,3.5-58.5,114.5s53.5,112.5,53.5,112.5l49-1c0,0,0.5-47.6,0.5-63.5
			c0-23,23-54,55-54c0,0,97.5-1,130-1c21,0,43-26,43-52v-124C597.7,365.3,597.7,314.3,491.7,314.3z"/>
		<path class="st139" d="M417.4,397.6c-8.8,0-16-7.2-16-16s7.2-16,16-16s16,7.2,16,16S426.2,397.6,417.4,397.6z M492.4,313.6
			c-106,0-110,40-110,40l-1,67l105.5-0.5v13h-161c0,0-56.5,3.5-58.5,114.5s53.5,112.5,53.5,112.5l49-1c0,0,0.5-47.6,0.5-63.5
			c0-23,23-54,55-54c0,0,97.5-1,130-1c21,0,43-26,43-52v-124C598.4,364.6,598.4,313.6,492.4,313.6z"/>
		<path class="st140" d="M418.1,396.9c-8.8,0-16-7.2-16-16s7.2-16,16-16s16,7.2,16,16S426.9,396.9,418.1,396.9z M493.1,312.9
			c-106,0-110,40-110,40l-1,67l105.5-0.5v13h-161c0,0-56.5,3.5-58.5,114.5s53.5,112.5,53.5,112.5l49-1c0,0,0.5-47.6,0.5-63.5
			c0-23,23-54,55-54c0,0,97.5-1,130-1c21,0,43-26,43-52v-124C599.1,363.9,599.1,312.9,493.1,312.9z"/>
		<path class="st141" d="M418.8,396.2c-8.8,0-16-7.2-16-16s7.2-16,16-16s16,7.2,16,16S427.6,396.2,418.8,396.2z M493.8,312.2
			c-106,0-110,40-110,40l-1,67l105.5-0.5v13h-161c0,0-56.5,3.5-58.5,114.5s53.5,112.5,53.5,112.5l49-1c0,0,0.5-47.6,0.5-63.5
			c0-23,23-54,55-54c0,0,97.5-1,130-1c21,0,43-26,43-52v-124C599.8,363.2,599.8,312.2,493.8,312.2z"/>
		<path class="st142" d="M419.5,395.5c-8.8,0-16-7.2-16-16s7.2-16,16-16s16,7.2,16,16S428.3,395.5,419.5,395.5z M494.5,311.5
			c-106,0-110,40-110,40l-1,67L489,418v13H328c0,0-56.5,3.5-58.5,114.5S323,658,323,658l49-1c0,0,0.5-47.6,0.5-63.5
			c0-23,23-54,55-54c0,0,97.5-1,130-1c21,0,43-26,43-52v-124C600.5,362.5,600.5,311.5,494.5,311.5z"/>
		<path class="st143" d="M420.2,394.8c-8.8,0-16-7.2-16-16s7.2-16,16-16s16,7.2,16,16S429,394.8,420.2,394.8z M495.2,310.8
			c-106,0-110,40-110,40l-1,67l105.5-0.5v13h-161c0,0-56.5,3.5-58.5,114.5s53.5,112.5,53.5,112.5l49-1c0,0,0.5-47.6,0.5-63.5
			c0-23,23-54,55-54c0,0,97.5-1,130-1c21,0,43-26,43-52v-124C601.2,361.8,601.2,310.8,495.2,310.8z"/>
		<path class="st144" d="M420.9,394.1c-8.8,0-16-7.2-16-16s7.2-16,16-16s16,7.2,16,16S429.7,394.1,420.9,394.1z M495.9,310.1
			c-106,0-110,40-110,40l-1,67l105.5-0.5v13h-161c0,0-56.5,3.5-58.5,114.5s53.5,112.5,53.5,112.5l49-1c0,0,0.5-47.6,0.5-63.5
			c0-23,23-54,55-54c0,0,97.5-1,130-1c21,0,43-26,43-52v-124C601.9,361.1,601.9,310.1,495.9,310.1z"/>
		<path class="st145" d="M421.6,393.4c-8.8,0-16-7.2-16-16s7.2-16,16-16s16,7.2,16,16S430.4,393.4,421.6,393.4z M496.6,309.4
			c-106,0-110,40-110,40l-1,67l105.5-0.5v13h-161c0,0-56.5,3.5-58.5,114.5s53.5,112.5,53.5,112.5l49-1c0,0,0.5-47.6,0.5-63.5
			c0-23,23-54,55-54c0,0,97.5-1,130-1c21,0,43-26,43-52v-124C602.6,360.4,602.6,309.4,496.6,309.4z"/>
		<path class="st146" d="M422.3,392.7c-8.8,0-16-7.2-16-16s7.2-16,16-16s16,7.2,16,16S431.2,392.7,422.3,392.7z M497.3,308.7
			c-106,0-110,40-110,40l-1,67l105.5-0.5v13h-161c0,0-56.5,3.5-58.5,114.5s53.5,112.5,53.5,112.5l49-1c0,0,0.5-47.6,0.5-63.5
			c0-23,23-54,55-54c0,0,97.5-1,130-1c21,0,43-26,43-52v-124C603.3,359.7,603.3,308.7,497.3,308.7z"/>
		<path class="st147" d="M423,392c-8.8,0-16-7.2-16-16s7.2-16,16-16s16,7.2,16,16S431.9,392,423,392z M498,308c-106,0-110,40-110,40
			l-1,67l105.5-0.5v13h-161c0,0-56.5,3.5-58.5,114.5s53.5,112.5,53.5,112.5l49-1c0,0,0.5-47.6,0.5-63.5c0-23,23-54,55-54
			c0,0,97.5-1,130-1c21,0,43-26,43-52V359C604,359,604,308,498,308z"/>
		<path class="st148" d="M423.7,391.3c-8.8,0-16-7.2-16-16s7.2-16,16-16s16,7.2,16,16S432.6,391.3,423.7,391.3z M498.7,307.3
			c-106,0-110,40-110,40l-1,67l105.5-0.5v13h-161c0,0-56.5,3.5-58.5,114.5s53.5,112.5,53.5,112.5l49-1c0,0,0.5-47.6,0.5-63.5
			c0-23,23-54,55-54c0,0,97.5-1,130-1c21,0,43-26,43-52v-124C604.7,358.3,604.7,307.3,498.7,307.3z"/>
		<path class="st149" d="M424.4,390.6c-8.8,0-16-7.2-16-16s7.2-16,16-16s16,7.2,16,16S433.3,390.6,424.4,390.6z M499.4,306.6
			c-106,0-110,40-110,40l-1,67l105.5-0.5v13h-161c0,0-56.5,3.5-58.5,114.5s53.5,112.5,53.5,112.5l49-1c0,0,0.5-47.6,0.5-63.5
			c0-23,23-54,55-54c0,0,97.5-1,130-1c21,0,43-26,43-52v-124C605.4,357.6,605.4,306.6,499.4,306.6z"/>
		<path class="st150" d="M425.1,389.9c-8.8,0-16-7.2-16-16s7.2-16,16-16s16,7.2,16,16S434,389.9,425.1,389.9z M500.1,305.9
			c-106,0-110,40-110,40l-1,67l105.5-0.5v13h-161c0,0-56.5,3.5-58.5,114.5s53.5,112.5,53.5,112.5l49-1c0,0,0.5-47.6,0.5-63.5
			c0-23,23-54,55-54c0,0,97.5-1,130-1c21,0,43-26,43-52v-124C606.1,356.9,606.1,305.9,500.1,305.9z"/>
		<path class="st151" d="M425.9,389.1c-8.8,0-16-7.2-16-16s7.2-16,16-16s16,7.2,16,16S434.7,389.1,425.9,389.1z M500.9,305.1
			c-106,0-110,40-110,40l-1,67l105.5-0.5v13h-161c0,0-56.5,3.5-58.5,114.5s53.5,112.5,53.5,112.5l49-1c0,0,0.5-47.6,0.5-63.5
			c0-23,23-54,55-54c0,0,97.5-1,130-1c21,0,43-26,43-52v-124C606.9,356.1,606.9,305.1,500.9,305.1z"/>
		<path class="st152" d="M426.6,388.4c-8.8,0-16-7.2-16-16s7.2-16,16-16s16,7.2,16,16S435.4,388.4,426.6,388.4z M501.6,304.4
			c-106,0-110,40-110,40l-1,67l105.5-0.5v13h-161c0,0-56.5,3.5-58.5,114.5s53.5,112.5,53.5,112.5l49-1c0,0,0.5-47.6,0.5-63.5
			c0-23,23-54,55-54c0,0,97.5-1,130-1c21,0,43-26,43-52v-124C607.6,355.4,607.6,304.4,501.6,304.4z"/>
		<path class="st153" d="M427.3,387.7c-8.8,0-16-7.2-16-16s7.2-16,16-16s16,7.2,16,16S436.1,387.7,427.3,387.7z M502.3,303.7
			c-106,0-110,40-110,40l-1,67l105.5-0.5v13h-161c0,0-56.5,3.5-58.5,114.5s53.5,112.5,53.5,112.5l49-1c0,0,0.5-47.6,0.5-63.5
			c0-23,23-54,55-54c0,0,97.5-1,130-1c21,0,43-26,43-52v-124C608.3,354.7,608.3,303.7,502.3,303.7z"/>
		<path class="st154" d="M428,387c-8.8,0-16-7.2-16-16s7.2-16,16-16s16,7.2,16,16S436.8,387,428,387z M503,303c-106,0-110,40-110,40
			l-1,67l105.5-0.5v13h-161c0,0-56.5,3.5-58.5,114.5s53.5,112.5,53.5,112.5l49-1c0,0,0.5-47.6,0.5-63.5c0-23,23-54,55-54
			c0,0,97.5-1,130-1c21,0,43-26,43-52V354C609,354,609,303,503,303z"/>
		<path class="st155" d="M428.7,386.3c-8.8,0-16-7.2-16-16s7.2-16,16-16s16,7.2,16,16S437.5,386.3,428.7,386.3z M503.7,302.3
			c-106,0-110,40-110,40l-1,67l105.5-0.5v13h-161c0,0-56.5,3.5-58.5,114.5s53.5,112.5,53.5,112.5l49-1c0,0,0.5-47.6,0.5-63.5
			c0-23,23-54,55-54c0,0,97.5-1,130-1c21,0,43-26,43-52v-124C609.7,353.3,609.7,302.3,503.7,302.3z"/>
		<path class="st156" d="M429.4,385.6c-8.8,0-16-7.2-16-16s7.2-16,16-16s16,7.2,16,16S438.2,385.6,429.4,385.6z M504.4,301.6
			c-106,0-110,40-110,40l-1,67l105.5-0.5v13h-161c0,0-56.5,3.5-58.5,114.5s53.5,112.5,53.5,112.5l49-1c0,0,0.5-47.6,0.5-63.5
			c0-23,23-54,55-54c0,0,97.5-1,130-1c21,0,43-26,43-52v-124C610.4,352.6,610.4,301.6,504.4,301.6z"/>
		<path class="st157" d="M430.1,384.9c-8.8,0-16-7.2-16-16s7.2-16,16-16s16,7.2,16,16S438.9,384.9,430.1,384.9z M505.1,300.9
			c-106,0-110,40-110,40l-1,67l105.5-0.5v13h-161c0,0-56.5,3.5-58.5,114.5s53.5,112.5,53.5,112.5l49-1c0,0,0.5-47.6,0.5-63.5
			c0-23,23-54,55-54c0,0,97.5-1,130-1c21,0,43-26,43-52v-124C611.1,351.9,611.1,300.9,505.1,300.9z"/>
		<path class="st158" d="M430.8,384.2c-8.8,0-16-7.2-16-16s7.2-16,16-16s16,7.2,16,16S439.6,384.2,430.8,384.2z M505.8,300.2
			c-106,0-110,40-110,40l-1,67l105.5-0.5v13h-161c0,0-56.5,3.5-58.5,114.5s53.5,112.5,53.5,112.5l49-1c0,0,0.5-47.6,0.5-63.5
			c0-23,23-54,55-54c0,0,97.5-1,130-1c21,0,43-26,43-52v-124C611.8,351.2,611.8,300.2,505.8,300.2z"/>
		<path class="st159" d="M431.5,383.5c-8.8,0-16-7.2-16-16s7.2-16,16-16s16,7.2,16,16S440.3,383.5,431.5,383.5z M506.5,299.5
			c-106,0-110,40-110,40l-1,67L501,406v13H340c0,0-56.5,3.5-58.5,114.5S335,646,335,646l49-1c0,0,0.5-47.6,0.5-63.5
			c0-23,23-54,55-54c0,0,97.5-1,130-1c21,0,43-26,43-52v-124C612.5,350.5,612.5,299.5,506.5,299.5z"/>
		<path class="st160" d="M432.2,382.8c-8.8,0-16-7.2-16-16s7.2-16,16-16s16,7.2,16,16S441.1,382.8,432.2,382.8z M507.2,298.8
			c-106,0-110,40-110,40l-1,67l105.5-0.5v13h-161c0,0-56.5,3.5-58.5,114.5s53.5,112.5,53.5,112.5l49-1c0,0,0.5-47.6,0.5-63.5
			c0-23,23-54,55-54c0,0,97.5-1,130-1c21,0,43-26,43-52v-124C613.2,349.8,613.2,298.8,507.2,298.8z"/>
		<path class="st161" d="M432.9,382.1c-8.8,0-16-7.2-16-16s7.2-16,16-16s16,7.2,16,16S441.8,382.1,432.9,382.1z M507.9,298.1
			c-106,0-110,40-110,40l-1,67l105.5-0.5v13h-161c0,0-56.5,3.5-58.5,114.5s53.5,112.5,53.5,112.5l49-1c0,0,0.5-47.6,0.5-63.5
			c0-23,23-54,55-54c0,0,97.5-1,130-1c21,0,43-26,43-52v-124C613.9,349.1,613.9,298.1,507.9,298.1z"/>
		<path class="st162" d="M433.6,381.4c-8.8,0-16-7.2-16-16s7.2-16,16-16s16,7.2,16,16S442.5,381.4,433.6,381.4z M508.6,297.4
			c-106,0-110,40-110,40l-1,67l105.5-0.5v13h-161c0,0-56.5,3.5-58.5,114.5s53.5,112.5,53.5,112.5l49-1c0,0,0.5-47.6,0.5-63.5
			c0-23,23-54,55-54c0,0,97.5-1,130-1c21,0,43-26,43-52v-124C614.6,348.4,614.6,297.4,508.6,297.4z"/>
		<path class="st163" d="M434.3,380.7c-8.8,0-16-7.2-16-16s7.2-16,16-16s16,7.2,16,16S443.2,380.7,434.3,380.7z M509.3,296.7
			c-106,0-110,40-110,40l-1,67l105.5-0.5v13h-161c0,0-56.5,3.5-58.5,114.5s53.5,112.5,53.5,112.5l49-1c0,0,0.5-47.6,0.5-63.5
			c0-23,23-54,55-54c0,0,97.5-1,130-1c21,0,43-26,43-52v-124C615.3,347.7,615.3,296.7,509.3,296.7z"/>
		<path class="st164" d="M435,380c-8.8,0-16-7.2-16-16s7.2-16,16-16s16,7.2,16,16S443.9,380,435,380z M510,296c-106,0-110,40-110,40
			l-1,67l105.5-0.5v13h-161c0,0-56.5,3.5-58.5,114.5s53.5,112.5,53.5,112.5l49-1c0,0,0.5-47.6,0.5-63.5c0-23,23-54,55-54
			c0,0,97.5-1,130-1c21,0,43-26,43-52V347C616,347,616,296,510,296z"/>
		<path class="st165" d="M435.8,379.2c-8.8,0-16-7.2-16-16s7.2-16,16-16s16,7.2,16,16S444.6,379.2,435.8,379.2z M510.8,295.2
			c-106,0-110,40-110,40l-1,67l105.5-0.5v13h-161c0,0-56.5,3.5-58.5,114.5s53.5,112.5,53.5,112.5l49-1c0,0,0.5-47.6,0.5-63.5
			c0-23,23-54,55-54c0,0,97.5-1,130-1c21,0,43-26,43-52v-124C616.8,346.2,616.8,295.2,510.8,295.2z"/>
		<path class="st166" d="M436.5,378.5c-8.8,0-16-7.2-16-16s7.2-16,16-16s16,7.2,16,16S445.3,378.5,436.5,378.5z M511.5,294.5
			c-106,0-110,40-110,40l-1,67L506,401v13H345c0,0-56.5,3.5-58.5,114.5S340,641,340,641l49-1c0,0,0.5-47.6,0.5-63.5
			c0-23,23-54,55-54c0,0,97.5-1,130-1c21,0,43-26,43-52v-124C617.5,345.5,617.5,294.5,511.5,294.5z"/>
		<path class="st167" d="M437.2,377.8c-8.8,0-16-7.2-16-16s7.2-16,16-16s16,7.2,16,16S446,377.8,437.2,377.8z M512.2,293.8
			c-106,0-110,40-110,40l-1,67l105.5-0.5v13h-161c0,0-56.5,3.5-58.5,114.5s53.5,112.5,53.5,112.5l49-1c0,0,0.5-47.6,0.5-63.5
			c0-23,23-54,55-54c0,0,97.5-1,130-1c21,0,43-26,43-52v-124C618.2,344.8,618.2,293.8,512.2,293.8z"/>
		<path class="st168" d="M437.9,377.1c-8.8,0-16-7.2-16-16s7.2-16,16-16s16,7.2,16,16S446.7,377.1,437.9,377.1z M512.9,293.1
			c-106,0-110,40-110,40l-1,67l105.5-0.5v13h-161c0,0-56.5,3.5-58.5,114.5s53.5,112.5,53.5,112.5l49-1c0,0,0.5-47.6,0.5-63.5
			c0-23,23-54,55-54c0,0,97.5-1,130-1c21,0,43-26,43-52v-124C618.9,344.1,618.9,293.1,512.9,293.1z"/>
		<path class="st169" d="M438.6,376.4c-8.8,0-16-7.2-16-16s7.2-16,16-16s16,7.2,16,16S447.4,376.4,438.6,376.4z M513.6,292.4
			c-106,0-110,40-110,40l-1,67l105.5-0.5v13h-161c0,0-56.5,3.5-58.5,114.5s53.5,112.5,53.5,112.5l49-1c0,0,0.5-47.6,0.5-63.5
			c0-23,23-54,55-54c0,0,97.5-1,130-1c21,0,43-26,43-52v-124C619.6,343.4,619.6,292.4,513.6,292.4z"/>
		<path class="st170" d="M439.3,375.7c-8.8,0-16-7.2-16-16s7.2-16,16-16s16,7.2,16,16S448.1,375.7,439.3,375.7z M514.3,291.7
			c-106,0-110,40-110,40l-1,67l105.5-0.5v13h-161c0,0-56.5,3.5-58.5,114.5s53.5,112.5,53.5,112.5l49-1c0,0,0.5-47.6,0.5-63.5
			c0-23,23-54,55-54c0,0,97.5-1,130-1c21,0,43-26,43-52v-124C620.3,342.7,620.3,291.7,514.3,291.7z"/>
		<path class="st171" d="M440,375c-8.8,0-16-7.2-16-16s7.2-16,16-16s16,7.2,16,16S448.8,375,440,375z M515,291c-106,0-110,40-110,40
			l-1,67l105.5-0.5v13h-161c0,0-56.5,3.5-58.5,114.5s53.5,112.5,53.5,112.5l49-1c0,0,0.5-47.6,0.5-63.5c0-23,23-54,55-54
			c0,0,97.5-1,130-1c21,0,43-26,43-52V342C621,342,621,291,515,291z"/>
		<path class="st172" d="M440.7,374.3c-8.8,0-16-7.2-16-16s7.2-16,16-16s16,7.2,16,16S449.5,374.3,440.7,374.3z M515.7,290.3
			c-106,0-110,40-110,40l-1,67l105.5-0.5v13h-161c0,0-56.5,3.5-58.5,114.5s53.5,112.5,53.5,112.5l49-1c0,0,0.5-47.6,0.5-63.5
			c0-23,23-54,55-54c0,0,97.5-1,130-1c21,0,43-26,43-52v-124C621.7,341.3,621.7,290.3,515.7,290.3z"/>
		<path class="st173" d="M441.4,373.6c-8.8,0-16-7.2-16-16s7.2-16,16-16s16,7.2,16,16S450.2,373.6,441.4,373.6z M516.4,289.6
			c-106,0-110,40-110,40l-1,67l105.5-0.5v13h-161c0,0-56.5,3.5-58.5,114.5s53.5,112.5,53.5,112.5l49-1c0,0,0.5-47.6,0.5-63.5
			c0-23,23-54,55-54c0,0,97.5-1,130-1c21,0,43-26,43-52v-124C622.4,340.6,622.4,289.6,516.4,289.6z"/>
		<path class="st174" d="M442.1,372.9c-8.8,0-16-7.2-16-16s7.2-16,16-16s16,7.2,16,16S451,372.9,442.1,372.9z M517.1,288.9
			c-106,0-110,40-110,40l-1,67l105.5-0.5v13h-161c0,0-56.5,3.5-58.5,114.5s53.5,112.5,53.5,112.5l49-1c0,0,0.5-47.6,0.5-63.5
			c0-23,23-54,55-54c0,0,97.5-1,130-1c21,0,43-26,43-52v-124C623.1,339.9,623.1,288.9,517.1,288.9z"/>
		<path class="st175" d="M442.8,372.2c-8.8,0-16-7.2-16-16s7.2-16,16-16s16,7.2,16,16S451.7,372.2,442.8,372.2z M517.8,288.2
			c-106,0-110,40-110,40l-1,67l105.5-0.5v13h-161c0,0-56.5,3.5-58.5,114.5s53.5,112.5,53.5,112.5l49-1c0,0,0.5-47.6,0.5-63.5
			c0-23,23-54,55-54c0,0,97.5-1,130-1c21,0,43-26,43-52v-124C623.8,339.2,623.8,288.2,517.8,288.2z"/>
		<path class="st176" d="M443.5,371.5c-8.8,0-16-7.2-16-16s7.2-16,16-16s16,7.2,16,16S452.4,371.5,443.5,371.5z M518.5,287.5
			c-106,0-110,40-110,40l-1,67L513,394v13H352c0,0-56.5,3.5-58.5,114.5S347,634,347,634l49-1c0,0,0.5-47.6,0.5-63.5
			c0-23,23-54,55-54c0,0,97.5-1,130-1c21,0,43-26,43-52v-124C624.5,338.5,624.5,287.5,518.5,287.5z"/>
		<path class="st177" d="M444.2,370.8c-8.8,0-16-7.2-16-16s7.2-16,16-16s16,7.2,16,16S453.1,370.8,444.2,370.8z M519.2,286.8
			c-106,0-110,40-110,40l-1,67l105.5-0.5v13h-161c0,0-56.5,3.5-58.5,114.5s53.5,112.5,53.5,112.5l49-1c0,0,0.5-47.6,0.5-63.5
			c0-23,23-54,55-54c0,0,97.5-1,130-1c21,0,43-26,43-52v-124C625.2,337.8,625.2,286.8,519.2,286.8z"/>
		<path class="st178" d="M444.9,370.1c-8.8,0-16-7.2-16-16s7.2-16,16-16s16,7.2,16,16S453.8,370.1,444.9,370.1z M519.9,286.1
			c-106,0-110,40-110,40l-1,67l105.5-0.5v13h-161c0,0-56.5,3.5-58.5,114.5s53.5,112.5,53.5,112.5l49-1c0,0,0.5-47.6,0.5-63.5
			c0-23,23-54,55-54c0,0,97.5-1,130-1c21,0,43-26,43-52v-124C625.9,337.1,625.9,286.1,519.9,286.1z"/>
		<path class="st179" d="M445.7,369.3c-8.8,0-16-7.2-16-16s7.2-16,16-16s16,7.2,16,16S454.5,369.3,445.7,369.3z M520.7,285.3
			c-106,0-110,40-110,40l-1,67l105.5-0.5v13h-161c0,0-56.5,3.5-58.5,114.5s53.5,112.5,53.5,112.5l49-1c0,0,0.5-47.6,0.5-63.5
			c0-23,23-54,55-54c0,0,97.5-1,130-1c21,0,43-26,43-52v-124C626.7,336.3,626.7,285.3,520.7,285.3z"/>
		<path class="st180" d="M446.4,368.6c-8.8,0-16-7.2-16-16s7.2-16,16-16s16,7.2,16,16S455.2,368.6,446.4,368.6z M521.4,284.6
			c-106,0-110,40-110,40l-1,67l105.5-0.5v13h-161c0,0-56.5,3.5-58.5,114.5s53.5,112.5,53.5,112.5l49-1c0,0,0.5-47.6,0.5-63.5
			c0-23,23-54,55-54c0,0,97.5-1,130-1c21,0,43-26,43-52v-124C627.4,335.6,627.4,284.6,521.4,284.6z"/>
		<path class="st181" d="M447.1,367.9c-8.8,0-16-7.2-16-16s7.2-16,16-16s16,7.2,16,16S455.9,367.9,447.1,367.9z M522.1,283.9
			c-106,0-110,40-110,40l-1,67l105.5-0.5v13h-161c0,0-56.5,3.5-58.5,114.5s53.5,112.5,53.5,112.5l49-1c0,0,0.5-47.6,0.5-63.5
			c0-23,23-54,55-54c0,0,97.5-1,130-1c21,0,43-26,43-52v-124C628.1,334.9,628.1,283.9,522.1,283.9z"/>
		<path class="st182" d="M447.8,367.2c-8.8,0-16-7.2-16-16s7.2-16,16-16s16,7.2,16,16S456.6,367.2,447.8,367.2z M522.8,283.2
			c-106,0-110,40-110,40l-1,67l105.5-0.5v13h-161c0,0-56.5,3.5-58.5,114.5s53.5,112.5,53.5,112.5l49-1c0,0,0.5-47.6,0.5-63.5
			c0-23,23-54,55-54c0,0,97.5-1,130-1c21,0,43-26,43-52v-124C628.8,334.2,628.8,283.2,522.8,283.2z"/>
		<path class="st183" d="M448.5,366.5c-8.8,0-16-7.2-16-16s7.2-16,16-16s16,7.2,16,16S457.3,366.5,448.5,366.5z M523.5,282.5
			c-106,0-110,40-110,40l-1,67L518,389v13H357c0,0-56.5,3.5-58.5,114.5S352,629,352,629l49-1c0,0,0.5-47.6,0.5-63.5
			c0-23,23-54,55-54c0,0,97.5-1,130-1c21,0,43-26,43-52v-124C629.5,333.5,629.5,282.5,523.5,282.5z"/>
		<path class="st85" d="M449.2,365.8c-8.8,0-16-7.2-16-16s7.2-16,16-16s16,7.2,16,16S458,365.8,449.2,365.8z M524.2,281.8
			c-106,0-110,40-110,40l-1,67l105.5-0.5v13h-161c0,0-56.5,3.5-58.5,114.5s53.5,112.5,53.5,112.5l49-1c0,0,0.5-47.6,0.5-63.5
			c0-23,23-54,55-54c0,0,97.5-1,130-1c21,0,43-26,43-52v-124C630.2,332.8,630.2,281.8,524.2,281.8z"/>
		<path class="st86" d="M449.9,365.1c-8.8,0-16-7.2-16-16s7.2-16,16-16s16,7.2,16,16S458.7,365.1,449.9,365.1z M524.9,281.1
			c-106,0-110,40-110,40l-1,67l105.5-0.5v13h-161c0,0-56.5,3.5-58.5,114.5s53.5,112.5,53.5,112.5l49-1c0,0,0.5-47.6,0.5-63.5
			c0-23,23-54,55-54c0,0,97.5-1,130-1c21,0,43-26,43-52v-124C630.9,332.1,630.9,281.1,524.9,281.1z"/>
		<path class="st87" d="M450.6,364.4c-8.8,0-16-7.2-16-16s7.2-16,16-16s16,7.2,16,16S459.4,364.4,450.6,364.4z M525.6,280.4
			c-106,0-110,40-110,40l-1,67l105.5-0.5v13h-161c0,0-56.5,3.5-58.5,114.5s53.5,112.5,53.5,112.5l49-1c0,0,0.5-47.6,0.5-63.5
			c0-23,23-54,55-54c0,0,97.5-1,130-1c21,0,43-26,43-52v-124C631.6,331.4,631.6,280.4,525.6,280.4z"/>
		<path class="st88" d="M451.3,363.7c-8.8,0-16-7.2-16-16s7.2-16,16-16s16,7.2,16,16S460.1,363.7,451.3,363.7z M526.3,279.7
			c-106,0-110,40-110,40l-1,67l105.5-0.5v13h-161c0,0-56.5,3.5-58.5,114.5s53.5,112.5,53.5,112.5l49-1c0,0,0.5-47.6,0.5-63.5
			c0-23,23-54,55-54c0,0,97.5-1,130-1c21,0,43-26,43-52v-124C632.3,330.7,632.3,279.7,526.3,279.7z"/>
		<path class="st89" d="M452,363c-8.8,0-16-7.2-16-16s7.2-16,16-16s16,7.2,16,16S460.9,363,452,363z M527,279c-106,0-110,40-110,40
			l-1,67l105.5-0.5v13h-161c0,0-56.5,3.5-58.5,114.5s53.5,112.5,53.5,112.5l49-1c0,0,0.5-47.6,0.5-63.5c0-23,23-54,55-54
			c0,0,97.5-1,130-1c21,0,43-26,43-52V330C633,330,633,279,527,279z"/>
		<path class="st90" d="M452.7,362.3c-8.8,0-16-7.2-16-16s7.2-16,16-16s16,7.2,16,16S461.6,362.3,452.7,362.3z M527.7,278.3
			c-106,0-110,40-110,40l-1,67l105.5-0.5v13h-161c0,0-56.5,3.5-58.5,114.5s53.5,112.5,53.5,112.5l49-1c0,0,0.5-47.6,0.5-63.5
			c0-23,23-54,55-54c0,0,97.5-1,130-1c21,0,43-26,43-52v-124C633.7,329.3,633.7,278.3,527.7,278.3z"/>
		<path class="st91" d="M453.4,361.6c-8.8,0-16-7.2-16-16s7.2-16,16-16s16,7.2,16,16S462.3,361.6,453.4,361.6z M528.4,277.6
			c-106,0-110,40-110,40l-1,67l105.5-0.5v13h-161c0,0-56.5,3.5-58.5,114.5s53.5,112.5,53.5,112.5l49-1c0,0,0.5-47.6,0.5-63.5
			c0-23,23-54,55-54c0,0,97.5-1,130-1c21,0,43-26,43-52v-124C634.4,328.6,634.4,277.6,528.4,277.6z"/>
		<path class="st92" d="M454.1,360.9c-8.8,0-16-7.2-16-16s7.2-16,16-16s16,7.2,16,16S463,360.9,454.1,360.9z M529.1,276.9
			c-106,0-110,40-110,40l-1,67l105.5-0.5v13h-161c0,0-56.5,3.5-58.5,114.5s53.5,112.5,53.5,112.5l49-1c0,0,0.5-47.6,0.5-63.5
			c0-23,23-54,55-54c0,0,97.5-1,130-1c21,0,43-26,43-52v-124C635.1,327.9,635.1,276.9,529.1,276.9z"/>
		<path class="st93" d="M454.8,360.2c-8.8,0-16-7.2-16-16s7.2-16,16-16s16,7.2,16,16S463.7,360.2,454.8,360.2z M529.8,276.2
			c-106,0-110,40-110,40l-1,67l105.5-0.5v13h-161c0,0-56.5,3.5-58.5,114.5s53.5,112.5,53.5,112.5l49-1c0,0,0.5-47.6,0.5-63.5
			c0-23,23-54,55-54c0,0,97.5-1,130-1c21,0,43-26,43-52v-124C635.8,327.2,635.8,276.2,529.8,276.2z"/>
		<path class="st94" d="M455.6,359.4c-8.8,0-16-7.2-16-16s7.2-16,16-16s16,7.2,16,16S464.4,359.4,455.6,359.4z M530.6,275.4
			c-106,0-110,40-110,40l-1,67l105.5-0.5v13h-161c0,0-56.5,3.5-58.5,114.5s53.5,112.5,53.5,112.5l49-1c0,0,0.5-47.6,0.5-63.5
			c0-23,23-54,55-54c0,0,97.5-1,130-1c21,0,43-26,43-52v-124C636.6,326.4,636.6,275.4,530.6,275.4z"/>
		<path class="st95" d="M456.3,358.7c-8.8,0-16-7.2-16-16s7.2-16,16-16s16,7.2,16,16S465.1,358.7,456.3,358.7z M531.3,274.7
			c-106,0-110,40-110,40l-1,67l105.5-0.5v13h-161c0,0-56.5,3.5-58.5,114.5s53.5,112.5,53.5,112.5l49-1c0,0,0.5-47.6,0.5-63.5
			c0-23,23-54,55-54c0,0,97.5-1,130-1c21,0,43-26,43-52v-124C637.3,325.7,637.3,274.7,531.3,274.7z"/>
		<path class="st96" d="M457,358c-8.8,0-16-7.2-16-16s7.2-16,16-16s16,7.2,16,16S465.8,358,457,358z M532,274c-106,0-110,40-110,40
			l-1,67l105.5-0.5v13h-161c0,0-56.5,3.5-58.5,114.5s53.5,112.5,53.5,112.5l49-1c0,0,0.5-47.6,0.5-63.5c0-23,23-54,55-54
			c0,0,97.5-1,130-1c21,0,43-26,43-52V325C638,325,638,274,532,274z"/>
		<path class="st97" d="M457.7,357.3c-8.8,0-16-7.2-16-16s7.2-16,16-16s16,7.2,16,16S466.5,357.3,457.7,357.3z M532.7,273.3
			c-106,0-110,40-110,40l-1,67l105.5-0.5v13h-161c0,0-56.5,3.5-58.5,114.5s53.5,112.5,53.5,112.5l49-1c0,0,0.5-47.6,0.5-63.5
			c0-23,23-54,55-54c0,0,97.5-1,130-1c21,0,43-26,43-52v-124C638.7,324.3,638.7,273.3,532.7,273.3z"/>
		<path class="st98" d="M458.4,356.6c-8.8,0-16-7.2-16-16s7.2-16,16-16s16,7.2,16,16S467.2,356.6,458.4,356.6z M533.4,272.6
			c-106,0-110,40-110,40l-1,67l105.5-0.5v13h-161c0,0-56.5,3.5-58.5,114.5s53.5,112.5,53.5,112.5l49-1c0,0,0.5-47.6,0.5-63.5
			c0-23,23-54,55-54c0,0,97.5-1,130-1c21,0,43-26,43-52v-124C639.4,323.6,639.4,272.6,533.4,272.6z"/>
		<path class="st99" d="M459.1,355.9c-8.8,0-16-7.2-16-16s7.2-16,16-16s16,7.2,16,16S467.9,355.9,459.1,355.9z M534.1,271.9
			c-106,0-110,40-110,40l-1,67l105.5-0.5v13h-161c0,0-56.5,3.5-58.5,114.5s53.5,112.5,53.5,112.5l49-1c0,0,0.5-47.6,0.5-63.5
			c0-23,23-54,55-54c0,0,97.5-1,130-1c21,0,43-26,43-52v-124C640.1,322.9,640.1,271.9,534.1,271.9z"/>
		<path class="st100" d="M459.8,355.2c-8.8,0-16-7.2-16-16s7.2-16,16-16s16,7.2,16,16S468.6,355.2,459.8,355.2z M534.8,271.2
			c-106,0-110,40-110,40l-1,67l105.5-0.5v13h-161c0,0-56.5,3.5-58.5,114.5s53.5,112.5,53.5,112.5l49-1c0,0,0.5-47.6,0.5-63.5
			c0-23,23-54,55-54c0,0,97.5-1,130-1c21,0,43-26,43-52v-124C640.8,322.2,640.8,271.2,534.8,271.2z"/>
		<path d="M460.5,354.5c-8.8,0-16-7.2-16-16s7.2-16,16-16s16,7.2,16,16S469.3,354.5,460.5,354.5z M535.5,270.5c-106,0-110,40-110,40
			l-1,67L530,377v13H369c0,0-56.5,3.5-58.5,114.5S364,617,364,617l49-1c0,0,0.5-47.6,0.5-63.5c0-23,23-54,55-54c0,0,97.5-1,130-1
			c21,0,43-26,43-52v-124C641.5,321.5,641.5,270.5,535.5,270.5z"/>
	</g>
	<path class="st184" d="M700.9,387.5l-49,1c0,0-0.5,47.6-0.5,63.5c0,23-23,54-55,54c0,0-97.5,1-130,1c-21,0-43,26-43,52v124
		c0,0,0,51,106,51s110-40,110-40l1-67l-105.5,0.5v-13h161c0,0,56.5-3.5,58.5-114.5S700.9,387.5,700.9,387.5z M606.5,645.5
		c8.8,0,16,7.2,16,16s-7.2,16-16,16s-16-7.2-16-16S597.7,645.5,606.5,645.5z"/>
	<path class="st185" d="M535.5,270.5c-106,0-110,40-110,40l-1,67L530,377v13H369c0,0-56.5,3.5-58.5,114.5S364,617,364,617l49-1
		c0,0,0.5-47.6,0.5-63.5c0-23,23-54,55-54c0,0,97.5-1,130-1c21,0,43-26,43-52v-124C641.5,321.5,641.5,270.5,535.5,270.5z
		 M460.5,354.5c-8.8,0-16-7.2-16-16s7.2-16,16-16s16,7.2,16,16S469.3,354.5,460.5,354.5z"/>
</g>
</svg>
